<svg width="63" height="63" viewBox="0 0 63 63" fill="none" xmlns="http://www.w3.org/2000/svg">
<path d="M31.5 28.6412C48.8988 28.6412 63 22.2258 63 14.3206C63 6.41542 48.8988 0 31.5 0C14.1012 0 0 6.41542 0 14.3206C0 22.2258 14.1012 28.6412 31.5 28.6412ZM31.5 51.5381C19.4783 51.5381 8.84707 48.3841 2.14102 43.5121C0.775195 45.1227 0 46.8541 0 48.6794C0 56.5846 14.1012 63 31.5 63C48.8988 63 63 56.5846 63 48.6794C63 46.8541 62.2248 45.1227 60.859 43.5256C54.1529 48.3841 43.5217 51.5381 31.5 51.5381ZM31.5 34.3588C19.4783 34.3588 8.84707 31.2047 2.14102 26.3328C0.775195 27.9433 0 29.6747 0 31.5C0 39.4052 14.1012 45.8206 31.5 45.8206C48.8988 45.8206 63 39.4052 63 31.5C63 29.6747 62.2248 27.9433 60.859 26.3462C54.1529 31.2047 43.5217 34.3588 31.5 34.3588Z" fill="white"/>
</svg>
