<svg width="87" height="99" viewBox="0 0 87 99" fill="none" xmlns="http://www.w3.org/2000/svg">
<g filter="url(#filter0_d_6_17)">
<path d="M34.9496 29.2759C35.5271 27.729 37.9733 27.729 38.5508 29.2759L41.9366 38.3556C42.6819 40.3516 43.9376 42.1651 45.6041 43.6524C47.2706 45.1398 49.3022 46.26 51.5379 46.9244L61.7008 49.9479C63.4331 50.4635 63.4331 52.6479 61.7008 53.1635L51.5326 56.187C49.2974 56.8525 47.2665 57.9737 45.6009 59.4619C43.9352 60.95 42.6807 62.7641 41.9366 64.7604L38.5508 73.8355C38.4263 74.1742 38.1851 74.4692 37.8618 74.6783C37.5385 74.8874 37.1494 75 36.7502 75C36.351 75 35.9619 74.8874 35.6386 74.6783C35.3152 74.4692 35.0741 74.1742 34.9496 73.8355L31.5637 64.7558C30.819 62.7603 29.5641 60.9471 27.8986 59.4598C26.233 57.9725 24.2024 56.852 21.9678 56.187L11.7996 53.1635C11.4203 53.0523 11.09 52.837 10.8558 52.5483C10.6216 52.2596 10.4955 51.9122 10.4955 51.5557C10.4955 51.1992 10.6216 50.8518 10.8558 50.5631C11.09 50.2743 11.4203 50.059 11.7996 49.9479L21.9678 46.9244C24.2024 46.2594 26.233 45.1389 27.8986 43.6516C29.5641 42.1643 30.819 40.3511 31.5637 38.3556L34.9496 29.2759ZM14.6711 5.37425C14.7463 5.17126 14.8913 4.99461 15.0855 4.8694C15.2796 4.7442 15.513 4.67681 15.7524 4.67681C15.9919 4.67681 16.2253 4.7442 16.4194 4.8694C16.6135 4.99461 16.7585 5.17126 16.8338 5.37425L18.8654 10.8212C19.7735 13.2493 21.9048 15.1524 24.624 15.9634L30.7238 17.7774C30.9512 17.8446 31.149 17.9741 31.2892 18.1475C31.4294 18.3208 31.5049 18.5292 31.5049 18.7431C31.5049 18.9569 31.4294 19.1653 31.2892 19.3386C31.149 19.512 30.9512 19.6415 30.7238 19.7087L24.624 21.5228C23.2829 21.9217 22.0643 22.5942 21.0647 23.4867C20.0652 24.3793 19.3122 25.4674 18.8654 26.665L16.8338 32.1119C16.7585 32.3149 16.6135 32.4915 16.4194 32.6167C16.2253 32.7419 15.9919 32.8093 15.7524 32.8093C15.513 32.8093 15.2796 32.7419 15.0855 32.6167C14.8913 32.4915 14.7463 32.3149 14.6711 32.1119L12.6395 26.665C12.1927 25.4674 11.4397 24.3793 10.4401 23.4867C9.4406 22.5942 8.22199 21.9217 6.88089 21.5228L0.781048 19.7087C0.553718 19.6415 0.355893 19.512 0.21568 19.3386C0.0754678 19.1653 0 18.9569 0 18.7431C0 18.5292 0.0754678 18.3208 0.21568 18.1475C0.355893 17.9741 0.553718 17.8446 0.781048 17.7774L6.88089 15.9634C8.22199 15.5644 9.4406 14.892 10.4401 13.9994C11.4397 13.1069 12.1927 12.0187 12.6395 10.8212L14.6711 5.37425ZM51.7793 0.457045C51.8311 0.323574 51.9283 0.207838 52.0571 0.125927C52.186 0.0440154 52.3403 0 52.4985 0C52.6567 0 52.811 0.0440154 52.9399 0.125927C53.0687 0.207838 53.1659 0.323574 53.2177 0.457045L54.572 4.08519C55.1757 5.70707 56.5983 6.97739 58.4146 7.51645L62.4777 8.72583C62.6272 8.7721 62.7568 8.85882 62.8485 8.97391C62.9402 9.089 62.9895 9.22676 62.9895 9.36802C62.9895 9.50929 62.9402 9.64704 62.8485 9.76213C62.7568 9.87723 62.6272 9.96394 62.4777 10.0102L58.4146 11.2196C57.5195 11.4855 56.7062 11.934 56.0392 12.5297C55.3721 13.1253 54.8698 13.8516 54.572 14.6509L53.2177 18.279C53.1659 18.4125 53.0687 18.5282 52.9399 18.6101C52.811 18.692 52.6567 18.736 52.4985 18.736C52.3403 18.736 52.186 18.692 52.0571 18.6101C51.9283 18.5282 51.8311 18.4125 51.7793 18.279L50.425 14.6509C50.1272 13.8516 49.6249 13.1253 48.9578 12.5297C48.2908 11.934 47.4775 11.4855 46.5824 11.2196L42.5246 10.0102C42.3751 9.96394 42.2455 9.87723 42.1538 9.76213C42.062 9.64704 42.0127 9.50929 42.0127 9.36802C42.0127 9.22676 42.062 9.089 42.1538 8.97391C42.2455 8.85882 42.3751 8.7721 42.5246 8.72583L46.5876 7.51645C48.4039 6.97739 49.8265 5.70707 50.4302 4.08519L51.7793 0.461733V0.457045Z" fill="white"/>
</g>
<defs>
<filter id="filter0_d_6_17" x="0" y="0" width="87" height="99" filterUnits="userSpaceOnUse" color-interpolation-filters="sRGB">
<feFlood flood-opacity="0" result="BackgroundImageFix"/>
<feColorMatrix in="SourceAlpha" type="matrix" values="0 0 0 0 0 0 0 0 0 0 0 0 0 0 0 0 0 0 127 0" result="hardAlpha"/>
<feOffset dx="12" dy="12"/>
<feGaussianBlur stdDeviation="6"/>
<feComposite in2="hardAlpha" operator="out"/>
<feColorMatrix type="matrix" values="0 0 0 0 0 0 0 0 0 0 0 0 0 0 0 0 0 0 0.8 0"/>
<feBlend mode="normal" in2="BackgroundImageFix" result="effect1_dropShadow_6_17"/>
<feBlend mode="normal" in="SourceGraphic" in2="effect1_dropShadow_6_17" result="shape"/>
</filter>
</defs>
</svg>
