<svg width="94" height="94" viewBox="0 0 94 94" fill="none" xmlns="http://www.w3.org/2000/svg">
<path d="M83.2531 47C83.2531 45.919 83.2048 44.885 83.1081 43.804L92.0989 37.177C94.0324 35.767 94.5641 33.135 93.3557 31.067L84.3166 15.886C83.737 14.8905 82.7995 14.1383 81.6842 13.7739C80.569 13.4096 79.3546 13.4587 78.2744 13.912L67.8818 18.189C66.0933 16.967 64.2082 15.886 62.2263 14.993L60.8245 4.136C60.5345 1.786 58.456 0 56.0391 0H38.0092C35.544 0 33.4655 1.786 33.1755 4.136L31.7737 14.993C29.7919 15.886 27.9067 16.967 26.1182 18.189L15.7256 13.912C13.5021 12.972 10.8919 13.818 9.68344 15.886L0.644329 31.114C-0.564109 33.182 -0.0323961 35.767 1.9011 37.224L10.8919 43.851C10.6915 45.9615 10.6915 48.0855 10.8919 50.196L1.9011 56.823C-0.0323961 58.233 -0.564109 60.865 0.644329 62.933L9.68344 78.114C10.8919 80.182 13.5021 81.028 15.7256 80.088L26.1182 75.811C27.9067 77.033 29.7919 78.114 31.7737 79.007L33.1755 89.864C33.4655 92.214 35.544 94 37.9609 94H55.9908C58.4077 94 60.4862 92.214 60.7762 89.864L62.178 79.007C64.1598 78.114 66.045 77.033 67.8335 75.811L78.226 80.088C80.4496 81.028 83.0598 80.182 84.2682 78.114L93.3073 62.933C94.5158 60.865 93.9841 58.28 92.0506 56.823L83.0598 50.196C83.2048 49.115 83.2531 48.081 83.2531 47ZM47.1934 63.45C37.8642 63.45 30.2752 56.071 30.2752 47C30.2752 37.929 37.8642 30.55 47.1934 30.55C56.5225 30.55 64.1115 37.929 64.1115 47C64.1115 56.071 56.5225 63.45 47.1934 63.45Z" fill="white"/>
</svg>
