<svg width="121" height="45" viewBox="0 0 121 45" fill="none" xmlns="http://www.w3.org/2000/svg">
<path d="M117.771 43.1016C115.313 45.6094 111.479 45.4453 108.896 43.1016L89.6458 25.7812C87.2917 23.6484 84.3542 22.5 81.3125 22.5L56.6667 22.5C54.8333 22.5 53.3333 24.1875 53.3333 26.25C53.3333 28.3125 54.8333 30 56.6667 30L72.9792 30C76.2917 30 79.375 32.5547 79.9167 36.2344C80.6042 40.9219 77.3958 45 73.3333 45L40 45C34.375 45 28.9375 42.8203 24.5625 38.8359L14.875 30H3.33333C1.5 30 0 28.3125 0 26.25L0 3.75C0 1.6875 1.5 -3.8147e-06 3.33333 -3.8147e-06L77.6667 -3.8147e-06C80.6875 -3.8147e-06 83.625 1.14843 86 3.28125L117.5 31.6406C120.667 34.4766 120.917 39.9141 117.771 43.1016Z" fill="white"/>
</svg>
