<svg width="791" height="1360" viewBox="0 0 791 1360" fill="none" xmlns="http://www.w3.org/2000/svg">
<g filter="url(#filter0_d_64_104)">
<path d="M1.28994 3.00985L5.15975 3.86981C5.73305 13.3293 6.39235 29.0666 7.13765 51.0815C18.3171 31.1878 25.9994 15.1926 30.1845 3.09585C31.0445 2.40788 31.8758 2.0639 32.6784 2.0639C33.9397 2.0639 34.9716 2.8092 35.7742 4.29979C36.6342 5.79038 37.0929 7.48163 37.1502 9.37354C37.3222 14.7053 37.4655 23.7062 37.5802 36.3762C37.7522 49.0463 37.9815 58.5058 38.2681 64.7548C37.7522 66.4747 36.7775 67.3347 35.3443 67.3347C34.3123 67.3347 33.309 66.9047 32.3344 66.0448C31.3598 65.2421 30.7578 64.2389 30.5285 63.0349C30.7005 58.0472 30.7865 50.3935 30.7865 40.074C30.8438 29.7545 30.9012 22.7889 30.9585 19.1771C29.6972 21.3556 27.49 25.4834 24.3368 31.5605C21.1836 37.6375 18.2598 42.8546 15.5652 47.2117C12.928 51.5688 10.2048 55.3526 7.39564 58.5631L7.73962 65.5288C7.22365 67.306 6.22036 68.1947 4.72977 68.1947C3.69782 68.1947 2.69453 67.7647 1.71992 66.9047C0.802627 66.0448 0.229322 65.0128 0 63.8089C0.171992 58.9358 0.343983 49.3902 0.515975 35.1723C0.687966 20.9543 0.945954 10.2335 1.28994 3.00985ZM77.9122 4.47178L78.7721 8.34159C76.2496 8.51358 71.8352 8.80024 65.5288 9.20155C59.2224 9.54553 54.808 9.83219 52.2854 10.0615C52.4574 15.5079 52.5721 24.6235 52.6294 37.4082C52.6868 50.1929 52.8301 59.5664 53.0594 65.5288C52.5434 67.306 51.5401 68.1947 50.0496 68.1947C49.0176 68.1947 48.0143 67.7647 47.0397 66.9047C46.1224 66.0448 45.5491 65.0128 45.3198 63.8089C45.9504 56.5852 46.3517 39.7014 46.5237 13.1574C46.5237 12.1827 46.5237 10.6921 46.5237 8.68558C46.5811 6.67901 46.6097 5.10242 46.6097 3.95581C49.7056 4.1278 52.8301 4.21379 55.9833 4.21379C57.2445 4.21379 59.1364 4.21379 61.659 4.21379C64.1815 4.15646 66.0734 4.1278 67.3347 4.1278C71.2332 4.1278 74.759 4.24246 77.9122 4.47178ZM83.6739 4.29979L87.5437 3.26784C87.5437 5.10242 87.5724 6.13437 87.6297 6.36369C90.8976 4.18513 95.484 3.09585 101.389 3.09585C107.753 3.09585 112.511 5.10242 115.664 9.11555C118.818 13.0714 120.394 18.6324 120.394 25.7987C120.394 32.1624 118.846 37.4368 115.75 41.622C112.654 45.8071 107.982 47.8997 101.733 47.8997C100.701 47.8997 96.5733 47.5557 89.3496 46.8677C89.4643 51.0528 89.6936 57.5599 90.0376 66.3888C89.5216 68.166 88.5183 69.0546 87.0277 69.0546C85.9958 69.0546 84.9925 68.6246 84.0179 67.7647C83.1006 66.9621 82.5273 65.9588 82.298 64.7548C82.47 59.9391 82.642 50.5655 82.8139 36.6342C83.0433 22.7029 83.3299 11.9247 83.6739 4.29979ZM88.4037 12.1254L89.0916 38.9561C92.2448 40.676 95.8853 41.536 100.013 41.536C103.969 41.536 107.323 40.0454 110.075 37.0642C112.826 34.083 114.202 30.4425 114.202 26.1427C114.202 21.4989 112.769 17.3138 109.903 13.5873C107.036 9.86085 103.453 7.99761 99.1531 7.99761C95.656 7.99761 92.0728 9.37354 88.4037 12.1254ZM136.303 3.69782L142.839 4.1278C144.444 11.2368 147.741 21.2983 152.729 34.3123C157.716 47.269 161.013 56.9579 162.618 63.3789C162.618 65.0415 162.331 66.2741 161.758 67.0767C161.185 67.9367 160.468 68.3667 159.608 68.3667C158.863 68.3667 158.146 68.0513 157.458 67.4207C156.828 66.8474 156.398 66.0161 156.168 64.9268C155.652 62.4043 153.99 57.3592 151.181 49.7916C139.371 48.301 131.946 47.3837 128.908 47.0397C128.162 49.1036 127.245 52.4574 126.156 57.1012C125.067 61.745 124.207 64.9555 123.576 66.7327C122.716 67.7647 121.741 68.2807 120.652 68.2807C119.448 68.2807 118.416 67.736 117.556 66.6467C116.696 65.6148 116.266 64.3249 116.266 62.7769C118.101 56.0693 121.426 46.2084 126.242 33.1944C131.058 20.1803 134.411 10.3482 136.303 3.69782ZM139.313 12.3834C138.167 19.3204 134.985 29.4966 129.768 42.9119H139.399C143.756 42.9119 147.397 43.0552 150.321 43.3419C144.416 30.6718 140.746 20.3523 139.313 12.3834ZM191.943 3.00985L195.812 3.86981C196.386 13.3293 197.045 29.0666 197.79 51.0815C208.97 31.1878 216.652 15.1926 220.837 3.09585C221.697 2.40788 222.528 2.0639 223.331 2.0639C224.592 2.0639 225.624 2.8092 226.427 4.29979C227.287 5.79038 227.746 7.48163 227.803 9.37354C227.975 14.7053 228.118 23.7062 228.233 36.3762C228.405 49.0463 228.634 58.5058 228.921 64.7548C228.405 66.4747 227.43 67.3347 225.997 67.3347C224.965 67.3347 223.962 66.9047 222.987 66.0448C222.012 65.2421 221.41 64.2389 221.181 63.0349C221.353 58.0472 221.439 50.3935 221.439 40.074C221.496 29.7545 221.554 22.7889 221.611 19.1771C220.35 21.3556 218.143 25.4834 214.989 31.5605C211.836 37.6375 208.912 42.8546 206.218 47.2117C203.581 51.5688 200.858 55.3526 198.048 58.5631L198.392 65.5288C197.876 67.306 196.873 68.1947 195.382 68.1947C194.35 68.1947 193.347 67.7647 192.373 66.9047C191.455 66.0448 190.882 65.0128 190.653 63.8089C190.825 58.9358 190.997 49.3902 191.169 35.1723C191.341 20.9543 191.599 10.2335 191.943 3.00985ZM275.359 9.28755L271.919 13.2434C267.447 9.91818 263.032 8.2556 258.675 8.2556C255.809 8.2556 253.344 8.94356 251.28 10.3195C249.216 11.6954 247.639 13.358 246.55 15.3073C245.518 17.2565 244.687 19.7217 244.056 22.7029C243.483 25.6841 243.11 28.264 242.938 30.4425C242.823 32.6211 242.766 35.1723 242.766 38.0961C242.766 40.9627 243.282 44.2305 244.314 47.8997C245.403 51.5115 247.209 54.894 249.732 58.0472C252.254 61.2003 255.178 62.7769 258.503 62.7769C262.115 62.7769 267.648 60.885 275.101 57.1012C275.846 58.1905 276.82 59.9964 278.024 62.5189C270.801 67.5067 264.351 70.0006 258.675 70.0006C255.006 70.0006 251.652 68.8826 248.614 66.6467C245.575 64.4108 243.167 61.573 241.39 58.1332C239.67 54.6933 238.323 51.1102 237.348 47.3837C236.431 43.5999 235.972 40.0167 235.972 36.6342C235.972 32.9077 236.259 29.2959 236.832 25.7987C237.406 22.2442 238.38 18.6898 239.756 15.1353C241.132 11.5808 243.196 8.71424 245.948 6.53568C248.757 4.35712 252.082 3.26784 255.923 3.26784C259.249 3.26784 262.688 3.84115 266.243 4.98776C269.797 6.13437 272.836 7.56763 275.359 9.28755ZM283.7 3.18184H313.885C314.917 11.2654 315.547 22.5022 315.777 36.8922C316.063 51.2248 316.35 60.713 316.637 65.3568C316.121 67.134 315.117 68.0227 313.627 68.0227C312.595 68.0227 311.591 67.5927 310.617 66.7327C309.7 65.8728 309.126 64.8408 308.897 63.6369C308.897 58.9931 308.754 49.5622 308.467 35.3443C308.18 21.069 308.037 12.3834 308.037 9.28755C306.776 9.28755 304.712 9.37354 301.845 9.54553C299.036 9.71752 296.771 9.80352 295.052 9.80352C292.3 9.80352 290.178 9.74619 288.688 9.63153C288.688 9.80352 288.889 18.2024 289.29 34.8283C289.748 51.4541 290.035 61.6303 290.15 65.3568C289.634 67.134 288.631 68.0227 287.14 68.0227C286.108 68.0227 285.105 67.5927 284.13 66.7327C283.213 65.8728 282.64 64.8408 282.41 63.6369C282.582 58.7065 282.725 49.1323 282.84 34.9143C283.012 20.6963 283.299 10.1188 283.7 3.18184ZM323.774 37.2362C323.774 35.2869 323.774 33.825 323.774 32.8504C323.774 31.8184 323.803 30.2705 323.86 28.2066C323.975 26.1427 324.089 24.5088 324.204 23.3049C324.376 22.1009 324.605 20.553 324.892 18.6611C325.179 16.7118 325.551 15.1639 326.01 14.0173C326.469 12.8134 326.985 11.4661 327.558 9.97551C328.189 8.48492 328.963 7.28098 329.88 6.36369C330.797 5.4464 331.8 4.58644 332.89 3.78381C333.979 2.92386 335.269 2.29322 336.76 1.89191C338.25 1.49059 339.884 1.28994 341.661 1.28994C345.216 1.28994 348.312 2.00657 350.949 3.43983C353.586 4.81576 355.65 6.56435 357.141 8.68558C358.631 10.8068 359.806 13.4153 360.666 16.5112C361.584 19.607 362.157 22.5596 362.386 25.3688C362.673 28.178 362.816 31.2738 362.816 34.6563C362.816 36.9495 362.759 39.0134 362.644 40.848C362.587 42.6826 362.415 44.7751 362.128 47.1257C361.899 49.4189 361.526 51.4541 361.01 53.2314C360.552 55.0086 359.892 56.8146 359.032 58.6491C358.172 60.4264 357.141 61.917 355.937 63.1209C354.79 64.2675 353.328 65.2135 351.551 65.9588C349.774 66.7041 347.796 67.0767 345.617 67.0767C342.063 67.0767 338.995 66.6467 336.416 65.7868C333.893 64.9268 331.8 63.7229 330.138 62.175C328.533 60.627 327.243 58.5918 326.268 56.0693C325.351 53.5467 324.691 50.7948 324.29 47.8137C323.946 44.8325 323.774 41.3066 323.774 37.2362ZM356.625 37.9241C356.625 35.1149 356.395 32.1911 355.937 29.1526C355.535 26.1141 354.819 22.8462 353.787 19.3491C352.812 15.8519 351.235 13.014 349.057 10.8355C346.878 8.59958 344.27 7.48163 341.231 7.48163C338.938 7.48163 336.903 9.02956 335.126 12.1254C333.406 15.1639 332.173 18.6038 331.428 22.4449C330.682 26.2287 330.31 29.8119 330.31 33.1944C330.31 35.5449 330.31 37.3508 330.31 38.6121C330.367 39.8161 330.482 41.5646 330.654 43.8579C330.826 46.0937 331.055 47.871 331.342 49.1896C331.686 50.5082 332.202 52.0275 332.89 53.7474C333.578 55.4673 334.38 56.8146 335.298 57.7892C336.272 58.7065 337.505 59.5378 338.995 60.2831C340.543 60.971 342.263 61.3437 344.155 61.401C348.34 61.1717 351.465 58.8211 353.529 54.3493C355.593 49.8776 356.625 44.4025 356.625 37.9241ZM361.698 74.1284L359.204 69.6566C362.358 67.5354 365.052 65.0988 367.288 62.3469C369.524 59.5378 371.273 56.7572 372.534 54.0054C373.795 51.1962 374.798 48.0143 375.544 44.4598C376.289 40.9053 376.748 37.6375 376.92 34.6563C377.149 31.6178 377.264 28.1206 377.264 24.1648C377.264 22.1009 377.321 18.9191 377.436 14.6193C377.608 10.2622 377.694 6.93699 377.694 4.64377C379.356 4.35712 381.907 4.21379 385.347 4.21379C386.78 4.21379 388.959 4.27112 391.883 4.38579C394.807 4.44312 397.014 4.47178 398.505 4.47178C401.256 4.47178 403.779 4.35712 406.072 4.1278C406.76 7.96894 407.104 13.9886 407.104 22.1869C407.104 24.3655 407.075 27.8053 407.018 32.5064C406.961 37.1502 406.932 40.676 406.932 43.0839C406.932 52.4861 407.333 60.2257 408.136 66.3028C407.62 68.08 406.645 68.9686 405.212 68.9686C404.18 68.9686 403.177 68.5386 402.202 67.6787C401.228 66.8761 400.626 65.8728 400.396 64.6688C400.511 60.1971 400.568 56.7859 400.568 54.4353C400.568 51.1102 400.482 45.8931 400.31 38.7841C400.196 31.6751 400.138 26.1714 400.138 22.2729C400.138 16.9985 400.196 13.0714 400.31 10.4915C398.934 10.3768 396.555 10.2908 393.173 10.2335C389.79 10.1762 387.21 10.0328 385.433 9.80352C384.917 12.7847 384.487 16.6832 384.143 21.4989C383.857 26.2574 383.599 30.4998 383.369 34.2263C383.197 37.8955 382.681 41.9659 381.821 46.4377C381.019 50.8522 379.901 54.6933 378.467 57.9612C377.092 61.229 374.97 64.3249 372.104 67.2487C369.295 70.2299 365.826 72.5231 361.698 74.1284ZM416.392 2.83786L420.261 3.69782C420.319 4.7871 420.691 13.358 421.379 29.4106C422.927 29.1812 424.647 29.0666 426.539 29.0666C434.107 29.0666 440.298 31.2165 445.114 35.5163C449.93 39.7587 452.338 44.7465 452.338 50.4795C452.338 62.1176 445.143 67.9367 430.753 67.9367C427.026 67.9367 423.615 67.65 420.519 67.0767C417.424 66.5034 415.646 65.7868 415.188 64.9268C415.36 60.1111 415.503 50.3649 415.618 35.6883C415.732 20.9543 415.99 10.0042 416.392 2.83786ZM421.809 35.8602C422.211 48.0716 422.497 56.2126 422.669 60.2831C426.625 60.799 430.094 61.057 433.075 61.057C441.101 61.057 445.114 57.2445 445.114 49.6196C445.114 45.6638 443.394 42.3386 439.954 39.6441C436.572 36.8922 432.1 35.5163 426.539 35.5163C424.819 35.5163 423.243 35.6309 421.809 35.8602ZM459.046 12.2114L456.38 9.37354C462.514 5.30307 468.104 3.26784 473.149 3.26784C477.506 3.26784 481.032 4.84443 483.726 7.99761C486.421 11.0935 487.768 14.9346 487.768 19.521C487.768 25.2541 485.819 29.2959 481.92 31.6465C484.787 32.1051 486.937 33.825 488.37 36.8062C489.803 39.7301 490.52 43.2272 490.52 47.2977C490.52 53.4894 489.201 58.2765 486.564 61.659C483.927 65.0415 479.541 66.7327 473.407 66.7327C469.279 66.7327 465.381 65.8154 461.711 63.9809C458.1 62.1463 455.548 59.5091 454.058 56.0693C454.344 55.8399 454.545 55.6106 454.66 55.3813C454.774 55.152 454.86 54.98 454.918 54.8653C454.975 54.7507 455.118 54.6073 455.348 54.4353C455.634 54.206 456.064 53.948 456.638 53.6614C459.16 55.9546 461.969 57.8178 465.065 59.2511C468.161 60.627 471.085 61.315 473.837 61.315C476.933 61.315 479.398 60.3117 481.232 58.3051C483.124 56.2412 484.07 53.0881 484.07 48.8456C484.07 44.4885 482.838 40.9627 480.372 38.2681C477.907 35.5736 474.267 34.2263 469.451 34.2263C468.763 34.2263 467.559 34.2837 465.839 34.3983C465.782 34.0543 465.639 33.4237 465.409 32.5064C465.237 31.5891 465.008 30.1272 464.721 28.1206C465.352 28.0633 466.499 28.006 468.161 27.9486C469.824 27.834 470.999 27.748 471.687 27.6906C472.375 27.576 473.35 27.404 474.611 27.1747C475.929 26.888 476.875 26.5154 477.449 26.0567C478.079 25.5981 478.739 25.0248 479.427 24.3368C480.172 23.5915 480.688 22.6456 480.974 21.4989C481.261 20.3523 481.404 19.0051 481.404 17.4571C481.404 14.6479 480.458 12.6127 478.567 11.3514C476.732 10.0328 474.267 9.37354 471.171 9.37354C467.043 9.37354 463.001 10.3195 459.046 12.2114ZM489.66 7.39564L494.132 3.18184C496.712 7.4243 499.98 13.96 503.935 22.7889C507.891 31.6178 510.586 37.4368 512.019 40.246C517.752 25.5121 522.08 13.7593 525.004 4.98776C525.75 3.61182 526.696 2.92386 527.842 2.92386C528.874 2.92386 529.791 3.43983 530.594 4.47178C531.397 5.4464 531.855 6.59301 531.97 7.91161C530.021 12.0967 526.925 18.9191 522.682 28.3786C518.497 37.7808 514.914 45.4918 511.933 51.5115C509.009 57.4739 505.885 63.2356 502.559 68.7966L496.97 67.6787L508.063 45.9218C505.999 40.246 499.865 27.404 489.66 7.39564ZM568.174 62.175L569.034 66.0448C566.798 66.0448 562.728 66.1308 556.823 66.3028C550.975 66.5321 546.733 66.6467 544.095 66.6467C539.853 66.6467 536.958 66.4461 535.41 66.0448C535.983 59.7384 536.327 49.1896 536.442 34.3983C536.556 19.607 536.929 9.28755 537.56 3.43983C539.509 3.61182 544.669 3.75515 553.039 3.86981C561.467 3.98447 566.97 4.24246 569.55 4.64377L570.496 8.51358C567.916 8.97223 562.756 9.51687 555.017 10.1475C547.277 10.7781 543.207 11.1221 542.805 11.1795C542.863 12.4981 542.977 15.1926 543.149 19.2631C543.379 23.3335 543.522 26.6874 543.579 29.3246C545.529 29.5539 549.083 29.8979 554.243 30.3565C559.403 30.7578 562.67 31.0158 564.046 31.1305L564.906 35.0863C552.81 36.1756 545.729 36.7489 543.665 36.8062C543.665 39.3287 543.608 43.1699 543.493 48.3296C543.436 53.4321 543.407 57.1872 543.407 59.5951C556.536 60.799 564.792 61.659 568.174 62.175ZM571.27 8.34159L570.41 4.47178L603.26 2.57987C604.694 2.6372 605.898 3.15318 606.872 4.1278C607.847 5.10242 608.334 6.16303 608.334 7.30964C608.334 8.05494 608.048 8.71424 607.474 9.28755C606.901 9.86085 606.041 10.2048 604.894 10.3195L590.447 9.54553C591.88 29.7832 592.941 48.1863 593.629 64.7548C593.113 66.4747 592.138 67.3347 590.705 67.3347C589.673 67.3347 588.67 66.9047 587.695 66.0448C586.721 65.2421 586.119 64.2389 585.889 63.0349C586.004 59.9391 586.061 55.238 586.061 48.9316C586.061 46.5811 586.033 43.0552 585.975 38.3541C585.975 33.653 585.975 30.1272 585.975 27.7766C585.975 20.9543 586.09 14.7913 586.319 9.28755C579.841 8.8289 574.825 8.51358 571.27 8.34159ZM664.575 46.2657L663.63 42.3959C664.776 42.2239 667.471 41.9659 671.713 41.622C675.956 41.2206 678.621 40.9053 679.711 40.676V68.0227L673.003 69.3986C672.946 68.8253 672.917 67.478 672.917 65.3568C672.917 63.1782 672.888 61.7736 672.831 61.143C672.831 61.2577 672.63 61.6017 672.229 62.175C671.828 62.6909 671.197 63.3502 670.337 64.1529C669.477 64.9555 668.474 65.7295 667.327 66.4747C666.181 67.22 664.719 67.8507 662.942 68.3667C661.164 68.8826 659.301 69.1406 657.352 69.1406C643.421 69.1406 636.455 58.3051 636.455 36.6342C636.455 32.9077 636.742 29.2959 637.315 25.7987C637.888 22.2442 638.863 18.6898 640.239 15.1353C641.615 11.5808 643.679 8.71424 646.43 6.53568C649.24 4.35712 652.565 3.26784 656.406 3.26784C659.731 3.26784 663.171 3.84115 666.725 4.98776C670.28 6.13437 673.318 7.56763 675.841 9.28755L672.401 13.2434C667.929 9.91818 663.515 8.2556 659.158 8.2556C656.291 8.2556 653.826 8.94356 651.762 10.3195C649.698 11.6954 648.122 13.358 647.032 15.3073C646 17.2565 645.169 19.7217 644.538 22.7029C643.965 25.6841 643.593 28.264 643.421 30.4425C643.306 32.6211 643.249 35.1723 643.249 38.0961C643.249 45.0905 644.538 50.8235 647.118 55.2953C649.698 59.7097 653.052 61.917 657.18 61.917C658.957 61.917 660.677 61.6303 662.34 61.057C664.06 60.4837 665.521 59.7957 666.725 58.9931C667.929 58.1905 669.019 57.3592 669.993 56.4992C670.968 55.6393 671.684 54.9226 672.143 54.3493C672.659 53.776 672.917 53.4321 672.917 53.3174V47.8137L664.575 46.2657ZM688.052 4.29979L691.922 3.26784C691.922 5.10242 691.951 6.13437 692.008 6.36369C695.276 4.18513 699.862 3.09585 705.767 3.09585C712.131 3.09585 716.89 5.10242 720.043 9.11555C723.196 13.0714 724.773 18.6324 724.773 25.7987C724.773 32.1624 723.225 37.4368 720.129 41.622C717.033 45.8071 712.36 47.8997 706.111 47.8997C705.08 47.8997 700.952 47.5557 693.728 46.8677C693.843 51.0528 694.072 57.5599 694.416 66.3888C693.9 68.166 692.897 69.0546 691.406 69.0546C690.374 69.0546 689.371 68.6246 688.396 67.7647C687.479 66.9621 686.906 65.9588 686.676 64.7548C686.848 59.9391 687.02 50.5655 687.192 36.6342C687.422 22.7029 687.708 11.9247 688.052 4.29979ZM692.782 12.1254L693.47 38.9561C696.623 40.676 700.264 41.536 704.392 41.536C708.347 41.536 711.701 40.0454 714.453 37.0642C717.205 34.083 718.581 30.4425 718.581 26.1427C718.581 21.4989 717.148 17.3138 714.281 13.5873C711.415 9.86085 707.831 7.99761 703.532 7.99761C700.034 7.99761 696.451 9.37354 692.782 12.1254ZM730.706 61.143L731.91 56.3272C736.898 59.0218 741.8 60.369 746.615 60.369C750.055 60.369 752.979 59.6811 755.387 58.3051C757.852 56.8719 759.085 54.5787 759.085 51.4255C759.085 48.6163 758.053 46.0651 755.989 43.7719C753.925 41.4213 751.431 39.3574 748.507 37.5802C745.584 35.8029 742.66 33.997 739.736 32.1624C736.812 30.2705 734.318 27.9773 732.254 25.2828C730.19 22.5309 729.158 19.4924 729.158 16.1672C729.158 12.0967 730.62 8.39892 733.544 5.07375C736.468 1.69125 739.994 0 744.122 0C747.275 0 750.772 0.630636 754.613 1.89191C758.512 3.15318 761.779 4.41445 764.417 5.67572L763.385 9.11555C756.849 6.87966 751.345 5.76172 746.873 5.76172C744.122 5.76172 741.771 6.65034 739.822 8.42759C737.873 10.2048 736.898 12.4981 736.898 15.3073C736.898 17.4285 737.443 19.3491 738.532 21.069C739.621 22.7889 741.026 24.2795 742.746 25.5408C744.523 26.802 746.472 28.0346 748.593 29.2386C750.772 30.4425 752.922 31.7324 755.043 33.1084C757.164 34.4843 759.085 35.9749 760.805 37.5802C762.582 39.1854 764.015 41.2206 765.105 43.6859C766.194 46.0937 766.738 48.8169 766.738 51.8555C766.738 56.1553 765.363 59.6811 762.611 62.4329C759.859 65.1275 756.276 66.4747 751.861 66.4747C748.077 66.4747 744.036 65.9588 739.736 64.9268C735.493 63.8375 732.483 62.5763 730.706 61.143ZM3.43983 1228.6L3.86981 1168.06C4.50045 1165.94 6.96566 1164.88 11.2654 1164.88C15.2213 1164.88 18.8617 1165.42 22.1869 1166.51C25.5121 1167.54 28.2926 1169.32 30.5285 1171.84C32.8217 1174.31 33.9683 1177.29 33.9683 1180.78C33.9683 1183.54 33.2804 1186.2 31.9044 1188.78C30.5858 1191.36 28.9519 1193.02 27.0027 1193.77C30.6718 1194.29 33.6244 1196.49 35.8602 1200.39C38.0961 1204.29 39.2141 1208.91 39.2141 1214.24C39.2141 1217.85 37.7808 1221 34.9143 1223.7C32.0478 1226.33 28.6939 1228.25 24.8528 1229.46C21.069 1230.6 17.2278 1231.18 13.3293 1231.18C8.57091 1231.18 5.27441 1230.32 3.43983 1228.6ZM10.4915 1198.5C10.4915 1202.46 10.4342 1210.4 10.3195 1222.32C12.0394 1224.27 14.2466 1225.24 16.9412 1225.24C20.4957 1225.24 23.9355 1223.78 27.2607 1220.86C30.5858 1217.88 32.2484 1214.7 32.2484 1211.31C32.2484 1207.13 30.8438 1203.86 28.0346 1201.51C25.2254 1199.16 21.6136 1197.98 17.1992 1197.98C14.2753 1197.98 12.0394 1198.16 10.4915 1198.5ZM10.3195 1192.14L15.6512 1192.05C19.3204 1192.05 22.1296 1190.99 24.0788 1188.87C26.0854 1186.69 27.0887 1184.11 27.0887 1181.13C27.0887 1178.09 26.0854 1175.48 24.0788 1173.3C22.0723 1171.07 19.2917 1169.95 15.7372 1169.95C14.132 1169.95 12.2401 1170.29 10.0615 1170.98C10.1762 1174.48 10.2335 1178.81 10.2335 1183.97C10.2908 1189.13 10.3195 1191.85 10.3195 1192.14ZM72.2365 1177L69.5706 1174.16C75.705 1170.09 81.2947 1168.06 86.3398 1168.06C90.6969 1168.06 94.2227 1169.63 96.9173 1172.79C99.6118 1175.88 100.959 1179.72 100.959 1184.31C100.959 1190.04 99.0098 1194.09 95.1113 1196.44C97.9779 1196.89 100.128 1198.61 101.561 1201.6C102.994 1204.52 103.711 1208.02 103.711 1212.09C103.711 1218.28 102.392 1223.07 99.7551 1226.45C97.1179 1229.83 92.7321 1231.52 86.5978 1231.52C82.47 1231.52 78.5715 1230.6 74.9023 1228.77C71.2905 1226.94 68.7393 1224.3 67.2487 1220.86C67.5354 1220.63 67.736 1220.4 67.8507 1220.17C67.9653 1219.94 68.0513 1219.77 68.1087 1219.65C68.166 1219.54 68.3093 1219.4 68.5386 1219.22C68.8253 1219 69.2553 1218.74 69.8286 1218.45C72.3511 1220.74 75.1603 1222.61 78.2562 1224.04C81.352 1225.42 84.2759 1226.1 87.0277 1226.1C90.1236 1226.1 92.5888 1225.1 94.4234 1223.09C96.3153 1221.03 97.2612 1217.88 97.2612 1213.64C97.2612 1209.28 96.0286 1205.75 93.5634 1203.06C91.0982 1200.36 87.4577 1199.02 82.642 1199.02C81.954 1199.02 80.75 1199.07 79.0301 1199.19C78.9728 1198.84 78.8295 1198.21 78.6002 1197.3C78.4282 1196.38 78.1988 1194.92 77.9122 1192.91C78.5428 1192.85 79.6894 1192.8 81.352 1192.74C83.0146 1192.62 84.1899 1192.54 84.8778 1192.48C85.5658 1192.37 86.5404 1192.19 87.8017 1191.96C89.1203 1191.68 90.0663 1191.3 90.6396 1190.85C91.2702 1190.39 91.9295 1189.81 92.6175 1189.13C93.3628 1188.38 93.8787 1187.44 94.1654 1186.29C94.452 1185.14 94.5954 1183.79 94.5954 1182.25C94.5954 1179.44 93.6494 1177.4 91.7575 1176.14C89.9229 1174.82 87.4577 1174.16 84.3619 1174.16C80.2341 1174.16 76.1923 1175.11 72.2365 1177ZM153.502 1241.84L149.633 1240.98C149.117 1236.62 148.228 1233.07 146.967 1230.32C142.208 1229.97 137.45 1229.8 132.692 1229.8C128.621 1229.8 122.573 1229.97 114.546 1230.32C114.202 1231.52 113.543 1235.71 112.568 1242.87L108.871 1242.53C107.724 1236.4 107.151 1231.12 107.151 1226.71C107.151 1226.48 107.151 1226.08 107.151 1225.5C107.208 1224.93 107.237 1224.5 107.237 1224.21C107.294 1224.21 108.24 1224.21 110.075 1224.21C111.909 1224.16 112.855 1224.13 112.912 1224.13C114.403 1221.09 115.607 1217.82 116.524 1214.32C117.499 1210.77 118.158 1206.98 118.502 1202.97C118.846 1198.9 119.076 1195.35 119.19 1192.31C119.305 1189.21 119.362 1185.29 119.362 1180.53C119.362 1175.77 119.391 1172.21 119.448 1169.86C123.461 1169.58 132.405 1169.43 146.279 1169.43L148.171 1223.35C149.088 1223.47 150.034 1223.55 151.009 1223.61C151.983 1223.67 152.929 1223.73 153.846 1223.78C153.674 1224.99 153.588 1226.48 153.588 1228.25C153.588 1229.17 153.617 1230.6 153.674 1232.55C153.732 1234.56 153.76 1236.05 153.76 1237.03C153.76 1238.98 153.674 1240.58 153.502 1241.84ZM119.792 1223.61C121.34 1223.61 123.662 1223.67 126.758 1223.78C129.854 1223.84 132.147 1223.87 133.637 1223.87C135.816 1223.87 138.081 1223.78 140.431 1223.61C140.546 1220 140.603 1214.35 140.603 1206.67V1189.56C140.603 1182.73 140.66 1177.66 140.775 1174.34C139.17 1174.22 137.966 1174.16 137.163 1174.16C135.845 1174.16 133.924 1174.25 131.402 1174.42C128.936 1174.59 127.274 1174.71 126.414 1174.77C126.242 1177.34 126.041 1181.42 125.812 1186.98C125.583 1192.48 125.353 1196.75 125.124 1199.79C124.895 1202.83 124.321 1206.61 123.404 1211.14C122.544 1215.61 121.34 1219.77 119.792 1223.61ZM175.603 1168.49L182.139 1168.92C183.744 1176.03 187.041 1186.09 192.029 1199.1C197.016 1212.06 200.313 1221.75 201.918 1228.17C201.918 1229.83 201.631 1231.06 201.058 1231.87C200.485 1232.73 199.768 1233.16 198.908 1233.16C198.163 1233.16 197.446 1232.84 196.758 1232.21C196.128 1231.64 195.698 1230.81 195.468 1229.72C194.952 1227.19 193.29 1222.15 190.481 1214.58C178.671 1213.09 171.246 1212.17 168.208 1211.83C167.462 1213.89 166.545 1217.25 165.456 1221.89C164.367 1226.53 163.507 1229.75 162.876 1231.52C162.016 1232.55 161.041 1233.07 159.952 1233.07C158.748 1233.07 157.716 1232.53 156.856 1231.44C155.996 1230.4 155.566 1229.11 155.566 1227.57C157.401 1220.86 160.726 1211 165.542 1197.98C170.358 1184.97 173.712 1175.14 175.603 1168.49ZM178.613 1177.17C177.467 1184.11 174.285 1194.29 169.068 1207.7H178.699C183.056 1207.7 186.697 1207.84 189.621 1208.13C183.716 1195.46 180.047 1185.14 178.613 1177.17ZM231.845 1169L236.832 1167.97C237.864 1176.06 238.495 1187.29 238.724 1201.68C239.011 1216.01 239.298 1225.5 239.584 1230.15C239.068 1231.92 238.065 1232.81 236.574 1232.81C235.542 1232.81 234.539 1232.38 233.565 1231.52C232.647 1230.66 232.074 1229.63 231.845 1228.43C231.902 1226.36 231.931 1222.92 231.931 1218.11V1201.17C230.669 1201.22 228.892 1201.37 226.599 1201.6C224.363 1201.77 222.299 1201.91 220.407 1202.03C218.573 1202.14 216.824 1202.2 215.161 1202.2C213.671 1202.2 212.582 1202.17 211.894 1202.11C212.008 1205.61 212.209 1210.57 212.496 1216.99C212.782 1223.35 212.983 1227.74 213.098 1230.15C212.582 1231.92 211.578 1232.81 210.088 1232.81C209.056 1232.81 208.052 1232.38 207.078 1231.52C206.161 1230.66 205.587 1229.63 205.358 1228.43C205.53 1223.5 205.673 1213.92 205.788 1199.7C205.96 1185.49 206.247 1174.91 206.648 1167.97L210.518 1168.83C210.518 1169 210.518 1169.29 210.518 1169.69C210.575 1170.04 210.604 1170.32 210.604 1170.55C211.349 1184.65 211.779 1193.48 211.894 1197.04C213.843 1196.87 215.907 1196.69 218.085 1196.52C220.321 1196.29 222.758 1196.06 225.395 1195.83C228.09 1195.55 230.182 1195.35 231.673 1195.23C231.73 1195.23 231.759 1194.95 231.759 1194.37C231.759 1193.8 231.759 1191.48 231.759 1187.41C231.816 1183.34 231.845 1177.2 231.845 1169ZM247.926 1167.8L251.796 1168.66C252.369 1178.12 253.028 1193.86 253.774 1215.87C264.953 1195.98 272.635 1179.98 276.82 1167.89C277.68 1167.2 278.512 1166.85 279.314 1166.85C280.576 1166.85 281.608 1167.6 282.41 1169.09C283.27 1170.58 283.729 1172.27 283.786 1174.16C283.958 1179.49 284.101 1188.5 284.216 1201.17C284.388 1213.84 284.617 1223.3 284.904 1229.54C284.388 1231.26 283.413 1232.12 281.98 1232.12C280.948 1232.12 279.945 1231.69 278.97 1230.83C277.996 1230.03 277.394 1229.03 277.164 1227.82C277.336 1222.84 277.422 1215.18 277.422 1204.86C277.48 1194.54 277.537 1187.58 277.594 1183.97C276.333 1186.15 274.126 1190.27 270.973 1196.35C267.82 1202.43 264.896 1207.64 262.201 1212C259.564 1216.36 256.841 1220.14 254.032 1223.35L254.376 1230.32C253.86 1232.1 252.856 1232.98 251.366 1232.98C250.334 1232.98 249.33 1232.55 248.356 1231.69C247.439 1230.83 246.865 1229.8 246.636 1228.6C246.808 1223.73 246.98 1214.18 247.152 1199.96C247.324 1185.74 247.582 1175.02 247.926 1167.8ZM291.096 1185.86C291.096 1182.19 291.669 1179.18 292.816 1176.83C293.962 1174.42 295.711 1172.64 298.061 1171.5C300.412 1170.35 302.849 1169.58 305.371 1169.18C307.951 1168.77 311.104 1168.57 314.831 1168.57C319.302 1168.57 323.144 1168.86 326.354 1169.43C326.698 1170.35 326.899 1172.56 326.956 1176.06C327.071 1179.49 327.185 1186.46 327.3 1196.95C327.415 1207.39 327.644 1218.25 327.988 1229.54C327.472 1231.26 326.469 1232.12 324.978 1232.12C323.946 1232.12 322.943 1231.69 321.968 1230.83C321.051 1230.03 320.478 1229.03 320.248 1227.82C320.478 1219.86 320.65 1211.83 320.764 1203.75C320.306 1203.75 319.503 1203.77 318.356 1203.83C317.21 1203.89 316.35 1203.92 315.777 1203.92C315.089 1209.88 311.735 1216.5 305.715 1223.78C299.753 1231.01 293.876 1235.28 288.086 1236.6L286.71 1232.73C289.405 1231.81 291.87 1230.49 294.106 1228.77C296.399 1226.99 298.262 1225.16 299.695 1223.27C301.129 1221.37 302.447 1219.17 303.651 1216.65C304.912 1214.12 305.83 1211.94 306.403 1210.11C307.034 1208.27 307.664 1206.21 308.295 1203.92C302.791 1203.92 298.549 1202.34 295.568 1199.19C292.586 1195.98 291.096 1191.53 291.096 1185.86ZM321.108 1198.24L321.538 1175.88C317.926 1174.79 314.63 1174.25 311.649 1174.25C307.12 1174.25 303.622 1175.4 301.157 1177.69C298.749 1179.92 297.545 1182.79 297.545 1186.29C298.061 1195 302.877 1199.36 311.993 1199.36C314.745 1199.36 317.783 1198.99 321.108 1198.24ZM335.126 1231.61L331.428 1229.72C332.918 1226.22 334.61 1222.81 336.502 1219.48C338.451 1216.1 341.088 1211.86 344.413 1206.76C347.796 1201.6 349.888 1198.39 350.691 1197.12C349.258 1194.89 346.305 1190.59 341.833 1184.22C337.419 1177.8 334.122 1172.79 331.944 1169.18L335.556 1167.54C340.429 1173.22 346.534 1181.39 353.873 1192.05C354.159 1190.96 356.653 1187.15 361.354 1180.61C366.113 1174.08 368.836 1170.21 369.524 1169C370.384 1167.57 371.416 1166.85 372.62 1166.85C373.766 1166.85 374.798 1167.37 375.716 1168.4C376.633 1169.38 377.12 1170.52 377.178 1171.84C376.834 1172.24 373.852 1176.34 368.234 1184.14C362.673 1191.94 359.204 1196.64 357.828 1198.24C359.778 1201.28 363.504 1206.55 369.008 1214.07C374.512 1221.52 377.98 1226.48 379.413 1228.94C379.413 1230.03 379.127 1230.86 378.553 1231.44C378.038 1232.01 377.35 1232.3 376.49 1232.3C374.54 1232.3 373.05 1231.35 372.018 1229.46L354.389 1203.14C352.611 1206.01 349.487 1210.6 345.015 1216.9C340.543 1223.21 337.247 1228.11 335.126 1231.61ZM408.824 1167.97H439.009C440.04 1176.06 440.671 1187.29 440.9 1201.68C441.187 1216.01 441.474 1225.5 441.76 1230.15C441.244 1231.92 440.241 1232.81 438.751 1232.81C437.719 1232.81 436.715 1232.38 435.741 1231.52C434.823 1230.66 434.25 1229.63 434.021 1228.43C434.021 1223.78 433.877 1214.35 433.591 1200.13C433.304 1185.86 433.161 1177.17 433.161 1174.08C431.9 1174.08 429.836 1174.16 426.969 1174.34C424.16 1174.51 421.895 1174.59 420.175 1174.59C417.424 1174.59 415.302 1174.54 413.812 1174.42C413.812 1174.59 414.012 1182.99 414.414 1199.62C414.872 1216.24 415.159 1226.42 415.274 1230.15C414.758 1231.92 413.754 1232.81 412.264 1232.81C411.232 1232.81 410.229 1232.38 409.254 1231.52C408.337 1230.66 407.763 1229.63 407.534 1228.43C407.706 1223.5 407.849 1213.92 407.964 1199.7C408.136 1185.49 408.423 1174.91 408.824 1167.97ZM481.576 1226.96L482.436 1230.83C480.201 1230.83 476.13 1230.92 470.225 1231.09C464.377 1231.32 460.135 1231.44 457.498 1231.44C453.255 1231.44 450.36 1231.24 448.812 1230.83C449.385 1224.53 449.729 1213.98 449.844 1199.19C449.959 1184.4 450.331 1174.08 450.962 1168.23C452.911 1168.4 458.071 1168.54 466.441 1168.66C474.869 1168.77 480.372 1169.03 482.952 1169.43L483.898 1173.3C481.318 1173.76 476.159 1174.31 468.419 1174.94C460.679 1175.57 456.609 1175.91 456.208 1175.97C456.265 1177.29 456.38 1179.98 456.552 1184.05C456.781 1188.12 456.924 1191.48 456.982 1194.11C458.931 1194.34 462.485 1194.69 467.645 1195.15C472.805 1195.55 476.073 1195.81 477.449 1195.92L478.309 1199.88C466.212 1200.97 459.132 1201.54 457.068 1201.6C457.068 1204.12 457.01 1207.96 456.896 1213.12C456.838 1218.22 456.81 1221.98 456.81 1224.38C469.938 1225.59 478.194 1226.45 481.576 1226.96ZM488.714 1169.09L492.584 1168.06C492.584 1169.89 492.613 1170.92 492.67 1171.15C495.938 1168.97 500.524 1167.89 506.429 1167.89C512.793 1167.89 517.551 1169.89 520.705 1173.91C523.858 1177.86 525.434 1183.42 525.434 1190.59C525.434 1196.95 523.886 1202.23 520.791 1206.41C517.695 1210.6 513.022 1212.69 506.773 1212.69C505.741 1212.69 501.613 1212.35 494.39 1211.66C494.504 1215.84 494.734 1222.35 495.078 1231.18C494.562 1232.96 493.559 1233.84 492.068 1233.84C491.036 1233.84 490.033 1233.41 489.058 1232.55C488.141 1231.75 487.567 1230.75 487.338 1229.54C487.51 1224.73 487.682 1215.36 487.854 1201.42C488.083 1187.49 488.37 1176.71 488.714 1169.09ZM493.444 1176.91L494.132 1203.75C497.285 1205.47 500.925 1206.33 505.053 1206.33C509.009 1206.33 512.363 1204.83 515.115 1201.85C517.867 1198.87 519.243 1195.23 519.243 1190.93C519.243 1186.29 517.809 1182.1 514.943 1178.38C512.076 1174.65 508.493 1172.79 504.193 1172.79C500.696 1172.79 497.113 1174.16 493.444 1176.91ZM565.25 1226.96L566.11 1230.83C563.874 1230.83 559.804 1230.92 553.899 1231.09C548.051 1231.32 543.809 1231.44 541.172 1231.44C536.929 1231.44 534.034 1231.24 532.486 1230.83C533.059 1224.53 533.403 1213.98 533.518 1199.19C533.633 1184.4 534.005 1174.08 534.636 1168.23C536.585 1168.4 541.745 1168.54 550.115 1168.66C558.543 1168.77 564.046 1169.03 566.626 1169.43L567.572 1173.3C564.992 1173.76 559.833 1174.31 552.093 1174.94C544.353 1175.57 540.283 1175.91 539.882 1175.97C539.939 1177.29 540.054 1179.98 540.226 1184.05C540.455 1188.12 540.598 1191.48 540.656 1194.11C542.605 1194.34 546.159 1194.69 551.319 1195.15C556.479 1195.55 559.747 1195.81 561.123 1195.92L561.983 1199.88C549.886 1200.97 542.805 1201.54 540.742 1201.6C540.742 1204.12 540.684 1207.96 540.57 1213.12C540.512 1218.22 540.484 1221.98 540.484 1224.38C553.612 1225.59 561.868 1226.45 565.25 1226.96ZM613.838 1241.84L609.968 1240.98C609.452 1236.62 608.564 1233.07 607.302 1230.32C602.544 1229.97 597.785 1229.8 593.027 1229.8C588.957 1229.8 582.908 1229.97 574.882 1230.32C574.538 1231.52 573.879 1235.71 572.904 1242.87L569.206 1242.53C568.06 1236.4 567.486 1231.12 567.486 1226.71C567.486 1226.48 567.486 1226.08 567.486 1225.5C567.544 1224.93 567.572 1224.5 567.572 1224.21C567.63 1224.21 568.576 1224.21 570.41 1224.21C572.245 1224.16 573.191 1224.13 573.248 1224.13C574.739 1221.09 575.942 1217.82 576.86 1214.32C577.834 1210.77 578.494 1206.98 578.838 1202.97C579.182 1198.9 579.411 1195.35 579.526 1192.31C579.64 1189.21 579.698 1185.29 579.698 1180.53C579.698 1175.77 579.726 1172.21 579.784 1169.86C583.797 1169.58 592.74 1169.43 606.614 1169.43L608.506 1223.35C609.424 1223.47 610.369 1223.55 611.344 1223.61C612.319 1223.67 613.265 1223.73 614.182 1223.78C614.01 1224.99 613.924 1226.48 613.924 1228.25C613.924 1229.17 613.953 1230.6 614.01 1232.55C614.067 1234.56 614.096 1236.05 614.096 1237.03C614.096 1238.98 614.01 1240.58 613.838 1241.84ZM580.128 1223.61C581.676 1223.61 583.997 1223.67 587.093 1223.78C590.189 1223.84 592.482 1223.87 593.973 1223.87C596.151 1223.87 598.416 1223.78 600.767 1223.61C600.881 1220 600.939 1214.35 600.939 1206.67V1189.56C600.939 1182.73 600.996 1177.66 601.111 1174.34C599.505 1174.22 598.301 1174.16 597.499 1174.16C596.18 1174.16 594.26 1174.25 591.737 1174.42C589.272 1174.59 587.609 1174.71 586.749 1174.77C586.577 1177.34 586.377 1181.42 586.147 1186.98C585.918 1192.48 585.689 1196.75 585.459 1199.79C585.23 1202.83 584.657 1206.61 583.739 1211.14C582.879 1215.61 581.676 1219.77 580.128 1223.61ZM635.939 1168.49L642.475 1168.92C644.08 1176.03 647.376 1186.09 652.364 1199.1C657.352 1212.06 660.648 1221.75 662.254 1228.17C662.254 1229.83 661.967 1231.06 661.394 1231.87C660.82 1232.73 660.104 1233.16 659.244 1233.16C658.498 1233.16 657.782 1232.84 657.094 1232.21C656.463 1231.64 656.033 1230.81 655.804 1229.72C655.288 1227.19 653.625 1222.15 650.816 1214.58C639.006 1213.09 631.582 1212.17 628.543 1211.83C627.798 1213.89 626.881 1217.25 625.791 1221.89C624.702 1226.53 623.842 1229.75 623.212 1231.52C622.352 1232.55 621.377 1233.07 620.288 1233.07C619.084 1233.07 618.052 1232.53 617.192 1231.44C616.332 1230.4 615.902 1229.11 615.902 1227.57C617.736 1220.86 621.062 1211 625.877 1197.98C630.693 1184.97 634.047 1175.14 635.939 1168.49ZM638.949 1177.17C637.802 1184.11 634.62 1194.29 629.403 1207.7H639.035C643.392 1207.7 647.032 1207.84 649.956 1208.13C644.051 1195.46 640.382 1185.14 638.949 1177.17ZM683.667 1169.52L687.536 1170.47C687.766 1173.39 688.167 1183.08 688.74 1199.53C689.371 1215.93 689.715 1225.73 689.772 1228.94C689.256 1230.72 688.253 1231.61 686.762 1231.61C685.73 1231.61 684.727 1231.21 683.753 1230.4C682.835 1229.54 682.262 1228.51 682.033 1227.31C682.09 1226.33 682.262 1218.42 682.549 1203.57C678.994 1204.55 675.898 1205.04 673.261 1205.04C667.7 1205.04 663.486 1203.14 660.62 1199.36C657.81 1195.52 656.406 1190.04 656.406 1182.93C656.406 1178.52 656.922 1173.7 657.954 1168.49L661.824 1169.35C661.652 1172.04 661.566 1174.56 661.566 1176.91C661.566 1191.19 665.435 1198.33 673.175 1198.33C675.755 1198.33 678.937 1197.47 682.721 1195.75C683.007 1183.82 683.323 1175.08 683.667 1169.52ZM713.335 1168.49L719.871 1168.92C721.476 1176.03 724.773 1186.09 729.76 1199.1C734.748 1212.06 738.045 1221.75 739.65 1228.17C739.65 1229.83 739.363 1231.06 738.79 1231.87C738.217 1232.73 737.5 1233.16 736.64 1233.16C735.895 1233.16 735.178 1232.84 734.49 1232.21C733.859 1231.64 733.429 1230.81 733.2 1229.72C732.684 1227.19 731.022 1222.15 728.212 1214.58C716.402 1213.09 708.978 1212.17 705.939 1211.83C705.194 1213.89 704.277 1217.25 703.188 1221.89C702.098 1226.53 701.238 1229.75 700.608 1231.52C699.748 1232.55 698.773 1233.07 697.684 1233.07C696.48 1233.07 695.448 1232.53 694.588 1231.44C693.728 1230.4 693.298 1229.11 693.298 1227.57C695.133 1220.86 698.458 1211 703.274 1197.98C708.089 1184.97 711.443 1175.14 713.335 1168.49ZM716.345 1177.17C715.198 1184.11 712.016 1194.29 706.799 1207.7H716.431C720.788 1207.7 724.429 1207.84 727.352 1208.13C721.447 1195.46 717.778 1185.14 716.345 1177.17ZM40.375 1271.14L36.9352 1275.1C32.4634 1271.77 28.049 1270.11 23.6918 1270.11C20.8253 1270.11 18.3601 1270.8 16.2962 1272.17C14.2323 1273.55 12.6557 1275.21 11.5664 1277.16C10.5345 1279.11 9.70319 1281.58 9.07256 1284.56C8.49925 1287.54 8.1266 1290.12 7.95461 1292.3C7.83995 1294.48 7.78262 1297.03 7.78262 1299.95C7.78262 1302.82 8.29859 1306.09 9.33054 1309.76C10.4198 1313.37 12.2257 1316.75 14.7483 1319.9C17.2708 1323.06 20.1947 1324.63 23.5198 1324.63C27.1317 1324.63 32.6641 1322.74 40.117 1318.96C40.8623 1320.05 41.837 1321.85 43.0409 1324.37C35.8172 1329.36 29.3676 1331.86 23.6918 1331.86C20.0227 1331.86 16.6689 1330.74 13.6303 1328.5C10.5918 1326.27 8.18393 1323.43 6.40669 1319.99C4.68677 1316.55 3.3395 1312.97 2.36488 1309.24C1.4476 1305.46 0.988952 1301.87 0.988952 1298.49C0.988952 1294.76 1.2756 1291.15 1.84891 1287.65C2.42221 1284.1 3.39683 1280.55 4.77277 1276.99C6.1487 1273.44 8.2126 1270.57 10.9645 1268.39C13.7737 1266.21 17.0988 1265.12 20.94 1265.12C24.2651 1265.12 27.705 1265.7 31.2595 1266.84C34.814 1267.99 37.8525 1269.42 40.375 1271.14ZM48.7166 1264.87L52.5864 1265.73C53.1597 1275.18 53.819 1290.92 54.5643 1312.94C65.7438 1293.04 73.4261 1277.05 77.6112 1264.95C78.4712 1264.26 79.3025 1263.92 80.1051 1263.92C81.3664 1263.92 82.3983 1264.66 83.2009 1266.16C84.0609 1267.65 84.5195 1269.34 84.5769 1271.23C84.7489 1276.56 84.8922 1285.56 85.0068 1298.23C85.1788 1310.9 85.4082 1320.36 85.6948 1326.61C85.1788 1328.33 84.2042 1329.19 82.7709 1329.19C81.739 1329.19 80.7357 1328.76 79.7611 1327.9C78.7865 1327.1 78.1845 1326.09 77.9552 1324.89C78.1272 1319.9 78.2132 1312.25 78.2132 1301.93C78.2705 1291.61 78.3278 1284.64 78.3852 1281.03C77.1239 1283.21 74.9167 1287.34 71.7635 1293.42C68.6103 1299.49 65.6865 1304.71 62.9919 1309.07C60.3547 1313.42 57.6315 1317.21 54.8223 1320.42L55.1663 1327.38C54.6503 1329.16 53.647 1330.05 52.1564 1330.05C51.1245 1330.05 50.1212 1329.62 49.1466 1328.76C48.2293 1327.9 47.656 1326.87 47.4267 1325.66C47.5987 1320.79 47.7707 1311.25 47.9427 1297.03C48.1146 1282.81 48.3726 1272.09 48.7166 1264.87ZM125.339 1266.33L126.199 1270.2C123.676 1270.37 119.262 1270.66 112.955 1271.06C106.649 1271.4 102.235 1271.69 99.7121 1271.92C99.8841 1277.36 99.9988 1286.48 100.056 1299.26C100.113 1312.05 100.257 1321.42 100.486 1327.38C99.9701 1329.16 98.9668 1330.05 97.4762 1330.05C96.4443 1330.05 95.441 1329.62 94.4664 1328.76C93.5491 1327.9 92.9758 1326.87 92.7465 1325.66C93.3771 1318.44 93.7784 1301.56 93.9504 1275.01C93.9504 1274.04 93.9504 1272.55 93.9504 1270.54C94.0077 1268.53 94.0364 1266.96 94.0364 1265.81C97.1322 1265.98 100.257 1266.07 103.41 1266.07C104.671 1266.07 106.563 1266.07 109.086 1266.07C111.608 1266.01 113.5 1265.98 114.761 1265.98C118.66 1265.98 122.186 1266.1 125.339 1266.33ZM156.211 1266.07L161.199 1265.04C162.231 1273.12 162.862 1284.36 163.091 1298.75C163.378 1313.08 163.664 1322.57 163.951 1327.21C163.435 1328.99 162.432 1329.88 160.941 1329.88C159.909 1329.88 158.906 1329.45 157.931 1328.59C157.014 1327.73 156.441 1326.7 156.211 1325.49C156.269 1323.43 156.297 1319.99 156.297 1315.17V1298.23C155.036 1298.29 153.259 1298.43 150.966 1298.66C148.73 1298.83 146.666 1298.98 144.774 1299.09C142.939 1299.21 141.191 1299.26 139.528 1299.26C138.038 1299.26 136.948 1299.23 136.26 1299.18C136.375 1302.67 136.576 1307.63 136.862 1314.05C137.149 1320.42 137.35 1324.8 137.464 1327.21C136.948 1328.99 135.945 1329.88 134.454 1329.88C133.422 1329.88 132.419 1329.45 131.445 1328.59C130.527 1327.73 129.954 1326.7 129.725 1325.49C129.897 1320.56 130.04 1310.99 130.155 1296.77C130.327 1282.55 130.613 1271.97 131.015 1265.04L134.884 1265.9C134.884 1266.07 134.884 1266.36 134.884 1266.76C134.942 1267.1 134.97 1267.39 134.97 1267.62C135.716 1281.72 136.146 1290.55 136.26 1294.1C138.21 1293.93 140.273 1293.76 142.452 1293.59C144.688 1293.36 147.124 1293.13 149.762 1292.9C152.456 1292.61 154.549 1292.41 156.039 1292.3C156.097 1292.3 156.125 1292.01 156.125 1291.44C156.125 1290.86 156.125 1288.54 156.125 1284.47C156.183 1280.4 156.211 1274.27 156.211 1266.07ZM187.514 1265.55L194.05 1265.98C195.655 1273.09 198.951 1283.15 203.939 1296.17C208.927 1309.12 212.223 1318.81 213.829 1325.23C213.829 1326.9 213.542 1328.13 212.969 1328.93C212.395 1329.79 211.679 1330.22 210.819 1330.22C210.073 1330.22 209.357 1329.91 208.669 1329.28C208.038 1328.7 207.608 1327.87 207.379 1326.78C206.863 1324.26 205.2 1319.21 202.391 1311.65C190.581 1310.16 183.157 1309.24 180.118 1308.9C179.373 1310.96 178.456 1314.31 177.366 1318.96C176.277 1323.6 175.417 1326.81 174.786 1328.59C173.926 1329.62 172.952 1330.14 171.863 1330.14C170.659 1330.14 169.627 1329.59 168.767 1328.5C167.907 1327.47 167.477 1326.18 167.477 1324.63C169.311 1317.92 172.637 1308.06 177.452 1295.05C182.268 1282.04 185.622 1272.2 187.514 1265.55ZM190.524 1274.24C189.377 1281.18 186.195 1291.35 180.978 1304.77H190.61C194.967 1304.77 198.607 1304.91 201.531 1305.2C195.626 1292.53 191.957 1282.21 190.524 1274.24ZM209.185 1335.98L206.691 1331.51C209.844 1329.39 212.539 1326.95 214.774 1324.2C217.01 1321.39 218.759 1318.61 220.02 1315.86C221.282 1313.05 222.285 1309.87 223.03 1306.32C223.775 1302.76 224.234 1299.49 224.406 1296.51C224.635 1293.47 224.75 1289.98 224.75 1286.02C224.75 1283.96 224.807 1280.77 224.922 1276.47C225.094 1272.12 225.18 1268.79 225.18 1266.5C226.843 1266.21 229.394 1266.07 232.834 1266.07C234.267 1266.07 236.445 1266.13 239.369 1266.24C242.293 1266.3 244.5 1266.33 245.991 1266.33C248.743 1266.33 251.265 1266.21 253.559 1265.98C254.247 1269.82 254.591 1275.84 254.591 1284.04C254.591 1286.22 254.562 1289.66 254.505 1294.36C254.447 1299.01 254.419 1302.53 254.419 1304.94C254.419 1314.34 254.82 1322.08 255.622 1328.16C255.107 1329.94 254.132 1330.82 252.699 1330.82C251.667 1330.82 250.663 1330.39 249.689 1329.53C248.714 1328.73 248.112 1327.73 247.883 1326.52C247.998 1322.05 248.055 1318.64 248.055 1316.29C248.055 1312.97 247.969 1307.75 247.797 1300.64C247.682 1293.53 247.625 1288.03 247.625 1284.13C247.625 1278.85 247.682 1274.93 247.797 1272.35C246.421 1272.23 244.042 1272.15 240.659 1272.09C237.277 1272.03 234.697 1271.89 232.92 1271.66C232.404 1274.64 231.974 1278.54 231.63 1283.35C231.343 1288.11 231.085 1292.36 230.856 1296.08C230.684 1299.75 230.168 1303.82 229.308 1308.29C228.505 1312.71 227.387 1316.55 225.954 1319.82C224.578 1323.08 222.457 1326.18 219.59 1329.1C216.781 1332.09 213.313 1334.38 209.185 1335.98ZM279.185 1265.55L285.721 1265.98C287.326 1273.09 290.623 1283.15 295.611 1296.17C300.598 1309.12 303.895 1318.81 305.5 1325.23C305.5 1326.9 305.213 1328.13 304.64 1328.93C304.067 1329.79 303.35 1330.22 302.49 1330.22C301.745 1330.22 301.028 1329.91 300.34 1329.28C299.71 1328.7 299.28 1327.87 299.05 1326.78C298.534 1324.26 296.872 1319.21 294.063 1311.65C282.253 1310.16 274.828 1309.24 271.79 1308.9C271.044 1310.96 270.127 1314.31 269.038 1318.96C267.949 1323.6 267.089 1326.81 266.458 1328.59C265.598 1329.62 264.623 1330.14 263.534 1330.14C262.33 1330.14 261.298 1329.59 260.438 1328.5C259.578 1327.47 259.148 1326.18 259.148 1324.63C260.983 1317.92 264.308 1308.06 269.124 1295.05C273.94 1282.04 277.293 1272.2 279.185 1265.55ZM282.195 1274.24C281.049 1281.18 277.867 1291.35 272.65 1304.77H282.281C286.638 1304.77 290.279 1304.91 293.203 1305.2C287.298 1292.53 283.628 1282.21 282.195 1274.24ZM360.021 1266.07L365.009 1265.04C366.041 1273.12 366.672 1284.36 366.901 1298.75C367.188 1313.08 367.474 1322.57 367.761 1327.21C367.245 1328.99 366.242 1329.88 364.751 1329.88C363.719 1329.88 362.716 1329.45 361.741 1328.59C360.824 1327.73 360.251 1326.7 360.021 1325.49C360.079 1323.43 360.107 1319.99 360.107 1315.17V1298.23C358.846 1298.29 357.069 1298.43 354.776 1298.66C352.54 1298.83 350.476 1298.98 348.584 1299.09C346.749 1299.21 345.001 1299.26 343.338 1299.26C341.848 1299.26 340.758 1299.23 340.07 1299.18C340.185 1302.67 340.386 1307.63 340.672 1314.05C340.959 1320.42 341.16 1324.8 341.274 1327.21C340.758 1328.99 339.755 1329.88 338.264 1329.88C337.232 1329.88 336.229 1329.45 335.255 1328.59C334.337 1327.73 333.764 1326.7 333.535 1325.49C333.707 1320.56 333.85 1310.99 333.965 1296.77C334.137 1282.55 334.423 1271.97 334.825 1265.04L338.694 1265.9C338.694 1266.07 338.694 1266.36 338.694 1266.76C338.752 1267.1 338.78 1267.39 338.78 1267.62C339.526 1281.72 339.956 1290.55 340.07 1294.1C342.02 1293.93 344.083 1293.76 346.262 1293.59C348.498 1293.36 350.934 1293.13 353.572 1292.9C356.266 1292.61 358.359 1292.41 359.849 1292.3C359.907 1292.3 359.935 1292.01 359.935 1291.44C359.935 1290.86 359.935 1288.54 359.935 1284.47C359.993 1280.4 360.021 1274.27 360.021 1266.07ZM391.324 1265.55L397.86 1265.98C399.465 1273.09 402.761 1283.15 407.749 1296.17C412.737 1309.12 416.033 1318.81 417.639 1325.23C417.639 1326.9 417.352 1328.13 416.779 1328.93C416.205 1329.79 415.489 1330.22 414.629 1330.22C413.883 1330.22 413.167 1329.91 412.479 1329.28C411.848 1328.7 411.418 1327.87 411.189 1326.78C410.673 1324.26 409.01 1319.21 406.201 1311.65C394.391 1310.16 386.967 1309.24 383.928 1308.9C383.183 1310.96 382.266 1314.31 381.176 1318.96C380.087 1323.6 379.227 1326.81 378.596 1328.59C377.737 1329.62 376.762 1330.14 375.673 1330.14C374.469 1330.14 373.437 1329.59 372.577 1328.5C371.717 1327.47 371.287 1326.18 371.287 1324.63C373.121 1317.92 376.447 1308.06 381.262 1295.05C386.078 1282.04 389.432 1272.2 391.324 1265.55ZM394.334 1274.24C393.187 1281.18 390.005 1291.35 384.788 1304.77H394.42C398.777 1304.77 402.417 1304.91 405.341 1305.2C399.436 1292.53 395.767 1282.21 394.334 1274.24ZM422.454 1266.16L426.324 1265.12C426.324 1266.96 426.353 1267.99 426.41 1268.22C429.678 1266.04 434.264 1264.95 440.169 1264.95C446.533 1264.95 451.292 1266.96 454.445 1270.97C457.598 1274.93 459.175 1280.49 459.175 1287.65C459.175 1294.02 457.627 1299.29 454.531 1303.48C451.435 1307.66 446.762 1309.76 440.513 1309.76C439.481 1309.76 435.354 1309.41 428.13 1308.72C428.245 1312.91 428.474 1319.42 428.818 1328.24C428.302 1330.02 427.299 1330.91 425.808 1330.91C424.776 1330.91 423.773 1330.48 422.798 1329.62C421.881 1328.82 421.308 1327.81 421.078 1326.61C421.25 1321.79 421.422 1312.42 421.594 1298.49C421.824 1284.56 422.11 1273.78 422.454 1266.16ZM427.184 1273.98L427.872 1300.81C431.025 1302.53 434.666 1303.39 438.794 1303.39C442.749 1303.39 446.103 1301.9 448.855 1298.92C451.607 1295.94 452.983 1292.3 452.983 1288C452.983 1283.35 451.55 1279.17 448.683 1275.44C445.817 1271.72 442.233 1269.85 437.934 1269.85C434.436 1269.85 430.853 1271.23 427.184 1273.98ZM462.7 1269.25L467.172 1265.04C469.752 1269.28 473.02 1275.82 476.976 1284.64C480.931 1293.47 483.626 1299.29 485.059 1302.1C490.792 1287.37 495.121 1275.61 498.045 1266.84C498.79 1265.47 499.736 1264.78 500.882 1264.78C501.914 1264.78 502.832 1265.3 503.634 1266.33C504.437 1267.3 504.896 1268.45 505.01 1269.77C503.061 1273.95 499.965 1280.77 495.723 1290.23C491.538 1299.64 487.954 1307.35 484.973 1313.37C482.049 1319.33 478.925 1325.09 475.6 1330.65L470.01 1329.53L481.103 1307.78C479.04 1302.1 472.905 1289.26 462.7 1269.25ZM552.308 1264.87L556.178 1265.73C556.12 1269.97 556.092 1275.61 556.092 1282.67C556.092 1292.3 556.178 1301.33 556.35 1309.76C556.579 1318.18 556.694 1323.06 556.694 1324.37V1327.9C550.674 1328.53 538.95 1328.85 521.521 1328.85C514.47 1328.85 510.113 1328.76 508.45 1328.59C508.622 1322.4 508.909 1311.85 509.31 1296.94C509.711 1282.04 509.998 1271.49 510.17 1265.3L514.04 1266.16C514.212 1272.17 514.441 1281.75 514.728 1294.88C515.072 1307.95 515.33 1317.35 515.502 1323.08L529.089 1322.48C529.318 1316.18 529.691 1306.46 530.207 1293.33C530.723 1280.2 531.067 1270.91 531.239 1265.47L535.109 1266.33C535.281 1272.29 535.51 1281.66 535.797 1294.45C536.141 1307.23 536.399 1316.43 536.571 1322.05C538.176 1321.94 542.676 1321.74 550.072 1321.45C550.301 1315.26 550.674 1305.68 551.19 1292.73C551.763 1279.71 552.136 1270.43 552.308 1264.87ZM580.257 1265.55L586.792 1265.98C588.398 1273.09 591.694 1283.15 596.682 1296.17C601.67 1309.12 604.966 1318.81 606.571 1325.23C606.571 1326.9 606.285 1328.13 605.711 1328.93C605.138 1329.79 604.421 1330.22 603.561 1330.22C602.816 1330.22 602.1 1329.91 601.412 1329.28C600.781 1328.7 600.351 1327.87 600.122 1326.78C599.606 1324.26 597.943 1319.21 595.134 1311.65C583.324 1310.16 575.899 1309.24 572.861 1308.9C572.116 1310.96 571.198 1314.31 570.109 1318.96C569.02 1323.6 568.16 1326.81 567.529 1328.59C566.669 1329.62 565.695 1330.14 564.605 1330.14C563.401 1330.14 562.369 1329.59 561.51 1328.5C560.65 1327.47 560.22 1326.18 560.22 1324.63C562.054 1317.92 565.379 1308.06 570.195 1295.05C575.011 1282.04 578.365 1272.2 580.257 1265.55ZM583.266 1274.24C582.12 1281.18 578.938 1291.35 573.721 1304.77H583.352C587.71 1304.77 591.35 1304.91 594.274 1305.2C588.369 1292.53 584.7 1282.21 583.266 1274.24ZM642.776 1324.03L643.636 1327.9C641.4 1327.9 637.329 1327.99 631.424 1328.16C625.576 1328.39 621.334 1328.5 618.697 1328.5C614.454 1328.5 611.559 1328.3 610.011 1327.9C610.584 1321.59 610.928 1311.04 611.043 1296.25C611.158 1281.46 611.53 1271.14 612.161 1265.3C614.11 1265.47 619.27 1265.61 627.64 1265.73C636.068 1265.84 641.572 1266.1 644.151 1266.5L645.097 1270.37C642.518 1270.83 637.358 1271.37 629.618 1272C621.879 1272.63 617.808 1272.98 617.407 1273.03C617.464 1274.35 617.579 1277.05 617.751 1281.12C617.98 1285.19 618.123 1288.54 618.181 1291.18C620.13 1291.41 623.684 1291.75 628.844 1292.21C634.004 1292.61 637.272 1292.87 638.648 1292.99L639.508 1296.94C627.411 1298.03 620.331 1298.6 618.267 1298.66C618.267 1301.18 618.209 1305.03 618.095 1310.18C618.037 1315.29 618.009 1319.04 618.009 1321.45C631.137 1322.65 639.393 1323.51 642.776 1324.03ZM645.871 1270.2L645.011 1266.33L677.862 1264.44C679.295 1264.49 680.499 1265.01 681.474 1265.98C682.448 1266.96 682.936 1268.02 682.936 1269.16C682.936 1269.91 682.649 1270.57 682.076 1271.14C681.502 1271.72 680.642 1272.06 679.496 1272.17L665.048 1271.4C666.482 1291.64 667.542 1310.04 668.23 1326.61C667.714 1328.33 666.74 1329.19 665.306 1329.19C664.274 1329.19 663.271 1328.76 662.297 1327.9C661.322 1327.1 660.72 1326.09 660.491 1324.89C660.605 1321.79 660.663 1317.09 660.663 1310.79C660.663 1308.44 660.634 1304.91 660.577 1300.21C660.577 1295.51 660.577 1291.98 660.577 1289.63C660.577 1282.81 660.691 1276.65 660.921 1271.14C654.442 1270.68 649.426 1270.37 645.871 1270.2ZM720.086 1271.14L716.646 1275.1C712.174 1271.77 707.76 1270.11 703.403 1270.11C700.536 1270.11 698.071 1270.8 696.007 1272.17C693.943 1273.55 692.366 1275.21 691.277 1277.16C690.245 1279.11 689.414 1281.58 688.783 1284.56C688.21 1287.54 687.837 1290.12 687.665 1292.3C687.551 1294.48 687.493 1297.03 687.493 1299.95C687.493 1302.82 688.009 1306.09 689.041 1309.76C690.131 1313.37 691.936 1316.75 694.459 1319.9C696.982 1323.06 699.905 1324.63 703.231 1324.63C706.842 1324.63 712.375 1322.74 719.828 1318.96C720.573 1320.05 721.548 1321.85 722.752 1324.37C715.528 1329.36 709.078 1331.86 703.403 1331.86C699.733 1331.86 696.38 1330.74 693.341 1328.5C690.303 1326.27 687.895 1323.43 686.117 1319.99C684.398 1316.55 683.05 1312.97 682.076 1309.24C681.158 1305.46 680.7 1301.87 680.7 1298.49C680.7 1294.76 680.986 1291.15 681.56 1287.65C682.133 1284.1 683.108 1280.55 684.484 1276.99C685.859 1273.44 687.923 1270.57 690.675 1268.39C693.484 1266.21 696.81 1265.12 700.651 1265.12C703.976 1265.12 707.416 1265.7 710.97 1266.84C714.525 1267.99 717.563 1269.42 720.086 1271.14ZM726.277 1282.92C726.277 1279.26 726.851 1276.25 727.997 1273.89C729.144 1271.49 730.893 1269.71 733.243 1268.56C735.594 1267.42 738.03 1266.64 740.553 1266.24C743.133 1265.84 746.286 1265.64 750.012 1265.64C754.484 1265.64 758.325 1265.93 761.536 1266.5C761.88 1267.42 762.08 1269.62 762.138 1273.12C762.252 1276.56 762.367 1283.53 762.482 1294.02C762.596 1304.45 762.826 1315.32 763.17 1326.61C762.654 1328.33 761.65 1329.19 760.16 1329.19C759.128 1329.19 758.125 1328.76 757.15 1327.9C756.233 1327.1 755.659 1326.09 755.43 1324.89C755.659 1316.92 755.831 1308.9 755.946 1300.81C755.487 1300.81 754.685 1300.84 753.538 1300.9C752.392 1300.95 751.532 1300.98 750.958 1300.98C750.27 1306.95 746.916 1313.57 740.897 1320.85C734.934 1328.07 729.058 1332.34 723.268 1333.66L721.892 1329.79C724.586 1328.87 727.051 1327.56 729.287 1325.84C731.581 1324.06 733.444 1322.22 734.877 1320.33C736.31 1318.44 737.629 1316.23 738.833 1313.71C740.094 1311.19 741.011 1309.01 741.585 1307.18C742.215 1305.34 742.846 1303.28 743.477 1300.98C737.973 1300.98 733.73 1299.41 730.749 1296.25C727.768 1293.04 726.277 1288.6 726.277 1282.92ZM756.29 1295.31L756.72 1272.95C753.108 1271.86 749.812 1271.31 746.83 1271.31C742.301 1271.31 738.804 1272.46 736.339 1274.75C733.931 1276.99 732.727 1279.86 732.727 1283.35C733.243 1292.07 738.059 1296.43 747.174 1296.43C749.926 1296.43 752.965 1296.05 756.29 1295.31Z" fill="white"/>
</g>
<defs>
<filter id="filter0_d_64_104" x="0" y="0" width="790.755" height="1360" filterUnits="userSpaceOnUse" color-interpolation-filters="sRGB">
<feFlood flood-opacity="0" result="BackgroundImageFix"/>
<feColorMatrix in="SourceAlpha" type="matrix" values="0 0 0 0 0 0 0 0 0 0 0 0 0 0 0 0 0 0 127 0" result="hardAlpha"/>
<feOffset dx="12" dy="12"/>
<feGaussianBlur stdDeviation="6"/>
<feComposite in2="hardAlpha" operator="out"/>
<feColorMatrix type="matrix" values="0 0 0 0 0 0 0 0 0 0 0 0 0 0 0 0 0 0 0.8 0"/>
<feBlend mode="normal" in2="BackgroundImageFix" result="effect1_dropShadow_64_104"/>
<feBlend mode="normal" in="SourceGraphic" in2="effect1_dropShadow_64_104" result="shape"/>
</filter>
</defs>
</svg>
