<svg width="145" height="223" viewBox="0 0 145 223" fill="none" xmlns="http://www.w3.org/2000/svg">
<path d="M100.35 21.3H99.35V22.3V39.025C99.35 40.2384 98.868 41.402 98.01 42.26C97.152 43.118 95.9884 43.6 94.775 43.6H50.175C48.9616 43.6 47.798 43.118 46.94 42.26C46.082 41.402 45.6 40.2384 45.6 39.025V22.3V21.3H44.6H33.45C30.2276 21.3 27.1372 22.5801 24.8587 24.8587C22.5801 27.1372 21.3 30.2276 21.3 33.45V189.55C21.3 192.772 22.5801 195.863 24.8587 198.141C27.1372 200.42 30.2276 201.7 33.45 201.7H111.5C114.722 201.7 117.813 200.42 120.091 198.141C122.37 195.863 123.65 192.772 123.65 189.55V33.45C123.65 30.2276 122.37 27.1372 120.091 24.8587C117.813 22.5801 114.722 21.3 111.5 21.3H100.35ZM22.3 1H122.65C134.371 1 143.95 11.0176 143.95 23.4707V199.529C143.95 211.982 134.371 222 122.65 222H22.3C10.5794 222 1 211.982 1 199.529V23.4707C1 11.0176 10.5794 1 22.3 1Z" fill="white" stroke="#090909" stroke-width="2"/>
</svg>
