<svg width="195" height="197" viewBox="0 0 195 197" fill="none" xmlns="http://www.w3.org/2000/svg">
<path d="M188.392 75.6811L149.221 54.8816L161.61 31.548C164.962 25.1676 162.533 17.2396 156.183 13.8268L133.032 1.53395C126.637 -1.86146 118.705 0.568155 115.309 6.9623L102.916 30.297L63.8652 9.82386C60.9179 8.32914 57.51 7.99568 54.3759 8.95564C51.2044 9.92703 48.5604 12.1141 47.0379 14.9779L21.995 62.1299C18.8042 68.2081 21.1033 75.7145 27.1509 78.9631L66.2781 99.7801L63.7902 104.582C40.8426 101.613 17.8262 109.479 1.5351 125.844C-1.1071 128.54 -0.183604 133.054 3.11994 134.846L55.5508 162.655L50.9079 171.321C49.8428 171.341 48.8567 171.286 47.8306 171.6C41.2079 173.629 37.5342 180.622 39.5477 187.196C41.576 193.818 48.5212 197.506 55.1439 195.477C61.7181 193.464 65.4551 186.504 63.4268 179.882C63.1126 178.856 62.5147 178.07 61.9349 177.176L66.5145 168.477L118.957 196.323C122.247 198.07 126.547 196.294 127.255 192.609C131.686 169.929 125.319 146.477 110.006 129.131L112.608 124.305L151.733 145.114C157.812 148.304 165.319 146.005 168.188 140.074L193.231 92.9224C195.127 89.9413 195.367 86.1951 194.498 83.3597C193.538 80.2258 191.241 77.2567 188.392 75.6811ZM75.0673 83.1726L41.4867 65.3415L60.621 29.3851L94.1844 47.2133L75.0673 83.1726ZM154.998 125.615L121.417 107.784L140.492 71.7929L174.062 89.6151L154.998 125.615Z" fill="white"/>
</svg>
