<svg width="72" height="86" viewBox="0 0 72 86" fill="none" xmlns="http://www.w3.org/2000/svg">
<path d="M23.2917 36.7292C23.2917 33.2677 26.101 30.4584 29.5625 30.4584H42.1042C45.5657 30.4584 48.375 33.2677 48.375 36.7292C48.375 36.9668 48.2806 37.1946 48.1126 37.3626C47.9446 37.5306 47.7168 37.625 47.4792 37.625H24.1875C23.9499 37.625 23.7221 37.5306 23.5541 37.3626C23.3861 37.1946 23.2917 36.9668 23.2917 36.7292ZM35.8334 7.00274e-08C31.3402 -0.000387393 26.9951 1.60712 23.5841 4.53179C20.1731 7.45647 17.9213 11.5052 17.2358 15.9458C11.9713 19.1399 7.61929 23.6375 4.60009 29.0043C1.5809 34.371 -0.00346544 40.4256 5.6913e-06 46.5834V50.1667H71.6667V46.5834C71.6702 40.4256 70.0858 34.371 67.0666 29.0043C64.0474 23.6375 59.6954 19.1399 54.4309 15.9458C53.7455 11.5052 51.4936 7.45647 48.0826 4.53179C44.6716 1.60712 40.3266 -0.000387393 35.8334 7.00274e-08ZM35.8334 10.75C32.5618 10.75 29.3905 11.1872 26.3805 12.0113C27.4583 10.5113 28.8778 9.28942 30.5216 8.44695C32.1654 7.60449 33.9862 7.16562 35.8334 7.16667C39.7249 7.16667 43.172 9.07659 45.2862 12.0113C42.2057 11.1707 39.0265 10.7465 35.8334 10.75ZM29.5625 25.0833H42.1042C43.6335 25.0833 45.1479 25.3846 46.5609 25.9698C47.9738 26.5551 49.2576 27.4129 50.339 28.4943C51.4205 29.5758 52.2783 30.8596 52.8635 32.2725C53.4488 33.6855 53.75 35.1998 53.75 36.7292C53.75 38.3923 53.0894 39.9873 51.9133 41.1633C50.7373 42.3393 49.1423 43 47.4792 43H24.1875C22.5244 43 20.9294 42.3393 19.7534 41.1633C18.5774 39.9873 17.9167 38.3923 17.9167 36.7292C17.9167 35.1998 18.2179 33.6855 18.8032 32.2725C19.3884 30.8596 20.2463 29.5758 21.3277 28.4943C23.5117 26.3103 26.4739 25.0833 29.5625 25.0833ZM17.9167 61.8125V55.5417H5.6913e-06V71.6667C5.6913e-06 75.4681 1.51012 79.1139 4.19814 81.8019C6.88617 84.4899 10.5319 86.0001 14.3333 86.0001H57.3334C61.1348 86.0001 64.7805 84.4899 67.4686 81.8019C70.1566 79.1139 71.6667 75.4681 71.6667 71.6667V55.5417H23.2917V61.8125C23.2917 62.5253 23.0085 63.2089 22.5045 63.7129C22.0005 64.2169 21.317 64.5 20.6042 64.5C19.8914 64.5 19.2078 64.2169 18.7038 63.7129C18.1998 63.2089 17.9167 62.5253 17.9167 61.8125Z" fill="white"/>
</svg>
