<svg width="156" height="176" viewBox="0 0 156 176" fill="none" xmlns="http://www.w3.org/2000/svg">
<path d="M11.1428 159.5C11.1428 163.876 12.9038 168.073 16.0383 171.167C19.1729 174.262 23.4242 176 27.8571 176H128.143C132.576 176 136.827 174.262 139.962 171.167C143.096 168.073 144.857 163.876 144.857 159.5V44H11.1428V159.5ZM105.857 71.5C105.857 70.0413 106.444 68.6424 107.489 67.6109C108.534 66.5795 109.951 66 111.428 66C112.906 66 114.323 66.5795 115.368 67.6109C116.413 68.6424 117 70.0413 117 71.5V148.5C117 149.959 116.413 151.358 115.368 152.389C114.323 153.421 112.906 154 111.428 154C109.951 154 108.534 153.421 107.489 152.389C106.444 151.358 105.857 149.959 105.857 148.5V71.5ZM72.4285 71.5C72.4285 70.0413 73.0155 68.6424 74.0604 67.6109C75.1052 66.5795 76.5223 66 77.9999 66C79.4776 66 80.8947 66.5795 81.9395 67.6109C82.9844 68.6424 83.5714 70.0413 83.5714 71.5V148.5C83.5714 149.959 82.9844 151.358 81.9395 152.389C80.8947 153.421 79.4776 154 77.9999 154C76.5223 154 75.1052 153.421 74.0604 152.389C73.0155 151.358 72.4285 149.959 72.4285 148.5V71.5ZM39 71.5C39 70.0413 39.587 68.6424 40.6318 67.6109C41.6767 66.5795 43.0938 66 44.5714 66C46.049 66 47.4661 66.5795 48.511 67.6109C49.5558 68.6424 50.1428 70.0413 50.1428 71.5V148.5C50.1428 149.959 49.5558 151.358 48.511 152.389C47.4661 153.421 46.049 154 44.5714 154C43.0938 154 41.6767 153.421 40.6318 152.389C39.587 151.358 39 149.959 39 148.5V71.5ZM150.428 11.0001H108.643L105.37 4.57193C104.676 3.19767 103.608 2.04167 102.286 1.23398C100.963 0.42629 99.4382 -0.00104086 97.883 6.02687e-05H58.0821C56.5304 -0.00582835 55.0084 0.419909 53.6904 1.2285C52.3725 2.03708 51.312 3.19581 50.6303 4.57193L47.3571 11.0001H5.57142C4.09379 11.0001 2.67668 11.5795 1.63183 12.611C0.586988 13.6424 0 15.0414 0 16.5L0 27.5C0 28.9587 0.586988 30.3577 1.63183 31.3891C2.67668 32.4206 4.09379 33 5.57142 33H150.428C151.906 33 153.323 32.4206 154.368 31.3891C155.413 30.3577 156 28.9587 156 27.5V16.5C156 15.0414 155.413 13.6424 154.368 12.611C153.323 11.5795 151.906 11.0001 150.428 11.0001Z" fill="white"/>
</svg>
