<svg width="69" height="39" viewBox="0 0 69 39" fill="none" xmlns="http://www.w3.org/2000/svg">
<g filter="url(#filter0_d_64_95)">
<path d="M8.45326 14.9852C7.12977 13.4056 5.7636 12.0394 4.35473 10.8867C2.94586 9.73398 1.4943 8.79473 4.38961e-05 8.06895V6.91624C2.94586 5.42199 5.7636 3.11656 8.45326 -2.48108e-05H10.6946C10.0116 1.45154 9.32846 2.73233 8.64537 3.84234C7.96229 4.90967 7.30054 5.80622 6.66015 6.532V8.45319C7.30054 9.13628 7.96229 10.0328 8.64537 11.1428C9.32846 12.2102 10.0116 13.491 10.6946 14.9852H8.45326ZM6.33995 8.83743V6.14777H44.3154V8.83743H6.33995Z" fill="white"/>
</g>
<defs>
<filter id="filter0_d_64_95" x="0" y="0" width="68.3302" height="39" filterUnits="userSpaceOnUse" color-interpolation-filters="sRGB">
<feFlood flood-opacity="0" result="BackgroundImageFix"/>
<feColorMatrix in="SourceAlpha" type="matrix" values="0 0 0 0 0 0 0 0 0 0 0 0 0 0 0 0 0 0 127 0" result="hardAlpha"/>
<feOffset dx="12" dy="12"/>
<feGaussianBlur stdDeviation="6"/>
<feComposite in2="hardAlpha" operator="out"/>
<feColorMatrix type="matrix" values="0 0 0 0 0 0 0 0 0 0 0 0 0 0 0 0 0 0 0.8 0"/>
<feBlend mode="normal" in2="BackgroundImageFix" result="effect1_dropShadow_64_95"/>
<feBlend mode="normal" in="SourceGraphic" in2="effect1_dropShadow_64_95" result="shape"/>
</filter>
</defs>
</svg>
