<svg width="42" height="42" viewBox="0 0 42 42" fill="none" xmlns="http://www.w3.org/2000/svg">
<path d="M37.1982 21C37.1982 20.517 37.1766 20.055 37.1334 19.572L41.1506 16.611C42.0145 15.981 42.252 14.805 41.7121 13.881L37.6733 7.098C37.4144 6.65319 36.9955 6.3171 36.4972 6.1543C35.9989 5.9915 35.4563 6.01348 34.9736 6.216L30.3302 8.127C29.5311 7.581 28.6887 7.098 27.8032 6.699L27.1769 1.848C27.0473 0.798 26.1186 0 25.0388 0H16.9828C15.8814 0 14.9527 0.798 14.8231 1.848L14.1968 6.699C13.3113 7.098 12.4689 7.581 11.6698 8.127L7.02635 6.216C6.03286 5.796 4.86659 6.174 4.32664 7.098L0.287892 13.902C-0.252048 14.826 -0.0144749 15.981 0.84943 16.632L4.86659 19.593C4.77706 20.536 4.77706 21.485 4.86659 22.428L0.84943 25.389C-0.0144749 26.019 -0.252048 27.195 0.287892 28.119L4.32664 34.902C4.86659 35.826 6.03286 36.204 7.02635 35.784L11.6698 33.873C12.4689 34.419 13.3113 34.902 14.1968 35.301L14.8231 40.152C14.9527 41.202 15.8814 42 16.9612 42H25.0172C26.097 42 27.0257 41.202 27.1553 40.152L27.7816 35.301C28.6672 34.902 29.5095 34.419 30.3086 33.873L34.952 35.784C35.9455 36.204 37.1118 35.826 37.6518 34.902L41.6905 28.119C42.2304 27.195 41.9929 26.04 41.129 25.389L37.1118 22.428C37.1766 21.945 37.1982 21.483 37.1982 21ZM21.0864 28.35C16.9181 28.35 13.5272 25.053 13.5272 21C13.5272 16.947 16.9181 13.65 21.0864 13.65C25.2547 13.65 28.6456 16.947 28.6456 21C28.6456 25.053 25.2547 28.35 21.0864 28.35Z" fill="white"/>
</svg>
