<?xml version="1.0" encoding="UTF-8"?>
<!DOCTYPE svg PUBLIC "-//W3C//DTD SVG 1.1//EN" "http://www.w3.org/Graphics/SVG/1.1/DTD/svg11.dtd">
<svg xmlns="http://www.w3.org/2000/svg" xmlns:xlink="http://www.w3.org/1999/xlink" version="1.1" width="154px" height="154px" viewBox="-0.5 -0.5 154 154"><defs/><g><ellipse cx="76" cy="76" rx="75" ry="75" fill="none" stroke="none" pointer-events="all"/><path d="M 82 0.62 C 92.97 0.13 105.69 5.86 115.61 11.3 C 125.53 16.74 135.32 24.17 141.52 33.24 C 147.72 42.31 151.28 54.52 152.79 65.71 C 154.3 76.89 153.96 89.85 150.61 100.33 C 147.25 110.81 140.61 120.76 132.68 128.59 C 124.74 136.41 113.95 143.73 102.99 147.28 C 92.02 150.82 78.43 151.18 66.9 149.87 C 55.37 148.55 43.37 145.25 33.82 139.38 C 24.28 133.51 15.74 123.87 9.61 114.65 C 3.49 105.42 -1.79 94.72 -2.92 84.02 C -4.05 73.32 -1.44 60.74 2.83 50.46 C 7.11 40.17 14.55 30.04 22.72 22.32 C 30.88 14.61 41.14 7.62 51.84 4.15 C 62.53 0.69 79.89 1.43 86.87 1.53 C 93.85 1.62 93.84 3.61 93.73 4.71 M 97.29 4.92 C 108.02 6.95 119.99 13.75 128.61 20.81 C 137.22 27.87 144.89 37.05 148.99 47.28 C 153.08 57.51 154.26 70.92 153.19 82.17 C 152.11 93.41 148.17 105.29 142.52 114.75 C 136.87 124.21 128.62 132.83 119.28 138.93 C 109.93 145.04 98.01 150.15 86.48 151.39 C 74.94 152.64 61.03 149.78 50.08 146.42 C 39.14 143.06 29.01 138.69 20.8 131.22 C 12.59 123.76 4.66 112.14 0.82 101.63 C -3.02 91.13 -3.61 79 -2.24 68.19 C -0.86 57.37 3.02 45.95 9.06 36.74 C 15.1 27.53 24.11 18.94 33.98 12.91 C 43.86 6.89 57.93 1.95 68.31 0.58 C 78.7 -0.78 91.61 3.76 96.29 4.73 C 100.97 5.69 96.4 5.24 96.41 6.38" fill="none" stroke="#ffffff" stroke-width="3" stroke-linejoin="round" stroke-linecap="round" stroke-miterlimit="10" stroke-dasharray="9 9" pointer-events="all"/><path d="M 26 66 L 66 66 L 66 26 L 86 26 L 86 66 L 126 66 L 126 86 L 86 86 L 86 126 L 66 126 L 66 86 L 26 86 Z" fill="none" stroke="none" transform="rotate(45,76,76)" pointer-events="all"/><path d="M 65.8 26.2 C 65.8 26.2 65.8 26.2 65.8 26.2 M 65.8 26.2 C 65.8 26.2 65.8 26.2 65.8 26.2 M 31.15 70.75 C 31.15 70.75 31.15 70.75 31.15 70.75 M 31.15 70.75 C 31.15 70.75 31.15 70.75 31.15 70.75 M 65.8 36.1 C 67.85 35.24 70.17 31.23 75.7 26.2 M 65.8 36.1 C 69.19 32.33 73.15 28.49 75.7 26.2 M 31.15 80.65 C 33.48 77.1 38.03 72.86 41.05 70.75 M 31.15 80.65 C 33.83 78.65 34.89 75.71 41.05 70.75 M 65.8 46 C 73.02 39.53 79.18 32.54 85.6 26.2 M 65.8 46 C 70.55 40.67 74.54 37.79 85.6 26.2 M 31.15 90.55 C 37.72 84.75 46.2 76.66 50.95 70.75 M 31.15 90.55 C 36.59 84.83 40.18 80.5 50.95 70.75 M 65.8 55.9 C 71.03 49.25 80.42 42.58 90.55 31.15 M 65.8 55.9 C 72.71 49.58 77.78 43.97 90.55 31.15 M 41.05 90.55 C 49.86 84.27 56.58 74.34 60.85 70.75 M 41.05 90.55 C 46.07 86.18 49.86 81.77 60.85 70.75 M 65.8 65.8 C 71.93 58.41 75.88 55.68 90.55 41.05 M 65.8 65.8 C 74.08 56.26 83.95 49.1 90.55 41.05 M 50.95 90.55 C 66.12 74.94 84.12 59.57 90.55 50.95 M 50.95 90.55 C 60.94 80.92 71.77 71.22 90.55 50.95 M 60.85 90.55 C 67.45 82.88 75.86 74.13 90.55 60.85 M 60.85 90.55 C 67.99 84.05 75.25 77.13 90.55 60.85 M 70.75 90.55 C 75.86 84.99 84.3 79.49 90.55 70.75 M 70.75 90.55 C 76.06 83.87 83.65 78.31 90.55 70.75 M 70.75 100.45 C 83.37 87.55 94.08 75.91 100.45 70.75 M 70.75 100.45 C 80.28 90.81 89.34 81.63 100.45 70.75 M 70.75 110.35 C 76.74 102.3 86.57 95.15 90.55 90.55 M 70.75 110.35 C 78.16 103.73 86.43 95.04 90.55 90.55 M 90.55 90.55 C 99.09 84.29 105.69 78.11 110.35 70.75 M 90.55 90.55 C 93.85 85.67 98.06 82.28 110.35 70.75 M 70.75 120.25 C 76.66 113.78 81.94 111.4 90.55 100.45 M 70.75 120.25 C 75.11 115.3 79.65 110.04 90.55 100.45 M 100.45 90.55 C 107.45 82.16 115.82 74.52 120.25 70.75 M 100.45 90.55 C 107.03 83.36 112.68 78.36 120.25 70.75 M 70.75 130.15 C 78.15 126.27 82.38 118.6 90.55 110.35 M 70.75 130.15 C 77.58 122.38 85.83 114.75 90.55 110.35 M 110.35 90.55 C 115.79 83.58 121.73 78.63 130.15 70.75 M 110.35 90.55 C 118.47 82.99 124.59 75.75 130.15 70.75 M 80.65 130.15 C 84.03 128 87.55 124.95 90.55 120.25 M 80.65 130.15 C 83.19 127.84 86.83 123.59 90.55 120.25 M 120.25 90.55 C 124.39 87.96 125.89 85.21 130.15 80.65 M 120.25 90.55 C 123.48 87.1 126.79 83.11 130.15 80.65 M 31.15 80.65 C 35.55 77.25 37.55 70.98 43.14 66 M 31.15 80.65 C 34.86 77.42 37.99 73.88 43.14 66 M 66 38.05 C 69.05 33.64 74.01 29.01 75.7 26.2 M 66 38.05 C 69.12 35.08 71.96 32.06 75.7 26.2 M 65.8 65.8 C 64.45 67.17 63.77 67.95 60.85 70.75 M 65.8 65.8 C 64.71 66.73 63.39 68.6 60.85 70.75 M 50.95 90.55 C 62.23 77.4 75.08 61.2 90.55 41.05 M 50.95 90.55 C 60.88 79.4 70.58 66.28 90.55 41.05 M 60.85 90.55 C 71.75 76.48 81.14 61.35 90.55 50.95 M 60.85 90.55 C 70.5 78.05 79.62 66.25 90.55 50.95 M 70.75 90.55 C 73.81 83.43 80.6 75.83 90.55 60.85 M 70.75 90.55 C 75.73 83.11 81.29 74.65 90.55 60.85 M 70.75 100.45 C 73.97 92.87 79.35 86.71 90.55 70.75 M 70.75 100.45 C 75.22 94.01 78.23 89.59 90.55 70.75 M 70.75 110.35 C 74.91 102.88 80.45 100.6 86 90.01 M 70.75 110.35 C 75.5 102.98 81.99 95.17 86 90.01 M 89.01 86 C 91.9 79.44 97.4 73.54 100.45 70.75 M 89.01 86 C 92.01 82.12 94.4 78.22 100.45 70.75 M 70.75 120.25 C 75.98 112.55 83.05 105.74 86 101.18 M 70.75 120.25 C 75.24 114.94 78.57 109.18 86 101.18 M 98.15 86 C 102.84 82.95 104.16 77.63 110.35 70.75 M 98.15 86 C 101.24 81.46 106.27 75.71 110.35 70.75" fill="none" stroke="#ffffff" stroke-width="2" stroke-linejoin="round" stroke-linecap="round" stroke-miterlimit="10" transform="rotate(45,76,76)" pointer-events="all"/></g></svg>