<?xml version="1.0" encoding="UTF-8"?>
<!DOCTYPE svg PUBLIC "-//W3C//DTD SVG 1.1//EN" "http://www.w3.org/Graphics/SVG/1.1/DTD/svg11.dtd">
<svg 
xmlns="http://www.w3.org/2000/svg" 
xmlns:xlink="http://www.w3.org/1999/xlink" 
version="1.1" 
width="320px" 
height="317px" 
viewBox="0 0 320 317"><defs/><g>
<path
d="m 147.36,315.50058 c -9.45046,-0.72344 -20.51808,-2.5844 -29.6,-4.97708 C 102.91639,306.61288 81.260426,297.63259 70.72,291.01696 52.247251,279.42265 34.89839,259.53195 21.33815,234.40001 5.8007315,205.60365 -1.2787263,172.10951 1.7848883,141.89016 3.9462234,120.57085 13.130453,97.161933 28.32668,74.240002 38.842435,58.378079 50.085581,46.30987 65.591254,34.240811 c 5.921354,-4.608972 15.43994,-10.920897 21.71688,-14.40081 2.698429,-1.496 6.082,-3.576471 7.51905,-4.623269 5.975736,-4.352937 12.636966,-7.5270754 15.812816,-7.5349471 0.396,-9.92e-4 0.99147,-0.2732531 1.32326,-0.605048 0.85246,-0.8524605 3.60665,-1.8248411 9.15674,-3.2328395 8.80451,-2.2336088 17.59388,-3.07695712 28.96,-2.7787387 10.54405,0.2766494 19.54436,1.2817257 30.56,3.4126754 2.64,0.5107014 7.968,1.4437248 11.84,2.0733847 10.39141,1.6898394 16.12252,2.9280081 20.96,4.5282712 6.27236,2.07493 14.13569,6.044821 20.60205,10.401176 2.97113,2.001634 7.29113,4.793865 9.6,6.204957 26.7082,16.323009 45.21663,36.721733 57.65652,63.545074 6.94485,14.974733 13.43291,34.984983 15.81115,48.764173 2.2698,13.15088 2.68928,28.62295 1.10633,40.80514 -0.28587,2.2 -0.63188,4.864 -0.76891,5.92 -0.51495,3.96836 -5.39405,21.6822 -7.84453,28.48 -7.49792,20.79974 -18.22812,37.4627 -33.74825,52.40771 -20.51473,19.75454 -44.02591,32.7072 -71.89708,39.60918 -2.8395,0.70317 -6.4395,1.71198 -8,2.24179 -7.48805,2.54232 -16.80239,4.68349 -24.40053,5.60917 -4.86596,0.59282 -18.84061,0.84273 -24.19675,0.43272 z m 15.77022,-25.32956 -0.16146,-15.109 0.891,-0.891 c 0.76455,-0.76456 1.14778,-0.89101 2.70024,-0.89101 2.35946,0 3.4766,0.98855 3.80644,3.3683 0.57862,4.17474 2.52883,12.67222 3.56001,15.5117 0.89687,2.46965 3.39729,8.24231 4.40079,10.16 0.40852,0.78069 0.94144,1.36 1.25109,1.36 0.68614,0 11.70939,-1.85393 12.48282,-2.09941 0.53131,-0.16863 0.57999,-0.68787 0.59275,-6.32216 0.0112,-4.96142 0.15374,-6.90541 0.7432,-10.13843 0.4011,-2.2 0.97085,-4.46085 1.26609,-5.02411 0.42212,-0.80531 0.53681,-1.9102 0.53681,-5.17156 v -4.14744 l 0.98455,-0.82845 c 0.79805,-0.67151 1.31797,-0.82844 2.74462,-0.82844 1.51866,0 1.88835,0.12829 2.69544,0.93538 0.58565,0.58565 0.9381,1.27362 0.94265,1.84 0.0182,2.27209 0.6551,8.92321 0.96974,10.12763 0.19211,0.73534 0.97233,2.63299 1.73382,4.21699 0.7615,1.584 1.70474,3.96 2.09611,5.28 1.13732,3.83599 1.17899,3.91238 1.99566,3.65815 1.94535,-0.60561 17.83741,-8.9968 17.83741,-9.41837 0,-0.0991 -0.94894,-1.75954 -2.10875,-3.68995 -3.99816,-6.65461 -5.17681,-9.286 -5.41642,-12.09251 -0.33902,-3.97059 0.68695,-5.33732 4.00654,-5.33732 1.98671,0 2.32731,0.30543 6.23863,5.59434 1.408,1.90391 3.44113,4.42226 4.51807,5.59634 1.07693,1.17408 2.126,2.44848 2.33126,2.83201 0.20525,0.38352 0.51714,0.69731 0.69307,0.69731 0.38599,0 5.41869,-3.48725 10.77104,-7.46346 l 3.91345,-2.90725 -1.17274,-2.09465 c -0.64501,-1.15205 -1.43154,-2.59864 -1.74785,-3.21464 -0.31632,-0.616 -1.17574,-1.84 -1.90983,-2.72 -1.49384,-1.79075 -3.79647,-6.4602 -3.79647,-7.69876 0,-0.44394 -0.31665,-1.23544 -0.70365,-1.7589 -0.72432,-0.97969 -1.13964,-3.18907 -1.18935,-6.32696 -0.0234,-1.47616 0.0984,-1.82997 0.90839,-2.64 0.79057,-0.79057 1.18936,-0.93538 2.57589,-0.93538 0.90228,0 2.05196,0.21277 2.55486,0.47283 1.16819,0.6041 3.55579,4.0173 5.30362,7.58181 2.33075,4.75332 3.52342,6.08263 7.00727,7.81008 1.21936,0.60462 2.47565,1.33336 2.79176,1.61943 0.53959,0.48833 0.74648,0.36248 3.38298,-2.05777 1.54452,-1.41786 3.77912,-3.56332 4.96577,-4.7677 l 2.15754,-2.18978 -3.39684,-3.67445 c -2.99986,-3.24502 -4.54577,-5.11788 -7.87869,-9.54496 -0.48425,-0.64322 -1.37391,-1.67349 -1.97703,-2.28949 -0.60312,-0.616 -1.61092,-1.89047 -2.23955,-2.83216 -0.96235,-1.44159 -1.14297,-1.98852 -1.14297,-3.46104 0,-3.02608 1.08811,-4.24845 3.79182,-4.25969 1.498,-0.006 2.01171,0.18274 4.11281,1.51289 1.32055,0.836 3.81163,2.672 5.53574,4.08 1.72411,1.408 3.97735,2.97698 5.00719,3.48662 2.66738,1.32001 7.15244,4.03113 7.15244,4.32349 0,0.13594 0.341,0.40253 0.75778,0.59243 0.713,0.32486 0.92574,0.12782 3.6,-3.33443 1.56322,-2.02383 4.10303,-5.55473 5.64402,-7.84644 l 2.80179,-4.16674 -0.72179,-0.55633 c -1.73027,-1.33363 -5.06177,-2.84673 -7.2818,-3.30723 -5.94922,-1.23406 -7.64818,-1.51183 -9.28731,-1.5184 -2.01929,-0.008 -4.14028,-0.8502 -4.91029,-1.94955 -1.11498,-1.59185 -0.22016,-6.04342 1.21481,-6.04342 0.25663,0 0.71455,-0.41973 1.01759,-0.93274 1.11224,-1.88287 3.5161,-2.14141 6.61854,-0.71183 1.09267,0.50349 2.44131,1.00122 2.997,1.10607 0.55569,0.10485 2.4223,0.79389 4.14802,1.5312 2.94414,1.25787 3.4035,1.35786 7.44672,1.62087 2.36997,0.15418 4.41652,0.16919 4.54791,0.0334 0.72299,-0.74743 6.00839,-14.43459 5.65055,-14.6328 -2.51571,-1.39351 -11.29662,-4.33414 -12.94202,-4.33414 -0.76678,0 -8.62434,-2.55196 -11.07716,-3.59762 -1.87653,-0.79998 -2.46436,-1.814 -2.46436,-4.25111 0,-1.56336 0.1232,-1.9237 0.93539,-2.73589 0.91597,-0.91597 1.0106,-0.93646 4.56,-0.98707 1.99353,-0.0284 7.80628,-0.0103 12.91721,0.0402 5.11093,0.0505 9.73541,-0.005 10.27663,-0.12421 l 0.98402,-0.21613 0.37902,-3.26411 c 0.20846,-1.79525 0.46586,-5.02809 0.57201,-7.18409 l 0.19298,-3.92 -9.24863,-0.0153 c -8.59851,-0.0142 -14.62809,-0.42286 -16.22047,-1.09934 -1.36911,-0.58164 -1.97872,-3.77276 -1.05856,-5.54127 1.20564,-2.31721 2.41379,-2.72545 11.0704,-3.74073 7.76415,-0.9106 9.4087,-1.1844 11.76674,-1.95903 1.2797,-0.42039 2.5397,-0.76435 2.8,-0.76435 0.62558,0 0.60594,-0.65901 -0.18843,-6.32248 -0.77757,-5.54365 -1.84723,-11.0596 -3.25361,-16.77805 -0.83424,-3.39209 -1.10043,-4.08018 -1.50882,-3.90024 -2.27228,1.00118 -3.96116,1.38099 -6.18227,1.39032 -2.28545,0.01 -2.71217,0.12337 -5.28,1.40768 -7.75145,3.87691 -11.6467,4.67891 -13.53822,2.78738 -0.818,-0.818 -0.93539,-1.16744 -0.93539,-2.78431 0,-1.83164 0.0172,-1.86551 1.84,-3.62462 1.0839,-1.04602 3.15495,-2.49616 5.04,-3.52897 3.42381,-1.87591 8.1503,-4.90468 10.24,-6.56188 0.704,-0.55829 1.964,-1.40585 2.8,-1.88345 0.836,-0.47761 1.52,-1.00826 1.52,-1.17924 0,-1.15666 -10.34995,-22.382157 -10.91396,-22.382157 -0.14027,0 -1.38655,0.497494 -2.7695,1.105539 -1.38294,0.608048 -3.68049,1.535475 -5.10564,2.060947 -1.42516,0.525472 -3.64299,1.485079 -4.92852,2.132458 -1.28552,0.647379 -2.84695,1.356982 -3.46985,1.576893 -0.62289,0.219913 -2.28453,1.092979 -3.69253,1.94015 -2.28485,1.37476 -2.80341,1.55471 -4.82474,1.67435 -2.04133,0.12081 -2.35395,0.0573 -3.16917,-0.64393 -0.74393,-0.639901 -0.93112,-1.099645 -1.05476,-2.59057 -0.2178,-2.626368 0.26631,-3.47929 3.25667,-5.737767 3.88828,-2.936627 10.50667,-9.586301 12.65823,-12.718071 1.02777,-1.496 2.24332,-3.0691 2.70122,-3.495779 C 279.62535,75.117542 280,74.671026 280,74.551961 c 0,-0.3804 -5.11101,-7.382676 -8.21734,-11.258071 -2.04512,-2.55144 -3.15259,-3.688595 -3.47268,-3.565763 -0.25849,0.09919 -0.46998,0.306016 -0.46998,0.459606 0,0.153594 -0.54,0.558557 -1.2,0.899917 -0.66,0.34136 -1.92,1.367728 -2.8,2.280816 -1.67223,1.735104 -3.39719,2.926077 -12.6235,8.715722 -3.07092,1.92705 -6.73464,4.388445 -8.14159,5.46977 -3.48328,2.677104 -3.61808,2.741805 -5.73952,2.754704 -1.64195,0.01 -1.97632,-0.100362 -2.8,-0.924045 C 233.72139,78.57062 233.6,78.213654 233.6,76.63391 c 0,-1.723268 0.15617,-2.077463 3.07969,-6.984615 3.44445,-5.78153 8.11815,-12.750484 13.28347,-19.806983 l 3.45332,-4.717687 -1.66824,-1.072515 c -6.12463,-3.937533 -7.79101,-5.059578 -10.78824,-7.264198 -1.848,-1.359303 -4.95371,-3.268679 -6.90157,-4.243057 l -3.54157,-1.771595 -0.50987,1.013371 c -0.28042,0.557354 -0.67406,1.718311 -0.87475,2.579904 -0.53687,2.30489 -1.76752,5.164762 -2.86415,6.655959 -0.9682,1.316544 -2.6755,2.617978 -9.59894,7.317031 -3.47798,2.36056 -3.85977,2.540477 -5.39105,2.540477 -2.04026,0 -3.18939,-0.500234 -3.7821,-1.64641 -0.89349,-1.727827 -0.58303,-3.311719 1.58624,-8.092644 1.12323,-2.47552 2.94138,-6.732947 4.04033,-9.460947 1.09895,-2.728 2.1086,-5.104 2.24366,-5.28 0.13506,-0.176 0.54484,-0.857117 0.91061,-1.513593 0.80583,-1.446296 1.24932,-1.146383 -5.23684,-3.541391 -5.81874,-2.148562 -12.7946,-4.332634 -19.0812,-5.974129 l -4.68121,-1.22231 -0.19879,1.450374 c -0.10934,0.797706 -0.19704,2.546276 -0.19489,3.885711 0.004,2.569734 -0.7184,8.69952 -1.4375,12.195338 -1.07585,5.230163 -1.89438,7.044106 -3.52853,7.819555 -1.79096,0.849866 -3.87403,0.537812 -5.0275,-0.753142 L 176,37.749905 175.9766,29.834952 c -0.0129,-4.353223 -0.15737,-8.706951 -0.32116,-9.674951 -0.16379,-0.968 -0.38949,-3.103248 -0.50155,-4.744995 -0.18068,-2.64695 -0.2802,-3.013144 -0.87884,-3.233546 -1.43022,-0.526569 -17.32827,-1.597599 -23.95509,-1.613822 l -3.12,-0.0076 -0.0113,1.84 c -0.006,1.012 -0.21713,2.2 -0.46866,2.64 -0.33454,0.585221 -0.4608,2.002764 -0.4703,5.280001 -0.0101,3.470278 -0.18724,5.309414 -0.78612,8.16 -0.42523,2.024 -0.87483,4.544 -0.99912,5.6 -0.41055,3.488039 -1.46327,4.64 -4.24027,4.64 -1.46711,0 -1.84788,-0.134464 -2.6488,-0.935385 -0.51447,-0.514461 -0.93539,-1.260237 -0.93539,-1.65728 0,-0.397044 -0.13573,-1.164119 -0.30163,-1.704615 -0.40544,-1.320941 -1.52002,-7.697537 -1.93367,-11.06272 -0.18389,-1.496 -0.60485,-3.584 -0.93547,-4.64 -0.33062,-1.056 -0.7844,-3.011452 -1.00841,-4.345449 -0.39447,-2.349132 -0.4333,-2.421174 -1.23405,-2.289583 -8.26061,1.357497 -11.6342,2.64806 -12.75158,4.878105 -0.30535,0.609413 -0.91519,1.287904 -1.35519,1.507758 -1.24007,0.619623 -3.43784,0.496291 -4.80015,-0.269368 l -1.20729,-0.678537 -4.67641,2.003355 c -2.57203,1.101845 -4.90227,2.168508 -5.17832,2.370362 -0.45213,0.330602 -0.43223,0.619765 0.20057,2.915181 0.38637,1.401497 1.40428,4.666931 2.26204,7.256522 1.28722,3.886141 1.5604,5.115517 1.56438,7.04 0.003,1.282409 0.21233,2.907654 0.46595,3.611654 0.55325,1.53568 0.63009,5.046637 0.13178,6.021037 -0.68107,1.33177 -1.61667,1.80433 -3.58716,1.811847 -1.62604,0.0062 -1.98071,-0.108976 -2.771973,-0.900237 C 98.721306,48.850539 97.6,46.076833 97.6,44.894817 c 0,-0.980179 -2.624138,-5.536285 -4.428742,-7.689318 -1.066967,-1.272976 -2.528356,-3.180976 -3.247524,-4.24 -0.719171,-1.059024 -1.378291,-1.925498 -1.464716,-1.925498 -0.29249,0 -16.883796,13.237194 -18.63577,14.868349 -0.509859,0.474698 -0.111165,1.514275 1.415808,3.691652 1.500518,2.139651 5.388096,10.083638 6.163974,12.595648 0.433325,1.402934 0.67697,3.052272 0.67697,4.582675 0,2.215917 -0.06846,2.45937 -0.935386,3.326292 -0.835651,0.835654 -1.150083,0.935385 -2.949068,0.935385 h -2.013687 l -3.210928,-3.317517 c -1.766013,-1.824637 -5.020384,-5.062739 -7.231939,-7.195789 l -4.021008,-3.878269 -2.99664,2.795789 c -3.010518,2.808736 -10.586499,10.832385 -12.09328,12.807876 l -0.807162,1.058243 0.691472,0.484327 c 1.032407,0.723126 3.870644,4.388803 6.269309,8.097024 1.168858,1.806998 3.106848,4.244595 4.306647,5.416883 2.586921,2.527613 3.87167,4.834778 3.87167,6.952797 0,1.259469 -0.163766,1.646403 -1.088,2.570637 -0.961021,0.961021 -1.284074,1.088 -2.768029,1.088 -2.650589,0 -4.719661,-1.230154 -7.381577,-4.388666 -2.669268,-3.167235 -3.75297,-4.028707 -6.346583,-5.045136 -1.089427,-0.426944 -2.917533,-1.300125 -4.062454,-1.940403 -1.144925,-0.640278 -2.127543,-1.115011 -2.1836,-1.054967 -0.563818,0.603927 -5.277279,9.268647 -7.370523,13.549172 -2.389229,4.885787 -5.707085,12.414057 -5.976019,13.559677 -0.134772,0.57411 2.720301,2.17869 4.376785,2.4598 0.704,0.11947 1.784,0.47238 2.4,0.78423 0.616,0.31186 3.906066,1.36917 7.311258,2.34957 6.51847,1.87676 8.84528,2.93512 9.345532,4.25088 0.166765,0.43863 0.30321,1.51921 0.30321,2.40129 0,1.34594 -0.150387,1.75417 -0.935386,2.53917 -0.907913,0.90791 -1.027737,0.93522 -4.08,0.9298 -1.729536,-0.003 -4.440614,-0.21853 -6.024614,-0.47878 -1.952344,-0.32078 -5.268451,-0.47359 -10.295183,-0.47442 l -7.415184,-0.001 -0.336272,1.04 c -1.558977,4.8215 -3.947486,17.06238 -4.380368,22.44897 l -0.228952,2.84897 12.127285,-0.17618 c 13.139596,-0.19088 13.383583,-0.16484 14.146373,1.5093 0.210266,0.46148 0.382301,1.53286 0.382301,2.38085 0,1.73481 -0.642115,2.7876 -2.325248,3.81242 -1.690739,1.02944 -9.381579,3.33486 -12.87887,3.86058 -3.273183,0.49205 -6.109911,1.54387 -10.075882,3.73603 -0.616,0.34048 -1.143468,0.61907 -1.17215,0.61907 -0.1649073,0 1.254304,8.59323 1.955428,11.84 0.778906,3.60695 1.010774,4.51838 2.279429,8.96 0.602735,2.1102 0.660102,2.12094 5.128325,0.96 1.693468,-0.44 3.420267,-0.8 3.837331,-0.8 0.417065,0 2.25336,-0.432 4.080657,-0.96 2.206465,-0.63757 4.037436,-0.96 5.451367,-0.96 1.978144,0 2.213712,0.0776 3.324314,1.09577 1.177174,1.07915 1.194717,1.13053 1.156813,3.38808 -0.02906,1.73114 -0.192141,2.50086 -0.666157,3.14423 -0.756551,1.02683 -3.129344,2.37144 -5.501557,3.11759 -1.978918,0.62244 -2.662325,0.95308 -4.102231,1.98467 -0.560682,0.40169 -1.849373,1.11031 -2.863757,1.57471 -1.014383,0.4644 -2.451421,1.27228 -3.193417,1.79529 l -1.349084,0.95092 0.585306,1.47437 c 1.056964,2.66246 3.072516,7.15776 5.29977,11.8201 1.913007,4.00453 2.274239,4.5655 2.850134,4.42609 0.362714,-0.0878 2.280868,-0.81938 4.262567,-1.62573 1.981696,-0.80635 3.766586,-1.46609 3.966419,-1.46609 0.199837,0 1.411197,-0.504 2.691914,-1.12 1.280717,-0.616 2.519827,-1.12095 2.753577,-1.12211 0.233751,-10e-4 0.857002,-0.28821 1.385002,-0.63789 0.653194,-0.4326 1.50199,-0.63646 2.655891,-0.63789 3.193082,-0.004 4.484823,1.42927 4.113543,4.56415 -0.260314,2.19794 -0.99905,3.10796 -3.308797,4.07596 -1.052803,0.44123 -2.766138,1.5348 -3.807411,2.43017 -1.041274,0.89536 -2.325226,1.89464 -2.853226,2.22061 -0.528,0.32598 -1.752,1.32239 -2.72,2.21425 -0.968,0.89186 -2.115008,1.84983 -2.548909,2.12882 l -0.788909,0.50726 2.388909,3.73113 c 3.239898,5.06024 6.911213,10.27124 10.496352,14.89833 2.986282,3.85418 2.987731,3.85547 3.722557,3.30144 0.948275,-0.71495 3.631478,-4.49236 4.939795,-6.95423 1.658787,-3.12136 2.852563,-4.31696 4.570163,-4.57714 1.257834,-0.19053 1.66194,-0.45412 2.785655,-1.817 0.722912,-0.87677 1.314387,-1.68166 1.314387,-1.78863 0,-0.43666 1.730307,-0.93723 3.239674,-0.93723 1.352316,0 1.759049,0.14949 2.54494,0.93538 0.824135,0.82414 0.935386,1.16173 0.935386,2.83846 0,2.16011 -0.867178,4.21693 -4.48009,10.62616 -2.760345,4.89679 -4.375833,8.63725 -5.25184,12.16 l -0.517235,2.08 2.484583,2.33323 c 1.366521,1.28328 3.295148,3.04643 4.285843,3.91811 l 1.801264,1.58486 2.998736,-2.12229 c 1.649305,-1.16726 5.150163,-4.20367 7.77968,-6.74756 2.62952,-2.5439 5.65352,-5.21845 6.72,-5.94344 1.675168,-1.13878 2.172656,-1.3183 3.65552,-1.31911 1.543709,-9.6e-4 1.81288,0.10697 2.674499,1.07129 0.888362,0.99425 0.948013,1.21451 0.820205,3.02857 -0.102544,1.45547 -0.387971,2.36597 -1.114864,3.55634 -0.537367,0.88 -1.950275,3.184 -3.139795,5.12 -1.18952,1.936 -2.467357,4.05384 -2.839636,4.7063 -0.372278,0.65247 -1.193436,2.09247 -1.824793,3.2 -0.631357,1.10754 -1.243047,2.61311 -1.359309,3.34572 -0.116262,0.73262 -0.289536,1.53569 -0.385056,1.78461 -0.122474,0.31916 1.138099,1.17694 4.276259,2.90985 4.340701,2.39697 11.668887,5.99173 12.140279,5.9553 0.129664,-0.01 0.7943,-0.75086 1.47698,-1.64631 1.32841,-1.74241 2.12055,-3.49632 4.08413,-9.04278 0.68292,-1.92902 1.81609,-4.47419 2.51816,-5.65594 0.70206,-1.18176 1.27648,-2.24996 1.27648,-2.37379 0,-0.12383 0.43627,-0.74666 0.96948,-1.38406 0.53321,-0.63739 1.3854,-1.6629 1.89375,-2.2789 0.87385,-1.05891 1.03187,-1.12 2.89677,-1.12 1.82339,0 2.04308,0.079 2.90625,1.04505 0.8907,0.99687 0.93375,1.1831 0.93375,4.03976 0,1.84399 -0.18444,3.51749 -0.48,4.35519 -0.264,0.74825 -0.47856,1.88236 -0.47681,2.52023 0.003,1.20521 -0.65931,6.10975 -1.49692,11.07977 -0.26695,1.584 -0.43607,3.44227 -0.37582,4.12948 L 116,300.5792 l 2.56,0.60285 c 2.99417,0.7051 11.10426,2.227 11.20764,2.10317 0.66958,-0.80196 1.90988,-4.54784 2.83595,-8.56499 0.22316,-0.968 0.57464,-2.07454 0.78107,-2.45896 0.20644,-0.38443 0.37534,-1.1288 0.37534,-1.65416 0,-1.05872 0.68419,-3.95008 1.65761,-7.00501 0.83287,-2.61383 1.66793,-3.28187 4.10239,-3.28187 2.21304,0 3.33802,0.73326 3.82719,2.49456 0.46627,1.67881 0.41104,4.32395 -0.11981,5.73896 -0.49118,1.30927 -0.97066,13.03818 -0.62102,15.19112 0.18958,1.16729 0.21643,1.18635 1.83302,1.30081 0.90234,0.0639 5.51325,0.1428 10.24647,0.17536 l 8.60584,0.0592 z"
style="fill:#fefefe;stroke-width:0.32" /></g></svg>