<svg width="25" height="20" viewBox="0 0 25 20" fill="none" xmlns="http://www.w3.org/2000/svg">
<path d="M9.99994 2.67029e-05C4.47709 5.91278e-05 -3.24249e-05 4.47724 0 10.0001C3.24249e-05 15.5229 4.47721 20.0001 10.0001 20L9.99994 2.67029e-05ZM14.5 20C20.0228 20 24.5 15.5229 24.5 10C24.5 4.47717 20.0228 1.71661e-05 14.5 1.71661e-05V20ZM10.0001 20C12.2492 20 13.0005 20 13.0249 20C13.0253 20 13.0261 20 13.0266 20C13.0279 20 13.0443 20 13.0596 19.9999C23.024 9.9857 13.029 3.8147e-06 13.0271 2.86102e-06C13.0264 2.86102e-06 13.0255 1.90735e-06 13.025 1.90735e-06C13.0237 1.90735e-06 13.0219 1.90735e-06 13.02 1.90735e-06C13.0158 1.90735e-06 13.009 1.90735e-06 12.9998 9.53674e-07C12.9815 9.53674e-07 12.9534 9.53674e-07 12.9169 9.53674e-07C12.844 0 12.7378 0 12.6104 0C12.3555 0 12.0156 9.53674e-07 11.6875 1.90735e-06C11.3593 2.86102e-06 11.0429 3.8147e-06 10.8349 5.72205e-06C10.7309 6.67572e-06 10.6539 7.62939e-06 10.6161 8.58307e-06C10.6067 8.58307e-06 10.5996 8.58307e-06 10.5951 8.58307e-06C10.5929 9.53674e-06 10.5911 9.53674e-06 10.5898 9.53674e-06C10.5894 9.53674e-06 10.5888 9.53674e-06 10.5884 9.53674e-06C10.5877 9.53674e-06 10.5849 1.14441e-05 10.5828 1.23978e-05C0.59031 9.9881 10.5721 20 10.5853 20C10.5865 20 10.5882 20 10.5888 20C10.5921 20 10.6071 20 10.6327 20C10.8437 20 11.8751 20 14.5 20V1.71661e-05C11.8749 1.71661e-05 10.8438 1.43051e-05 10.633 1.04904e-05C10.6198 1.04904e-05 10.6099 1.04904e-05 10.603 1.04904e-05C10.5995 1.04904e-05 10.5969 1.04904e-05 10.595 9.53674e-06C10.5928 9.53674e-06 10.5923 9.53674e-06 10.5925 9.53674e-06C10.5928 9.53674e-06 10.5943 1.04904e-05 10.5954 1.04904e-05C10.6085 2.57492e-05 20.5903 10.0119 10.5979 20C10.594 20 10.59 20 10.5923 20C10.5927 20 10.5939 20 10.5961 20C10.6003 20 10.6071 20 10.6166 20C10.6542 20 10.731 20 10.835 20C11.043 20 11.3594 20 11.6875 20C12.0157 20 12.3555 20 12.6104 20C12.7378 20 12.844 20 12.9168 20C12.9532 20 12.9813 20 12.9995 20C13.0086 20 13.0152 20 13.0191 20C13.02 20 13.0208 20 13.0213 20C13.0219 20 13.0221 20 13.022 20C13.0219 20 13.0212 20 13.0207 20C13.0189 20 3.02402 10.0143 12.9884 6.58035e-05C13.0037 2.28882e-05 13.02 2.86102e-06 13.0211 2.86102e-06C13.0214 2.86102e-06 13.0219 2.86102e-06 13.022 2.86102e-06C13.0219 2.86102e-06 13.0219 2.86102e-06 13.0218 2.86102e-06C13.0216 2.86102e-06 13.0214 2.86102e-06 13.021 2.86102e-06C13.0204 2.86102e-06 13.0196 2.86102e-06 13.0186 2.86102e-06C13.0165 2.86102e-06 13.0136 2.86102e-06 13.01 2.86102e-06C13.0027 3.8147e-06 12.9924 3.8147e-06 12.9789 3.8147e-06C12.9518 4.76837e-06 12.9118 4.76837e-06 12.8574 5.72205e-06C12.7487 6.67572e-06 12.5824 8.58307e-06 12.3466 1.04904e-05C11.8749 1.43051e-05 11.1249 2.00272e-05 9.99994 2.67029e-05L10.0001 20Z" fill="white"/>
</svg>
