<svg width="168" height="251" viewBox="0 0 168 251" fill="none" xmlns="http://www.w3.org/2000/svg">
<path d="M126 83.6667C126 72.1189 121.898 62.2598 113.695 54.0892C105.492 45.9186 95.5938 41.8333 84 41.8333C72.4062 41.8333 62.5078 45.9186 54.3047 54.0892C46.1016 62.2598 42 72.1189 42 83.6667C42 95.2144 46.1016 105.074 54.3047 113.244C62.5078 121.415 72.4062 125.5 84 125.5C95.5938 125.5 105.492 121.415 113.695 113.244C121.898 105.074 126 95.2144 126 83.6667ZM168 83.6667C168 95.5412 166.195 105.291 162.586 112.917L102.867 239.398C101.117 242.993 98.5195 245.825 95.0742 247.895C91.6289 249.965 87.9375 251 84 251C80.0625 251 76.3711 249.965 72.9258 247.895C69.4805 245.825 66.9375 242.993 65.2969 239.398L5.41406 112.917C1.80469 105.291 0 95.5412 0 83.6667C0 60.5712 8.20312 40.8529 24.6094 24.5117C41.0156 8.17057 60.8125 0 84 0C107.188 0 126.984 8.17057 143.391 24.5117C159.797 40.8529 168 60.5712 168 83.6667Z" fill="#090909"/>
</svg>
