<svg width="227" height="82" viewBox="0 0 227 82" fill="none" xmlns="http://www.w3.org/2000/svg">
<path d="M8.417 61.9066C2.94323 62.806 -0.765001 67.9725 0.134446 73.4463C1.03389 78.9201 6.20041 82.6283 11.6742 81.7289L8.417 61.9066ZM220.537 19.4296C225.719 17.4502 228.315 11.6448 226.336 6.46275C224.357 1.28074 218.551 -1.31549 213.369 0.6639L220.537 19.4296ZM11.6742 81.7289C65.0648 72.9558 88.2649 68.5849 112.818 60.6604C136.856 52.9021 162.651 41.5409 220.537 19.4296L213.369 0.6639C154.243 23.2487 130.068 33.9844 106.648 41.5433C83.7427 48.936 61.9957 53.1026 8.417 61.9066L11.6742 81.7289Z" fill="white"/>
</svg>
