<svg width="277" height="425" viewBox="0 0 277 425" fill="none" xmlns="http://www.w3.org/2000/svg">
<path d="M191.7 38H187.2V42.5V74.375C187.2 75.996 186.555 77.5528 185.402 78.7023C184.25 79.8521 182.684 80.5 181.05 80.5H95.85C94.2155 80.5 92.6501 79.8521 91.4975 78.7023C90.3454 77.5528 89.7 75.996 89.7 74.375L89.7 42.5V38H85.2H63.9C57.0608 38 50.4996 40.7104 45.6604 45.5383C40.8208 50.3665 38.1 56.9173 38.1 63.75L38.1 361.25C38.1 368.083 40.8208 374.634 45.6604 379.462C50.4996 384.29 57.0608 387 63.9 387H213C219.839 387 226.4 384.29 231.24 379.462C236.079 374.634 238.8 368.083 238.8 361.25L238.8 63.75C238.8 56.9173 236.079 50.3665 231.24 45.5383C226.4 40.7104 219.839 38 213 38H191.7ZM42.6 4.5L234.3 4.5C255.145 4.5 272.4 22.3131 272.4 44.7313L272.4 380.269C272.4 402.687 255.145 420.5 234.3 420.5H42.6C21.7546 420.5 4.5 402.687 4.5 380.269L4.5 44.7313C4.5 22.313 21.7546 4.5 42.6 4.5Z" fill="white" stroke="#090909" stroke-width="9"/>
</svg>
