<svg width="994" height="1363" viewBox="0 0 994 1363" fill="none" xmlns="http://www.w3.org/2000/svg">
<g filter="url(#filter0_d_64_99)">
<path d="M141.717 63.6822L142.146 3.17982C142.777 1.05994 145.24 0 149.537 0C153.491 0 157.129 0.544293 160.452 1.63288C163.775 2.66417 166.554 4.44028 168.788 6.96122C171.08 9.42486 172.226 12.4041 172.226 15.8991C172.226 18.6492 171.538 21.3134 170.163 23.8916C168.845 26.4698 167.212 28.1313 165.264 28.8762C168.931 29.3918 171.882 31.5976 174.116 35.4936C176.351 39.3896 177.468 44.0018 177.468 49.3301C177.468 52.9396 176.036 56.0908 173.171 58.7836C170.306 61.4191 166.955 63.3385 163.116 64.5417C159.335 65.6875 155.496 66.2605 151.6 66.2605C146.844 66.2605 143.55 65.4011 141.717 63.6822ZM148.764 33.6029C148.764 37.5562 148.706 45.4914 148.592 57.4086C150.311 59.3565 152.517 60.3305 155.209 60.3305C158.762 60.3305 162.199 58.8695 165.522 55.9476C168.845 52.9683 170.507 49.7885 170.507 46.4081C170.507 42.2257 169.103 38.9599 166.296 36.6108C163.488 34.2618 159.879 33.0873 155.467 33.0873C152.545 33.0873 150.311 33.2591 148.764 33.6029ZM148.592 27.2433L153.92 27.1573C157.587 27.1573 160.394 26.0974 162.342 23.9775C164.348 21.8004 165.35 19.2221 165.35 16.2428C165.35 13.2063 164.348 10.5994 162.342 8.42221C160.337 6.18775 157.558 5.07052 154.006 5.07052C152.402 5.07052 150.511 5.41428 148.334 6.10181C148.449 9.59674 148.506 13.9224 148.506 19.0789C148.563 24.2353 148.592 26.9568 148.592 27.2433ZM210.298 2.92199L214.165 3.7814C214.738 13.2349 215.397 28.9621 216.141 50.963C227.314 31.082 234.991 15.097 239.174 3.00793C240.033 2.32041 240.864 1.97664 241.666 1.97664C242.926 1.97664 243.958 2.72146 244.76 4.21111C245.619 5.70075 246.078 7.39092 246.135 9.28162C246.307 14.61 246.45 23.6051 246.565 36.2671C246.736 48.929 246.966 58.3826 247.252 64.6276C246.736 66.3464 245.762 67.2058 244.33 67.2058C243.299 67.2058 242.296 66.7761 241.322 65.9167C240.348 65.1146 239.747 64.1119 239.517 62.9088C239.689 57.9242 239.775 50.2755 239.775 39.9625C239.833 29.6496 239.89 22.6884 239.947 19.0789C238.687 21.2561 236.481 25.3812 233.33 31.4544C230.179 37.5275 227.257 42.7413 224.564 47.0956C221.928 51.45 219.207 55.2314 216.399 58.4398L216.743 65.4011C216.227 67.1772 215.225 68.0652 213.735 68.0652C212.704 68.0652 211.701 67.6355 210.727 66.7761C209.811 65.9167 209.238 64.8854 209.008 63.6822C209.18 58.8123 209.352 49.2728 209.524 35.0639C209.696 20.855 209.954 10.141 210.298 2.92199ZM286.871 4.38299L287.73 8.25033C285.209 8.42221 280.798 8.70868 274.495 9.10974C268.193 9.4535 263.781 9.73997 261.26 9.96915C261.432 15.4121 261.547 24.5218 261.604 37.2984C261.662 50.0749 261.805 59.4425 262.034 65.4011C261.518 67.1772 260.516 68.0652 259.026 68.0652C257.995 68.0652 256.992 67.6355 256.018 66.7761C255.101 65.9167 254.528 64.8854 254.299 63.6822C254.929 56.4632 255.331 39.5901 255.502 13.063C255.502 12.089 255.502 10.5994 255.502 8.59409C255.56 6.58881 255.588 5.01322 255.588 3.86734C258.682 4.03922 261.805 4.12517 264.956 4.12517C266.216 4.12517 268.107 4.12517 270.628 4.12517C273.149 4.06787 275.04 4.03922 276.3 4.03922C280.196 4.03922 283.72 4.15381 286.871 4.38299ZM292.629 4.21111L296.496 3.17982C296.496 5.01322 296.525 6.04451 296.582 6.27369C299.848 4.09652 304.431 3.00793 310.333 3.00793C316.692 3.00793 321.448 5.01322 324.599 9.0238C327.75 12.9771 329.326 18.5346 329.326 25.6963C329.326 32.056 327.779 37.327 324.685 41.5095C321.591 45.6919 316.922 47.7832 310.677 47.7832C309.645 47.7832 305.52 47.4394 298.301 46.7519C298.416 50.9343 298.645 57.4372 298.989 66.2605C298.473 68.0366 297.47 68.9246 295.981 68.9246C294.949 68.9246 293.947 68.4949 292.973 67.6355C292.056 66.8334 291.483 65.8308 291.254 64.6276C291.426 59.8149 291.598 50.4473 291.77 36.5249C291.999 22.6025 292.285 11.8312 292.629 4.21111ZM297.356 12.0317L298.043 38.8453C301.194 40.5641 304.833 41.4235 308.958 41.4235C312.911 41.4235 316.263 39.9339 319.013 36.9546C321.763 33.9753 323.138 30.3372 323.138 26.0401C323.138 21.3993 321.706 17.2168 318.841 13.4927C315.976 9.76862 312.395 7.90657 308.098 7.90657C304.603 7.90657 301.022 9.28162 297.356 12.0317ZM369.116 62.0494L369.976 65.9167C367.741 65.9167 363.673 66.0026 357.772 66.1745C351.928 66.4037 347.688 66.5183 345.053 66.5183C340.813 66.5183 337.92 66.3178 336.373 65.9167C336.946 59.6144 337.29 49.0723 337.404 34.2904C337.519 19.5086 337.891 9.19568 338.521 3.3517C340.469 3.52358 345.626 3.66681 353.991 3.7814C362.413 3.89599 367.913 4.15381 370.491 4.55487L371.437 8.42221C368.859 8.88056 363.702 9.42486 355.967 10.0551C348.233 10.6853 344.165 11.0291 343.764 11.0864C343.821 12.4041 343.936 15.097 344.108 19.1648C344.337 23.2327 344.48 26.5844 344.537 29.2199C346.485 29.4491 350.037 29.7929 355.194 30.2512C360.35 30.6523 363.616 30.9101 364.991 31.0247L365.851 34.978C353.762 36.0666 346.686 36.6395 344.623 36.6968C344.623 39.2177 344.566 43.0564 344.451 48.2129C344.394 53.312 344.365 57.0648 344.365 59.4711C357.486 60.6743 365.736 61.5337 369.116 62.0494ZM399.539 37.1265C399.539 35.1785 399.539 33.7175 399.539 32.7435C399.539 31.7122 399.568 30.1653 399.625 28.1027C399.74 26.0401 399.855 24.4072 399.969 23.2041C400.141 22.0009 400.37 20.4539 400.657 18.5632C400.943 16.6152 401.316 15.0683 401.774 13.9224C402.232 12.7193 402.748 11.3729 403.321 9.88321C403.951 8.39357 404.725 7.19039 405.641 6.27369C406.558 5.35699 407.561 4.49758 408.649 3.69546C409.738 2.83605 411.027 2.20582 412.517 1.80476C414.006 1.4037 415.639 1.20317 417.415 1.20317C420.967 1.20317 424.061 1.91935 426.697 3.3517C429.332 4.72675 431.395 6.47422 432.885 8.59409C434.374 10.714 435.549 13.3208 436.408 16.4147C437.325 19.5086 437.898 22.4592 438.127 25.2666C438.413 28.074 438.557 31.1679 438.557 34.5483C438.557 36.84 438.499 38.9026 438.385 40.736C438.327 42.5694 438.156 44.6606 437.869 47.0097C437.64 49.3015 437.268 51.3354 436.752 53.1115C436.294 54.8876 435.635 56.6924 434.775 58.5258C433.916 60.3019 432.885 61.7915 431.681 62.9947C430.536 64.1406 429.075 65.0859 427.298 65.8308C425.522 66.5756 423.546 66.948 421.368 66.948C417.816 66.948 414.751 66.5183 412.173 65.6589C409.652 64.7995 407.561 63.5963 405.899 62.0494C404.295 60.5024 403.006 58.4685 402.032 55.9476C401.115 53.4266 400.456 50.6765 400.055 47.6972C399.711 44.7179 399.539 41.1944 399.539 37.1265ZM432.369 37.814C432.369 35.0066 432.14 32.0846 431.681 29.048C431.28 26.0115 430.564 22.7457 429.533 19.2508C428.559 15.7558 426.983 12.9198 424.806 10.7426C422.629 8.50815 420.022 7.39092 416.985 7.39092C414.694 7.39092 412.66 8.93786 410.884 12.0317C409.165 15.0683 407.933 18.506 407.188 22.3446C406.443 26.126 406.071 29.7069 406.071 33.0873C406.071 35.4363 406.071 37.2411 406.071 38.5015C406.128 39.7047 406.243 41.4522 406.415 43.7439C406.587 45.9784 406.816 47.7545 407.102 49.0723C407.446 50.39 407.962 51.9083 408.649 53.6272C409.337 55.346 410.139 56.6924 411.056 57.6664C412.03 58.5831 413.261 59.4138 414.751 60.1587C416.298 60.8462 418.017 61.2186 419.907 61.2759C424.09 61.0467 427.212 58.6977 429.275 54.2287C431.338 49.7598 432.369 44.2882 432.369 37.814ZM438.213 8.25033L437.353 4.38299L470.183 2.49229C471.615 2.54958 472.818 3.06523 473.792 4.03922C474.766 5.01322 475.253 6.07316 475.253 7.21904C475.253 7.96386 474.967 8.62274 474.394 9.19568C473.821 9.76862 472.962 10.1124 471.816 10.227L457.378 9.4535C458.81 29.6783 459.87 48.0696 460.558 64.6276C460.042 66.3464 459.068 67.2058 457.636 67.2058C456.604 67.2058 455.602 66.7761 454.628 65.9167C453.654 65.1146 453.052 64.1119 452.823 62.9088C452.937 59.8149 452.995 55.1168 452.995 48.8145C452.995 46.4654 452.966 42.9418 452.909 38.2437C452.909 33.5456 452.909 30.022 452.909 27.673C452.909 20.855 453.023 14.6959 453.253 9.19568C446.778 8.73733 441.765 8.42221 438.213 8.25033ZM512.38 9.19568L508.942 13.149C504.473 9.82592 500.062 8.16439 495.707 8.16439C492.843 8.16439 490.379 8.85192 488.316 10.227C486.254 11.602 484.678 13.2636 483.59 15.2115C482.558 17.1595 481.728 19.6232 481.097 22.6025C480.524 25.5818 480.152 28.16 479.98 30.3372C479.866 32.5143 479.808 35.0639 479.808 37.9859C479.808 40.8506 480.324 44.1164 481.355 47.7832C482.444 51.3927 484.249 54.773 486.77 57.9242C489.29 61.0754 492.212 62.651 495.536 62.651C499.145 62.651 504.674 60.7603 512.122 56.9788C512.867 58.0674 513.841 59.8722 515.044 62.3931C507.825 67.3777 501.379 69.87 495.707 69.87C492.041 69.87 488.689 68.7528 485.652 66.5183C482.616 64.2838 480.209 61.4478 478.433 58.0101C476.714 54.5725 475.368 50.9916 474.394 47.2675C473.477 43.4861 473.019 39.9052 473.019 36.5249C473.019 32.8008 473.305 29.1913 473.878 25.6963C474.451 22.1441 475.425 18.5919 476.8 15.0397C478.175 11.4874 480.238 8.62274 482.988 6.44557C485.796 4.2684 489.119 3.17982 492.957 3.17982C496.28 3.17982 499.718 3.75275 503.27 4.89863C506.822 6.04451 509.859 7.47686 512.38 9.19568ZM515.904 7.30498L520.372 3.09387C522.951 7.33363 526.216 13.8651 530.17 22.6884C534.123 31.5117 536.816 37.327 538.248 40.1344C543.978 25.4099 548.303 13.6646 551.225 4.89863C551.97 3.52358 552.915 2.83605 554.061 2.83605C555.093 2.83605 556.009 3.3517 556.811 4.38299C557.614 5.35699 558.072 6.50287 558.186 7.82063C556.238 12.0031 553.145 18.8211 548.905 28.2746C544.722 37.6708 541.142 45.3768 538.162 51.3927C535.24 57.3513 532.118 63.1093 528.795 68.6668L523.208 67.5496L534.295 45.8065C532.232 40.1344 526.102 27.3006 515.904 7.30498ZM558.96 8.25033L558.101 4.38299L590.93 2.49229C592.362 2.54958 593.565 3.06523 594.539 4.03922C595.513 5.01322 596 6.07316 596 7.21904C596 7.96386 595.714 8.62274 595.141 9.19568C594.568 9.76862 593.709 10.1124 592.563 10.227L578.125 9.4535C579.557 29.6783 580.617 48.0696 581.305 64.6276C580.789 66.3464 579.815 67.2058 578.383 67.2058C577.351 67.2058 576.349 66.7761 575.375 65.9167C574.401 65.1146 573.799 64.1119 573.57 62.9088C573.684 59.8149 573.742 55.1168 573.742 48.8145C573.742 46.4654 573.713 42.9418 573.656 38.2437C573.656 33.5456 573.656 30.022 573.656 27.673C573.656 20.855 573.77 14.6959 574 9.19568C567.525 8.73733 562.512 8.42221 558.96 8.25033ZM633.127 9.19568L629.689 13.149C625.22 9.82592 620.809 8.16439 616.454 8.16439C613.59 8.16439 611.126 8.85192 609.063 10.227C607.001 11.602 605.425 13.2636 604.337 15.2115C603.305 17.1595 602.475 19.6232 601.844 22.6025C601.272 25.5818 600.899 28.16 600.727 30.3372C600.613 32.5143 600.555 35.0639 600.555 37.9859C600.555 40.8506 601.071 44.1164 602.102 47.7832C603.191 51.3927 604.996 54.773 607.517 57.9242C610.037 61.0754 612.959 62.651 616.283 62.651C619.892 62.651 625.421 60.7603 632.869 56.9788C633.614 58.0674 634.588 59.8722 635.791 62.3931C628.572 67.3777 622.127 69.87 616.454 69.87C612.788 69.87 609.436 68.7528 606.399 66.5183C603.363 64.2838 600.956 61.4478 599.18 58.0101C597.461 54.5725 596.115 50.9916 595.141 47.2675C594.224 43.4861 593.766 39.9052 593.766 36.5249C593.766 32.8008 594.052 29.1913 594.625 25.6963C595.198 22.1441 596.172 18.5919 597.547 15.0397C598.922 11.4874 600.985 8.62274 603.735 6.44557C606.543 4.2684 609.866 3.17982 613.704 3.17982C617.027 3.17982 620.465 3.75275 624.017 4.89863C627.569 6.04451 630.606 7.47686 633.127 9.19568ZM637.51 8.25033L636.651 4.38299L669.48 2.49229C670.912 2.54958 672.116 3.06523 673.09 4.03922C674.064 5.01322 674.551 6.07316 674.551 7.21904C674.551 7.96386 674.264 8.62274 673.691 9.19568C673.118 9.76862 672.259 10.1124 671.113 10.227L656.675 9.4535C658.107 29.6783 659.167 48.0696 659.855 64.6276C659.339 66.3464 658.365 67.2058 656.933 67.2058C655.901 67.2058 654.899 66.7761 653.925 65.9167C652.951 65.1146 652.349 64.1119 652.12 62.9088C652.235 59.8149 652.292 55.1168 652.292 48.8145C652.292 46.4654 652.263 42.9418 652.206 38.2437C652.206 33.5456 652.206 30.022 652.206 27.673C652.206 20.855 652.32 14.6959 652.55 9.19568C646.075 8.73733 641.062 8.42221 637.51 8.25033ZM678.074 63.6822L678.504 3.17982C679.134 1.05994 681.598 0 685.895 0C689.848 0 693.486 0.544293 696.809 1.63288C700.132 2.66417 702.911 4.44028 705.145 6.96122C707.437 9.42486 708.583 12.4041 708.583 15.8991C708.583 18.6492 707.896 21.3134 706.521 23.8916C705.203 26.4698 703.57 28.1313 701.622 28.8762C705.289 29.3918 708.239 31.5976 710.474 35.4936C712.708 39.3896 713.826 44.0018 713.826 49.3301C713.826 52.9396 712.393 56.0908 709.528 58.7836C706.664 61.4191 703.312 63.3385 699.473 64.5417C695.692 65.6875 691.853 66.2605 687.957 66.2605C683.202 66.2605 679.907 65.4011 678.074 63.6822ZM685.121 33.6029C685.121 37.5562 685.064 45.4914 684.949 57.4086C686.668 59.3565 688.874 60.3305 691.567 60.3305C695.119 60.3305 698.557 58.8695 701.88 55.9476C705.203 52.9683 706.864 49.7885 706.864 46.4081C706.864 42.2257 705.461 38.9599 702.653 36.6108C699.846 34.2618 696.236 33.0873 691.825 33.0873C688.903 33.0873 686.668 33.2591 685.121 33.6029ZM684.949 27.2433L690.278 27.1573C693.945 27.1573 696.752 26.0974 698.7 23.9775C700.705 21.8004 701.708 19.2221 701.708 16.2428C701.708 13.2063 700.705 10.5994 698.7 8.42221C696.695 6.18775 693.916 5.07052 690.364 5.07052C688.759 5.07052 686.869 5.41428 684.692 6.10181C684.806 9.59674 684.863 13.9224 684.863 19.0789C684.921 24.2353 684.949 26.9568 684.949 27.2433ZM712.794 7.30498L717.263 3.09387C719.841 7.33363 723.107 13.8651 727.06 22.6884C731.014 31.5117 733.707 37.327 735.139 40.1344C740.868 25.4099 745.194 13.6646 748.116 4.89863C748.861 3.52358 749.806 2.83605 750.952 2.83605C751.983 2.83605 752.9 3.3517 753.702 4.38299C754.504 5.35699 754.963 6.50287 755.077 7.82063C753.129 12.0031 750.035 18.8211 745.796 28.2746C741.613 37.6708 738.032 45.3768 735.053 51.3927C732.131 57.3513 729.008 63.1093 725.685 68.6668L720.099 67.5496L731.186 45.8065C729.123 40.1344 722.993 27.3006 712.794 7.30498ZM791.258 62.0494L792.118 65.9167C789.883 65.9167 785.815 66.0026 779.914 66.1745C774.07 66.4037 769.83 66.5183 767.195 66.5183C762.955 66.5183 760.062 66.3178 758.515 65.9167C759.088 59.6144 759.432 49.0723 759.546 34.2904C759.661 19.5086 760.033 9.19568 760.663 3.3517C762.611 3.52358 767.768 3.66681 776.133 3.7814C784.555 3.89599 790.055 4.15381 792.633 4.55487L793.579 8.42221C791 8.88056 785.844 9.42486 778.109 10.0551C770.375 10.6853 766.307 11.0291 765.906 11.0864C765.963 12.4041 766.078 15.097 766.249 19.1648C766.479 23.2327 766.622 26.5844 766.679 29.2199C768.627 29.4491 772.179 29.7929 777.336 30.2512C782.492 30.6523 785.758 30.9101 787.133 31.0247L787.993 34.978C775.904 36.0666 768.828 36.6395 766.765 36.6968C766.765 39.2177 766.708 43.0564 766.593 48.2129C766.536 53.312 766.507 57.0648 766.507 59.4711C779.628 60.6743 787.878 61.5337 791.258 62.0494ZM794.352 8.25033L793.493 4.38299L826.322 2.49229C827.755 2.54958 828.958 3.06523 829.932 4.03922C830.906 5.01322 831.393 6.07316 831.393 7.21904C831.393 7.96386 831.106 8.62274 830.533 9.19568C829.96 9.76862 829.101 10.1124 827.955 10.227L813.517 9.4535C814.949 29.6783 816.009 48.0696 816.697 64.6276C816.181 66.3464 815.207 67.2058 813.775 67.2058C812.744 67.2058 811.741 66.7761 810.767 65.9167C809.793 65.1146 809.191 64.1119 808.962 62.9088C809.077 59.8149 809.134 55.1168 809.134 48.8145C809.134 46.4654 809.105 42.9418 809.048 38.2437C809.048 33.5456 809.048 30.022 809.048 27.673C809.048 20.855 809.163 14.6959 809.392 9.19568C802.918 8.73733 797.904 8.42221 794.352 8.25033ZM1.37506 101.215L5.2424 100.184C5.2424 102.017 5.27104 103.048 5.32834 103.278C8.59409 101.1 13.1776 100.012 19.0789 100.012C25.4385 100.012 30.1939 102.017 33.3451 106.028C36.4963 109.981 38.0718 115.538 38.0718 122.7C38.0718 129.06 36.5249 134.331 33.431 138.513C30.3372 142.696 25.6677 144.787 19.4227 144.787C18.3914 144.787 14.2662 144.443 7.04716 143.756C7.16175 147.938 7.39092 154.441 7.73469 163.264C7.21904 165.04 6.2164 165.929 4.72675 165.929C3.69546 165.929 2.69282 165.499 1.71882 164.639C0.802116 163.837 0.229176 162.835 0 161.631C0.171882 156.819 0.343764 147.451 0.515646 133.529C0.744822 119.606 1.03129 108.835 1.37506 101.215ZM6.10181 109.036L6.78933 135.849C9.9405 137.568 13.5787 138.427 17.7038 138.427C21.6571 138.427 25.0088 136.938 27.7589 133.958C30.509 130.979 31.8841 127.341 31.8841 123.044C31.8841 118.403 30.4517 114.221 27.587 110.497C24.7223 106.773 21.1415 104.91 16.8444 104.91C13.3495 104.91 9.76862 106.286 6.10181 109.036ZM53.9709 100.613L60.5024 101.043C62.1067 108.148 65.4011 118.203 70.3856 131.208C75.3702 144.157 78.6646 153.84 80.2688 160.256C80.2688 161.918 79.9824 163.15 79.4094 163.952C78.8365 164.811 78.1203 165.241 77.2609 165.241C76.5161 165.241 75.7999 164.926 75.1124 164.296C74.4822 163.723 74.0525 162.892 73.8233 161.803C73.3076 159.282 71.6461 154.241 68.8387 146.678C57.0361 145.188 49.6166 144.271 46.58 143.928C45.8352 145.99 44.9185 149.342 43.8299 153.983C42.7413 158.624 41.8819 161.832 41.2517 163.608C40.3922 164.639 39.4182 165.155 38.3297 165.155C37.1265 165.155 36.0952 164.611 35.2358 163.522C34.3764 162.491 33.9467 161.202 33.9467 159.655C35.7801 152.951 39.1031 143.097 43.9158 130.091C48.7285 117.085 52.0802 107.26 53.9709 100.613ZM56.9788 109.293C55.833 116.226 52.6532 126.396 47.4394 139.802H57.0648C61.4191 139.802 65.0573 139.946 67.9793 140.232C62.078 127.57 58.4112 117.257 56.9788 109.293ZM119.114 106.2L115.677 110.153C111.208 106.83 106.796 105.168 102.442 105.168C99.5769 105.168 97.1133 105.856 95.0507 107.231C92.9881 108.606 91.4125 110.267 90.3239 112.215C89.2926 114.163 88.4619 116.627 87.8316 119.606C87.2587 122.586 86.8863 125.164 86.7144 127.341C86.5998 129.518 86.5425 132.068 86.5425 134.99C86.5425 137.854 87.0582 141.12 88.0895 144.787C89.1781 148.397 90.9828 151.777 93.5038 154.928C96.0247 158.079 98.9467 159.655 102.27 159.655C105.879 159.655 111.408 157.764 118.856 153.983C119.601 155.071 120.575 156.876 121.778 159.397C114.559 164.382 108.114 166.874 102.442 166.874C98.7748 166.874 95.4231 165.757 92.3865 163.522C89.3499 161.288 86.9436 158.452 85.1675 155.014C83.4487 151.576 82.1023 147.996 81.1283 144.271C80.2116 140.49 79.7532 136.909 79.7532 133.529C79.7532 129.805 80.0397 126.195 80.6126 122.7C81.1855 119.148 82.1595 115.596 83.5346 112.044C84.9097 108.491 86.9722 105.627 89.7223 103.449C92.5298 101.272 95.8528 100.184 99.6915 100.184C103.015 100.184 106.452 100.757 110.004 101.903C113.557 103.048 116.593 104.481 119.114 106.2ZM127.45 100.098H157.616C158.647 108.176 159.277 119.406 159.506 133.787C159.793 148.11 160.079 157.592 160.366 162.233C159.85 164.009 158.848 164.897 157.358 164.897C156.327 164.897 155.324 164.468 154.35 163.608C153.433 162.749 152.86 161.717 152.631 160.514C152.631 155.873 152.488 146.449 152.201 132.24C151.915 117.973 151.772 109.293 151.772 106.2C150.511 106.2 148.449 106.286 145.584 106.457C142.777 106.629 140.513 106.715 138.795 106.715C136.045 106.715 133.925 106.658 132.435 106.543C132.435 106.715 132.636 115.109 133.037 131.724C133.495 148.339 133.781 158.509 133.896 162.233C133.38 164.009 132.378 164.897 130.888 164.897C129.857 164.897 128.854 164.468 127.88 163.608C126.963 162.749 126.39 161.717 126.161 160.514C126.333 155.587 126.476 146.019 126.591 131.81C126.763 117.601 127.049 107.03 127.45 100.098ZM167.499 134.13C167.499 132.182 167.499 130.721 167.499 129.747C167.499 128.716 167.528 127.169 167.585 125.107C167.699 123.044 167.814 121.411 167.929 120.208C168.1 119.005 168.33 117.458 168.616 115.567C168.903 113.619 169.275 112.072 169.733 110.926C170.192 109.723 170.707 108.377 171.28 106.887C171.911 105.397 172.684 104.194 173.601 103.278C174.517 102.361 175.52 101.501 176.609 100.699C177.697 99.8399 178.986 99.2097 180.476 98.8087C181.966 98.4076 183.599 98.2071 185.375 98.2071C188.927 98.2071 192.021 98.9232 194.656 100.356C197.292 101.731 199.354 103.478 200.844 105.598C202.334 107.718 203.508 110.325 204.368 113.419C205.284 116.512 205.857 119.463 206.086 122.271C206.373 125.078 206.516 128.172 206.516 131.552C206.516 133.844 206.459 135.906 206.344 137.74C206.287 139.573 206.115 141.665 205.829 144.014C205.599 146.305 205.227 148.339 204.711 150.115C204.253 151.892 203.594 153.696 202.735 155.53C201.875 157.306 200.844 158.795 199.641 159.999C198.495 161.144 197.034 162.09 195.258 162.835C193.482 163.579 191.505 163.952 189.328 163.952C185.776 163.952 182.71 163.522 180.132 162.663C177.611 161.803 175.52 160.6 173.859 159.053C172.254 157.506 170.965 155.472 169.991 152.951C169.074 150.431 168.416 147.68 168.015 144.701C167.671 141.722 167.499 138.198 167.499 134.13ZM200.328 134.818C200.328 132.011 200.099 129.089 199.641 126.052C199.24 123.015 198.524 119.75 197.492 116.255C196.518 112.76 194.943 109.924 192.766 107.747C190.588 105.512 187.982 104.395 184.945 104.395C182.653 104.395 180.619 105.942 178.843 109.036C177.124 112.072 175.892 115.51 175.148 119.349C174.403 123.13 174.03 126.711 174.03 130.091C174.03 132.44 174.03 134.245 174.03 135.505C174.088 136.709 174.202 138.456 174.374 140.748C174.546 142.982 174.775 144.758 175.062 146.076C175.405 147.394 175.921 148.912 176.609 150.631C177.296 152.35 178.098 153.696 179.015 154.67C179.989 155.587 181.221 156.418 182.71 157.163C184.257 157.85 185.976 158.222 187.867 158.28C192.049 158.051 195.172 155.702 197.234 151.233C199.297 146.764 200.328 141.292 200.328 134.818ZM214.938 109.122L212.274 106.286C218.405 102.218 223.991 100.184 229.033 100.184C233.387 100.184 236.911 101.759 239.603 104.91C242.296 108.004 243.643 111.843 243.643 116.427C243.643 122.156 241.695 126.195 237.799 128.544C240.663 129.003 242.812 130.721 244.244 133.701C245.677 136.623 246.393 140.118 246.393 144.185C246.393 150.373 245.075 155.157 242.439 158.538C239.804 161.918 235.421 163.608 229.29 163.608C225.165 163.608 221.269 162.691 217.602 160.858C213.993 159.025 211.443 156.389 209.954 152.951C210.24 152.722 210.441 152.493 210.555 152.264C210.67 152.035 210.756 151.863 210.813 151.748C210.87 151.634 211.014 151.49 211.243 151.319C211.529 151.089 211.959 150.832 212.532 150.545C215.053 152.837 217.86 154.699 220.954 156.131C224.048 157.506 226.97 158.194 229.72 158.194C232.814 158.194 235.278 157.191 237.111 155.186C239.002 153.123 239.947 149.972 239.947 145.732C239.947 141.378 238.715 137.854 236.252 135.162C233.788 132.469 230.15 131.122 225.337 131.122C224.65 131.122 223.446 131.18 221.728 131.294C221.67 130.951 221.527 130.32 221.298 129.404C221.126 128.487 220.897 127.026 220.61 125.021C221.241 124.963 222.387 124.906 224.048 124.849C225.71 124.734 226.884 124.648 227.572 124.591C228.259 124.476 229.233 124.304 230.494 124.075C231.811 123.789 232.757 123.416 233.33 122.958C233.96 122.5 234.619 121.927 235.306 121.239C236.051 120.494 236.567 119.549 236.853 118.403C237.14 117.257 237.283 115.911 237.283 114.364C237.283 111.557 236.338 109.523 234.447 108.262C232.613 106.944 230.15 106.286 227.056 106.286C222.931 106.286 218.892 107.231 214.938 109.122ZM279.824 101.129L284.808 100.098C285.84 108.176 286.47 119.406 286.699 133.787C286.985 148.11 287.272 157.592 287.558 162.233C287.043 164.009 286.04 164.897 284.55 164.897C283.519 164.897 282.517 164.468 281.543 163.608C280.626 162.749 280.053 161.717 279.824 160.514C279.881 158.452 279.91 155.014 279.91 150.201V133.271C278.649 133.328 276.873 133.472 274.581 133.701C272.347 133.873 270.284 134.016 268.394 134.13C266.56 134.245 264.813 134.302 263.151 134.302C261.662 134.302 260.573 134.274 259.885 134.216C260 137.711 260.201 142.667 260.487 149.084C260.773 155.444 260.974 159.827 261.089 162.233C260.573 164.009 259.57 164.897 258.081 164.897C257.049 164.897 256.047 164.468 255.073 163.608C254.156 162.749 253.583 161.717 253.354 160.514C253.526 155.587 253.669 146.019 253.784 131.81C253.956 117.601 254.242 107.03 254.643 100.098L258.51 100.957C258.51 101.129 258.51 101.416 258.51 101.817C258.568 102.16 258.596 102.447 258.596 102.676C259.341 116.77 259.771 125.594 259.885 129.146C261.833 128.974 263.896 128.802 266.073 128.63C268.308 128.401 270.743 128.172 273.378 127.943C276.071 127.656 278.162 127.456 279.652 127.341C279.709 127.341 279.738 127.055 279.738 126.482C279.738 125.909 279.738 123.588 279.738 119.52C279.795 115.453 279.824 109.322 279.824 101.129ZM294.692 134.13C294.692 132.182 294.692 130.721 294.692 129.747C294.692 128.716 294.72 127.169 294.777 125.107C294.892 123.044 295.007 121.411 295.121 120.208C295.293 119.005 295.522 117.458 295.809 115.567C296.095 113.619 296.468 112.072 296.926 110.926C297.384 109.723 297.9 108.377 298.473 106.887C299.103 105.397 299.877 104.194 300.793 103.278C301.71 102.361 302.713 101.501 303.801 100.699C304.89 99.8399 306.179 99.2097 307.669 98.8087C309.158 98.4076 310.791 98.2071 312.567 98.2071C316.119 98.2071 319.213 98.9232 321.849 100.356C324.484 101.731 326.547 103.478 328.037 105.598C329.526 107.718 330.701 110.325 331.56 113.419C332.477 116.512 333.05 119.463 333.279 122.271C333.565 125.078 333.709 128.172 333.709 131.552C333.709 133.844 333.651 135.906 333.537 137.74C333.48 139.573 333.308 141.665 333.021 144.014C332.792 146.305 332.42 148.339 331.904 150.115C331.446 151.892 330.787 153.696 329.927 155.53C329.068 157.306 328.037 158.795 326.833 159.999C325.688 161.144 324.227 162.09 322.45 162.835C320.674 163.579 318.698 163.952 316.521 163.952C312.968 163.952 309.903 163.522 307.325 162.663C304.804 161.803 302.713 160.6 301.051 159.053C299.447 157.506 298.158 155.472 297.184 152.951C296.267 150.431 295.608 147.68 295.207 144.701C294.863 141.722 294.692 138.198 294.692 134.13ZM327.521 134.818C327.521 132.011 327.292 129.089 326.833 126.052C326.432 123.015 325.716 119.75 324.685 116.255C323.711 112.76 322.135 109.924 319.958 107.747C317.781 105.512 315.174 104.395 312.138 104.395C309.846 104.395 307.812 105.942 306.036 109.036C304.317 112.072 303.085 115.51 302.34 119.349C301.595 123.13 301.223 126.711 301.223 130.091C301.223 132.44 301.223 134.245 301.223 135.505C301.28 136.709 301.395 138.456 301.567 140.748C301.739 142.982 301.968 144.758 302.254 146.076C302.598 147.394 303.114 148.912 303.801 150.631C304.489 152.35 305.291 153.696 306.208 154.67C307.182 155.587 308.413 156.418 309.903 157.163C311.45 157.85 313.169 158.222 315.06 158.28C319.242 158.051 322.364 155.702 324.427 151.233C326.49 146.764 327.521 141.292 327.521 134.818ZM340.67 160.686L341.1 100.184C341.73 98.0638 344.193 97.0039 348.491 97.0039C352.444 97.0039 356.082 97.5482 359.405 98.6368C362.728 99.6681 365.507 101.444 367.741 103.965C370.033 106.429 371.179 109.408 371.179 112.903C371.179 115.653 370.491 118.317 369.116 120.895C367.799 123.474 366.166 125.135 364.218 125.88C367.885 126.396 370.835 128.602 373.07 132.498C375.304 136.393 376.421 141.006 376.421 146.334C376.421 149.944 374.989 153.095 372.124 155.788C369.26 158.423 365.908 160.342 362.069 161.546C358.288 162.691 354.449 163.264 350.553 163.264C345.798 163.264 342.503 162.405 340.67 160.686ZM347.717 130.607C347.717 134.56 347.66 142.495 347.545 154.412C349.264 156.36 351.47 157.334 354.163 157.334C357.715 157.334 361.153 155.873 364.476 152.951C367.799 149.972 369.46 146.792 369.46 143.412C369.46 139.23 368.056 135.964 365.249 133.615C362.442 131.266 358.832 130.091 354.42 130.091C351.498 130.091 349.264 130.263 347.717 130.607ZM347.545 124.247L352.874 124.161C356.54 124.161 359.348 123.101 361.296 120.981C363.301 118.804 364.304 116.226 364.304 113.247C364.304 110.21 363.301 107.603 361.296 105.426C359.29 103.192 356.512 102.074 352.959 102.074C351.355 102.074 349.465 102.418 347.287 103.106C347.402 106.601 347.459 110.926 347.459 116.083C347.517 121.239 347.545 123.961 347.545 124.247ZM399.883 100.613L406.415 101.043C408.019 108.148 411.313 118.203 416.298 131.208C421.283 144.157 424.577 153.84 426.181 160.256C426.181 161.918 425.895 163.15 425.322 163.952C424.749 164.811 424.033 165.241 423.173 165.241C422.428 165.241 421.712 164.926 421.025 164.296C420.394 163.723 419.965 162.892 419.736 161.803C419.22 159.282 417.558 154.241 414.751 146.678C402.948 145.188 395.529 144.271 392.492 143.928C391.747 145.99 390.831 149.342 389.742 153.983C388.654 158.624 387.794 161.832 387.164 163.608C386.305 164.639 385.331 165.155 384.242 165.155C383.039 165.155 382.008 164.611 381.148 163.522C380.289 162.491 379.859 161.202 379.859 159.655C381.692 152.951 385.015 143.097 389.828 130.091C394.641 117.085 397.993 107.26 399.883 100.613ZM402.891 109.293C401.745 116.226 398.565 126.396 393.352 139.802H402.977C407.331 139.802 410.97 139.946 413.892 140.232C407.99 127.57 404.324 117.257 402.891 109.293ZM456.089 101.129L461.073 100.098C462.104 108.176 462.735 119.406 462.964 133.787C463.25 148.11 463.537 157.592 463.823 162.233C463.308 164.009 462.305 164.897 460.815 164.897C459.784 164.897 458.781 164.468 457.807 163.608C456.891 162.749 456.318 161.717 456.089 160.514C456.146 158.452 456.175 155.014 456.175 150.201V133.271C454.914 133.328 453.138 133.472 450.846 133.701C448.612 133.873 446.549 134.016 444.658 134.13C442.825 134.245 441.078 134.302 439.416 134.302C437.926 134.302 436.838 134.274 436.15 134.216C436.265 137.711 436.465 142.667 436.752 149.084C437.038 155.444 437.239 159.827 437.353 162.233C436.838 164.009 435.835 164.897 434.346 164.897C433.314 164.897 432.312 164.468 431.338 163.608C430.421 162.749 429.848 161.717 429.619 160.514C429.791 155.587 429.934 146.019 430.049 131.81C430.22 117.601 430.507 107.03 430.908 100.098L434.775 100.957C434.775 101.129 434.775 101.416 434.775 101.817C434.833 102.16 434.861 102.447 434.861 102.676C435.606 116.77 436.036 125.594 436.15 129.146C438.098 128.974 440.161 128.802 442.338 128.63C444.573 128.401 447.008 128.172 449.643 127.943C452.336 127.656 454.427 127.456 455.917 127.341C455.974 127.341 456.003 127.055 456.003 126.482C456.003 125.909 456.003 123.588 456.003 119.52C456.06 115.453 456.089 109.322 456.089 101.129ZM472.16 99.9259L476.027 100.785C476.6 110.239 477.259 125.966 478.004 147.967C489.176 128.086 496.853 112.101 501.036 100.012C501.895 99.3243 502.726 98.9805 503.528 98.9805C504.788 98.9805 505.82 99.7254 506.622 101.215C507.481 102.705 507.94 104.395 507.997 106.286C508.169 111.614 508.312 120.609 508.427 133.271C508.599 145.933 508.828 155.386 509.114 161.631C508.599 163.35 507.625 164.21 506.192 164.21C505.161 164.21 504.158 163.78 503.184 162.921C502.21 162.118 501.609 161.116 501.379 159.913C501.551 154.928 501.637 147.279 501.637 136.966C501.695 126.654 501.752 119.692 501.809 116.083C500.549 118.26 498.343 122.385 495.192 128.458C492.041 134.531 489.119 139.745 486.426 144.1C483.79 148.454 481.069 152.235 478.261 155.444L478.605 162.405C478.089 164.181 477.087 165.069 475.597 165.069C474.566 165.069 473.563 164.639 472.589 163.78C471.673 162.921 471.1 161.889 470.87 160.686C471.042 155.816 471.214 146.277 471.386 132.068C471.558 117.859 471.816 107.145 472.16 99.9259ZM548.905 159.053L549.764 162.921C547.53 162.921 543.462 163.007 537.561 163.178C531.717 163.408 527.477 163.522 524.841 163.522C520.602 163.522 517.708 163.322 516.161 162.921C516.734 156.618 517.078 146.076 517.193 131.294C517.307 116.512 517.68 106.2 518.31 100.356C520.258 100.527 525.414 100.671 533.779 100.785C542.201 100.9 547.702 101.158 550.28 101.559L551.225 105.426C548.647 105.884 543.491 106.429 535.756 107.059C528.021 107.689 523.953 108.033 523.552 108.09C523.61 109.408 523.724 112.101 523.896 116.169C524.125 120.237 524.268 123.588 524.326 126.224C526.274 126.453 529.826 126.797 534.982 127.255C540.139 127.656 543.405 127.914 544.78 128.029L545.639 131.982C533.55 133.07 526.474 133.643 524.412 133.701C524.412 136.222 524.354 140.06 524.24 145.217C524.182 150.316 524.154 154.069 524.154 156.475C537.274 157.678 545.524 158.538 548.905 159.053ZM638.971 162.921L632.439 163.522C629.288 143.756 625.879 126.825 622.212 112.731C620.322 117.2 618.231 123.502 615.939 131.638C613.704 139.717 612.157 144.959 611.298 147.365C611.183 147.365 610.983 147.394 610.696 147.451C610.467 147.451 610.267 147.451 610.095 147.451C609.293 147.451 607.975 147.365 606.142 147.193C604.308 147.022 603.134 146.936 602.618 146.936C602.561 145.274 601.1 139.745 598.235 130.349C595.37 120.895 593.651 114.851 593.078 112.215C592.047 121.497 588.037 138.399 581.047 162.921L575.718 162.405C576.521 156.16 578.497 146.334 581.648 132.927C584.8 119.52 586.662 109.15 587.234 101.817C588.266 101.702 589.097 101.645 589.727 101.645C590.3 101.645 592.42 101.874 596.086 102.332C596.889 102.447 598.034 105.054 599.524 110.153C601.071 115.195 602.618 120.752 604.165 126.825C605.712 132.899 606.686 136.479 607.087 137.568C608.691 133.615 610.61 127.198 612.845 118.317C615.137 109.437 616.741 103.793 617.658 101.387C618.574 101.444 621.468 101.702 626.338 102.16C627.827 107.947 629.26 114.192 630.635 120.895C632.067 127.599 633.585 135.219 635.19 143.756C636.851 152.293 638.112 158.681 638.971 162.921ZM675.238 159.053L676.097 162.921C673.863 162.921 669.795 163.007 663.894 163.178C658.05 163.408 653.81 163.522 651.175 163.522C646.935 163.522 644.041 163.322 642.495 162.921C643.067 156.618 643.411 146.076 643.526 131.294C643.64 116.512 644.013 106.2 644.643 100.356C646.591 100.527 651.748 100.671 660.112 100.785C668.535 100.9 674.035 101.158 676.613 101.559L677.558 105.426C674.98 105.884 669.824 106.429 662.089 107.059C654.354 107.689 650.287 108.033 649.885 108.09C649.943 109.408 650.057 112.101 650.229 116.169C650.458 120.237 650.602 123.588 650.659 126.224C652.607 126.453 656.159 126.797 661.316 127.255C666.472 127.656 669.738 127.914 671.113 128.029L671.972 131.982C659.883 133.07 652.807 133.643 650.745 133.701C650.745 136.222 650.688 140.06 650.573 145.217C650.516 150.316 650.487 154.069 650.487 156.475C663.607 157.678 671.858 158.538 675.238 159.053ZM714.771 106.2L711.333 110.153C706.864 106.83 702.453 105.168 698.098 105.168C695.234 105.168 692.77 105.856 690.707 107.231C688.645 108.606 687.069 110.267 685.981 112.215C684.949 114.163 684.119 116.627 683.488 119.606C682.915 122.586 682.543 125.164 682.371 127.341C682.257 129.518 682.199 132.068 682.199 134.99C682.199 137.854 682.715 141.12 683.746 144.787C684.835 148.397 686.64 151.777 689.16 154.928C691.681 158.079 694.603 159.655 697.926 159.655C701.536 159.655 707.065 157.764 714.513 153.983C715.258 155.071 716.232 156.876 717.435 159.397C710.216 164.382 703.77 166.874 698.098 166.874C694.432 166.874 691.08 165.757 688.043 163.522C685.007 161.288 682.6 158.452 680.824 155.014C679.105 151.576 677.759 147.996 676.785 144.271C675.868 140.49 675.41 136.909 675.41 133.529C675.41 129.805 675.696 126.195 676.269 122.7C676.842 119.148 677.816 115.596 679.191 112.044C680.566 108.491 682.629 105.627 685.379 103.449C688.186 101.272 691.51 100.184 695.348 100.184C698.671 100.184 702.109 100.757 705.661 101.903C709.213 103.048 712.25 104.481 714.771 106.2ZM719.154 105.254L718.294 101.387L751.124 99.4962C752.556 99.5535 753.759 100.069 754.733 101.043C755.707 102.017 756.194 103.077 756.194 104.223C756.194 104.968 755.908 105.627 755.335 106.2C754.762 106.773 753.903 107.116 752.757 107.231L738.319 106.457C739.751 126.682 740.811 145.074 741.499 161.631C740.983 163.35 740.009 164.21 738.577 164.21C737.545 164.21 736.543 163.78 735.569 162.921C734.595 162.118 733.993 161.116 733.764 159.913C733.878 156.819 733.936 152.121 733.936 145.818C733.936 143.469 733.907 139.946 733.85 135.248C733.85 130.55 733.85 127.026 733.85 124.677C733.85 117.859 733.964 111.7 734.194 106.2C727.719 105.741 722.706 105.426 719.154 105.254ZM786.188 101.129L791.172 100.098C792.204 108.176 792.834 119.406 793.063 133.787C793.35 148.11 793.636 157.592 793.922 162.233C793.407 164.009 792.404 164.897 790.915 164.897C789.883 164.897 788.881 164.468 787.907 163.608C786.99 162.749 786.417 161.717 786.188 160.514C786.245 158.452 786.274 155.014 786.274 150.201V133.271C785.013 133.328 783.237 133.472 780.945 133.701C778.711 133.873 776.648 134.016 774.758 134.13C772.924 134.245 771.177 134.302 769.515 134.302C768.026 134.302 766.937 134.274 766.249 134.216C766.364 137.711 766.565 142.667 766.851 149.084C767.138 155.444 767.338 159.827 767.453 162.233C766.937 164.009 765.934 164.897 764.445 164.897C763.413 164.897 762.411 164.468 761.437 163.608C760.52 162.749 759.947 161.717 759.718 160.514C759.89 155.587 760.033 146.019 760.148 131.81C760.32 117.601 760.606 107.03 761.007 100.098L764.874 100.957C764.874 101.129 764.874 101.416 764.874 101.817C764.932 102.16 764.96 102.447 764.96 102.676C765.705 116.77 766.135 125.594 766.249 129.146C768.197 128.974 770.26 128.802 772.437 128.63C774.672 128.401 777.107 128.172 779.742 127.943C782.435 127.656 784.526 127.456 786.016 127.341C786.073 127.341 786.102 127.055 786.102 126.482C786.102 125.909 786.102 123.588 786.102 119.52C786.159 115.453 786.188 109.322 786.188 101.129ZM801.056 134.13C801.056 132.182 801.056 130.721 801.056 129.747C801.056 128.716 801.084 127.169 801.142 125.107C801.256 123.044 801.371 121.411 801.485 120.208C801.657 119.005 801.886 117.458 802.173 115.567C802.459 113.619 802.832 112.072 803.29 110.926C803.748 109.723 804.264 108.377 804.837 106.887C805.467 105.397 806.241 104.194 807.157 103.278C808.074 102.361 809.077 101.501 810.165 100.699C811.254 99.8399 812.543 99.2097 814.033 98.8087C815.522 98.4076 817.155 98.2071 818.931 98.2071C822.484 98.2071 825.577 98.9232 828.213 100.356C830.848 101.731 832.911 103.478 834.401 105.598C835.89 107.718 837.065 110.325 837.924 113.419C838.841 116.512 839.414 119.463 839.643 122.271C839.93 125.078 840.073 128.172 840.073 131.552C840.073 133.844 840.015 135.906 839.901 137.74C839.844 139.573 839.672 141.665 839.385 144.014C839.156 146.305 838.784 148.339 838.268 150.115C837.81 151.892 837.151 153.696 836.291 155.53C835.432 157.306 834.401 158.795 833.197 159.999C832.052 161.144 830.591 162.09 828.815 162.835C827.038 163.579 825.062 163.952 822.885 163.952C819.332 163.952 816.267 163.522 813.689 162.663C811.168 161.803 809.077 160.6 807.415 159.053C805.811 157.506 804.522 155.472 803.548 152.951C802.631 150.431 801.972 147.68 801.571 144.701C801.227 141.722 801.056 138.198 801.056 134.13ZM833.885 134.818C833.885 132.011 833.656 129.089 833.197 126.052C832.796 123.015 832.08 119.75 831.049 116.255C830.075 112.76 828.499 109.924 826.322 107.747C824.145 105.512 821.538 104.395 818.502 104.395C816.21 104.395 814.176 105.942 812.4 109.036C810.681 112.072 809.449 115.51 808.704 119.349C807.96 123.13 807.587 126.711 807.587 130.091C807.587 132.44 807.587 134.245 807.587 135.505C807.644 136.709 807.759 138.456 807.931 140.748C808.103 142.982 808.332 144.758 808.618 146.076C808.962 147.394 809.478 148.912 810.165 150.631C810.853 152.35 811.655 153.696 812.572 154.67C813.546 155.587 814.777 156.418 816.267 157.163C817.814 157.85 819.533 158.222 821.424 158.28C825.606 158.051 828.729 155.702 830.791 151.233C832.854 146.764 833.885 141.292 833.885 134.818ZM886.395 106.2L882.957 110.153C878.488 106.83 874.077 105.168 869.722 105.168C866.858 105.168 864.394 105.856 862.331 107.231C860.269 108.606 858.693 110.267 857.605 112.215C856.573 114.163 855.743 116.627 855.112 119.606C854.539 122.586 854.167 125.164 853.995 127.341C853.881 129.518 853.823 132.068 853.823 134.99C853.823 137.854 854.339 141.12 855.37 144.787C856.459 148.397 858.264 151.777 860.785 154.928C863.305 158.079 866.227 159.655 869.551 159.655C873.16 159.655 878.689 157.764 886.137 153.983C886.882 155.071 887.856 156.876 889.059 159.397C881.84 164.382 875.394 166.874 869.722 166.874C866.056 166.874 862.704 165.757 859.667 163.522C856.631 161.288 854.224 158.452 852.448 155.014C850.729 151.576 849.383 147.996 848.409 144.271C847.492 140.49 847.034 136.909 847.034 133.529C847.034 129.805 847.32 126.195 847.893 122.7C848.466 119.148 849.44 115.596 850.815 112.044C852.19 108.491 854.253 105.627 857.003 103.449C859.811 101.272 863.134 100.184 866.972 100.184C870.295 100.184 873.733 100.757 877.285 101.903C880.837 103.048 883.874 104.481 886.395 106.2ZM890.778 105.254L889.919 101.387L922.748 99.4962C924.18 99.5535 925.383 100.069 926.357 101.043C927.331 102.017 927.818 103.077 927.818 104.223C927.818 104.968 927.532 105.627 926.959 106.2C926.386 106.773 925.527 107.116 924.381 107.231L909.943 106.457C911.375 126.682 912.435 145.074 913.123 161.631C912.607 163.35 911.633 164.21 910.201 164.21C909.169 164.21 908.167 163.78 907.193 162.921C906.219 162.118 905.617 161.116 905.388 159.913C905.502 156.819 905.56 152.121 905.56 145.818C905.56 143.469 905.531 139.946 905.474 135.248C905.474 130.55 905.474 127.026 905.474 124.677C905.474 117.859 905.588 111.7 905.818 106.2C899.343 105.741 894.33 105.426 890.778 105.254ZM932.631 99.9259L936.499 100.785C937.071 110.239 937.73 125.966 938.475 147.967C949.647 128.086 957.325 112.101 961.507 100.012C962.367 99.3243 963.198 98.9805 964 98.9805C965.26 98.9805 966.291 99.7254 967.093 101.215C967.953 102.705 968.411 104.395 968.469 106.286C968.64 111.614 968.784 120.609 968.898 133.271C969.07 145.933 969.299 155.386 969.586 161.631C969.07 163.35 968.096 164.21 966.664 164.21C965.632 164.21 964.63 163.78 963.656 162.921C962.682 162.118 962.08 161.116 961.851 159.913C962.023 154.928 962.109 147.279 962.109 136.966C962.166 126.654 962.224 119.692 962.281 116.083C961.02 118.26 958.815 122.385 955.663 128.458C952.512 134.531 949.59 139.745 946.897 144.1C944.262 148.454 941.54 152.235 938.733 155.444L939.077 162.405C938.561 164.181 937.558 165.069 936.069 165.069C935.038 165.069 934.035 164.639 933.061 163.78C932.144 162.921 931.571 161.889 931.342 160.686C931.514 155.816 931.686 146.277 931.858 132.068C932.03 117.859 932.287 107.145 932.631 99.9259ZM69.5692 1298.18C69.5692 1296.23 69.5692 1294.77 69.5692 1293.79C69.5692 1292.76 69.5978 1291.22 69.6551 1289.15C69.7697 1287.09 69.8843 1285.46 69.9989 1284.25C70.1708 1283.05 70.4 1281.5 70.6864 1279.61C70.9729 1277.67 71.3453 1276.12 71.8037 1274.97C72.262 1273.77 72.7777 1272.42 73.3506 1270.93C73.9808 1269.44 74.7543 1268.24 75.671 1267.32C76.5877 1266.41 77.5904 1265.55 78.6789 1264.75C79.7675 1263.89 81.0566 1263.26 82.5463 1262.86C84.0359 1262.45 85.6688 1262.25 87.4449 1262.25C90.9971 1262.25 94.091 1262.97 96.7265 1264.4C99.3621 1265.78 101.425 1267.52 102.914 1269.64C104.404 1271.76 105.578 1274.37 106.438 1277.47C107.355 1280.56 107.928 1283.51 108.157 1286.32C108.443 1289.12 108.586 1292.22 108.586 1295.6C108.586 1297.89 108.529 1299.95 108.415 1301.79C108.357 1303.62 108.185 1305.71 107.899 1308.06C107.67 1310.35 107.297 1312.39 106.782 1314.16C106.323 1315.94 105.664 1317.74 104.805 1319.58C103.946 1321.35 102.914 1322.84 101.711 1324.05C100.565 1325.19 99.1042 1326.14 97.3281 1326.88C95.552 1327.63 93.5754 1328 91.3982 1328C87.846 1328 84.7807 1327.57 82.2025 1326.71C79.6816 1325.85 77.5904 1324.65 75.9288 1323.1C74.3246 1321.55 73.0355 1319.52 72.0615 1317C71.1448 1314.48 70.4859 1311.73 70.0848 1308.75C69.7411 1305.77 69.5692 1302.24 69.5692 1298.18ZM102.399 1298.86C102.399 1296.06 102.169 1293.14 101.711 1290.1C101.31 1287.06 100.594 1283.8 99.5626 1280.3C98.5886 1276.81 97.013 1273.97 94.8358 1271.79C92.6587 1269.56 90.0518 1268.44 87.0152 1268.44C84.7235 1268.44 82.6895 1269.99 80.9134 1273.08C79.1946 1276.12 77.9628 1279.56 77.2179 1283.4C76.4731 1287.18 76.1007 1290.76 76.1007 1294.14C76.1007 1296.49 76.1007 1298.29 76.1007 1299.55C76.158 1300.76 76.2726 1302.5 76.4445 1304.79C76.6164 1307.03 76.8455 1308.81 77.132 1310.12C77.4758 1311.44 77.9914 1312.96 78.6789 1314.68C79.3665 1316.4 80.1686 1317.74 81.0853 1318.72C82.0593 1319.63 83.2911 1320.46 84.7807 1321.21C86.3277 1321.9 88.0465 1322.27 89.9372 1322.33C94.1197 1322.1 97.2422 1319.75 99.3048 1315.28C101.367 1310.81 102.399 1305.34 102.399 1298.86ZM108.243 1269.3L107.383 1265.43L140.213 1263.54C141.645 1263.6 142.848 1264.12 143.822 1265.09C144.796 1266.06 145.283 1267.12 145.283 1268.27C145.283 1269.01 144.997 1269.67 144.424 1270.25C143.851 1270.82 142.991 1271.16 141.846 1271.28L127.407 1270.5C128.84 1290.73 129.9 1309.12 130.587 1325.68C130.072 1327.4 129.098 1328.26 127.665 1328.26C126.634 1328.26 125.631 1327.83 124.657 1326.97C123.683 1326.17 123.082 1325.16 122.853 1323.96C122.967 1320.87 123.024 1316.17 123.024 1309.87C123.024 1307.52 122.996 1303.99 122.939 1299.29C122.939 1294.6 122.939 1291.07 122.939 1288.72C122.939 1281.91 123.053 1275.75 123.282 1270.25C116.808 1269.79 111.795 1269.47 108.243 1269.3ZM145.799 1298.18C145.799 1296.23 145.799 1294.77 145.799 1293.79C145.799 1292.76 145.827 1291.22 145.885 1289.15C145.999 1287.09 146.114 1285.46 146.229 1284.25C146.4 1283.05 146.63 1281.5 146.916 1279.61C147.203 1277.67 147.575 1276.12 148.033 1274.97C148.492 1273.77 149.007 1272.42 149.58 1270.93C150.21 1269.44 150.984 1268.24 151.901 1267.32C152.817 1266.41 153.82 1265.55 154.909 1264.75C155.997 1263.89 157.286 1263.26 158.776 1262.86C160.266 1262.45 161.898 1262.25 163.675 1262.25C167.227 1262.25 170.321 1262.97 172.956 1264.4C175.592 1265.78 177.654 1267.52 179.144 1269.64C180.634 1271.76 181.808 1274.37 182.667 1277.47C183.584 1280.56 184.157 1283.51 184.386 1286.32C184.673 1289.12 184.816 1292.22 184.816 1295.6C184.816 1297.89 184.759 1299.95 184.644 1301.79C184.587 1303.62 184.415 1305.71 184.128 1308.06C183.899 1310.35 183.527 1312.39 183.011 1314.16C182.553 1315.94 181.894 1317.74 181.035 1319.58C180.175 1321.35 179.144 1322.84 177.941 1324.05C176.795 1325.19 175.334 1326.14 173.558 1326.88C171.782 1327.63 169.805 1328 167.628 1328C164.076 1328 161.01 1327.57 158.432 1326.71C155.911 1325.85 153.82 1324.65 152.158 1323.1C150.554 1321.55 149.265 1319.52 148.291 1317C147.374 1314.48 146.716 1311.73 146.314 1308.75C145.971 1305.77 145.799 1302.24 145.799 1298.18ZM178.628 1298.86C178.628 1296.06 178.399 1293.14 177.941 1290.1C177.54 1287.06 176.824 1283.8 175.792 1280.3C174.818 1276.81 173.243 1273.97 171.065 1271.79C168.888 1269.56 166.281 1268.44 163.245 1268.44C160.953 1268.44 158.919 1269.99 157.143 1273.08C155.424 1276.12 154.192 1279.56 153.448 1283.4C152.703 1287.18 152.33 1290.76 152.33 1294.14C152.33 1296.49 152.33 1298.29 152.33 1299.55C152.388 1300.76 152.502 1302.5 152.674 1304.79C152.846 1307.03 153.075 1308.81 153.362 1310.12C153.705 1311.44 154.221 1312.96 154.909 1314.68C155.596 1316.4 156.398 1317.74 157.315 1318.72C158.289 1319.63 159.521 1320.46 161.01 1321.21C162.557 1321.9 164.276 1322.27 166.167 1322.33C170.349 1322.1 173.472 1319.75 175.534 1315.28C177.597 1310.81 178.628 1305.34 178.628 1298.86ZM200.973 1257.27L200.371 1254.52C201.746 1254.69 203.093 1254.78 204.411 1254.78C208.364 1254.78 212.002 1253.69 215.325 1251.51C216.643 1251.63 217.76 1252.03 218.677 1252.71C219.651 1253.4 220.138 1254.2 220.138 1255.12C220.138 1257.24 217.302 1258.3 211.63 1258.3C207.676 1258.3 204.124 1257.96 200.973 1257.27ZM193.066 1263.97L196.934 1264.83C197.507 1274.29 198.166 1290.01 198.91 1312.01C210.083 1292.13 217.76 1276.15 221.942 1264.06C222.802 1263.37 223.633 1263.03 224.435 1263.03C225.695 1263.03 226.727 1263.77 227.529 1265.26C228.388 1266.75 228.846 1268.44 228.904 1270.33C229.076 1275.66 229.219 1284.66 229.333 1297.32C229.505 1309.98 229.734 1319.43 230.021 1325.68C229.505 1327.4 228.531 1328.26 227.099 1328.26C226.068 1328.26 225.065 1327.83 224.091 1326.97C223.117 1326.17 222.515 1325.16 222.286 1323.96C222.458 1318.97 222.544 1311.33 222.544 1301.01C222.601 1290.7 222.659 1283.74 222.716 1280.13C221.456 1282.31 219.25 1286.43 216.099 1292.5C212.947 1298.58 210.025 1303.79 207.333 1308.15C204.697 1312.5 201.976 1316.28 199.168 1319.49L199.512 1326.45C198.996 1328.23 197.994 1329.12 196.504 1329.12C195.473 1329.12 194.47 1328.69 193.496 1327.83C192.579 1326.97 192.006 1325.94 191.777 1324.73C191.949 1319.86 192.121 1310.32 192.293 1296.11C192.465 1281.91 192.723 1271.19 193.066 1263.97ZM279.867 1337.97L275.999 1337.11C275.484 1332.75 274.596 1329.2 273.335 1326.45C268.58 1326.11 263.824 1325.94 259.069 1325.94C255.001 1325.94 248.957 1326.11 240.935 1326.45C240.592 1327.65 239.933 1331.84 238.959 1339L235.263 1338.66C234.117 1332.52 233.545 1327.25 233.545 1322.84C233.545 1322.61 233.545 1322.21 233.545 1321.64C233.602 1321.07 233.63 1320.64 233.63 1320.35C233.688 1320.35 234.633 1320.35 236.467 1320.35C238.3 1320.29 239.245 1320.26 239.303 1320.26C240.792 1317.23 241.995 1313.96 242.912 1310.47C243.886 1306.91 244.545 1303.13 244.889 1299.12C245.232 1295.05 245.462 1291.5 245.576 1288.47C245.691 1285.37 245.748 1281.45 245.748 1276.69C245.748 1271.94 245.777 1268.38 245.834 1266.04C249.845 1265.75 258.783 1265.61 272.648 1265.61L274.538 1319.49C275.455 1319.61 276.4 1319.69 277.374 1319.75C278.348 1319.81 279.294 1319.86 280.21 1319.92C280.039 1321.12 279.953 1322.61 279.953 1324.39C279.953 1325.31 279.981 1326.74 280.039 1328.69C280.096 1330.69 280.125 1332.18 280.125 1333.16C280.125 1335.1 280.039 1336.71 279.867 1337.97ZM246.178 1319.75C247.725 1319.75 250.045 1319.81 253.139 1319.92C256.233 1319.98 258.525 1320.01 260.014 1320.01C262.192 1320.01 264.455 1319.92 266.804 1319.75C266.918 1316.14 266.976 1310.5 266.976 1302.82V1285.72C266.976 1278.9 267.033 1273.83 267.147 1270.5C265.543 1270.39 264.34 1270.33 263.538 1270.33C262.22 1270.33 260.301 1270.42 257.78 1270.59C255.316 1270.76 253.655 1270.88 252.795 1270.93C252.623 1273.51 252.423 1277.58 252.194 1283.14C251.965 1288.64 251.735 1292.91 251.506 1295.94C251.277 1298.98 250.704 1302.76 249.787 1307.29C248.928 1311.76 247.725 1315.91 246.178 1319.75ZM286.742 1263.97L290.609 1264.83C291.182 1274.29 291.841 1290.01 292.586 1312.01C303.758 1292.13 311.436 1276.15 315.618 1264.06C316.478 1263.37 317.308 1263.03 318.11 1263.03C319.371 1263.03 320.402 1263.77 321.204 1265.26C322.064 1266.75 322.522 1268.44 322.579 1270.33C322.751 1275.66 322.894 1284.66 323.009 1297.32C323.181 1309.98 323.41 1319.43 323.697 1325.68C323.181 1327.4 322.207 1328.26 320.775 1328.26C319.743 1328.26 318.741 1327.83 317.767 1326.97C316.793 1326.17 316.191 1325.16 315.962 1323.96C316.134 1318.97 316.22 1311.33 316.22 1301.01C316.277 1290.7 316.334 1283.74 316.392 1280.13C315.131 1282.31 312.925 1286.43 309.774 1292.5C306.623 1298.58 303.701 1303.79 301.008 1308.15C298.373 1312.5 295.651 1316.28 292.844 1319.49L293.188 1326.45C292.672 1328.23 291.669 1329.12 290.18 1329.12C289.148 1329.12 288.146 1328.69 287.172 1327.83C286.255 1326.97 285.682 1325.94 285.453 1324.73C285.625 1319.86 285.797 1310.32 285.969 1296.11C286.14 1281.91 286.398 1271.19 286.742 1263.97ZM328.08 1269.3L327.22 1265.43L360.05 1263.54C361.482 1263.6 362.685 1264.12 363.659 1265.09C364.633 1266.06 365.12 1267.12 365.12 1268.27C365.12 1269.01 364.834 1269.67 364.261 1270.25C363.688 1270.82 362.828 1271.16 361.682 1271.28L347.244 1270.5C348.677 1290.73 349.737 1309.12 350.424 1325.68C349.909 1327.4 348.935 1328.26 347.502 1328.26C346.471 1328.26 345.468 1327.83 344.494 1326.97C343.52 1326.17 342.919 1325.16 342.69 1323.96C342.804 1320.87 342.861 1316.17 342.861 1309.87C342.861 1307.52 342.833 1303.99 342.775 1299.29C342.775 1294.6 342.775 1291.07 342.775 1288.72C342.775 1281.91 342.89 1275.75 343.119 1270.25C336.645 1269.79 331.632 1269.47 328.08 1269.3ZM401.387 1323.1L402.247 1326.97C400.012 1326.97 395.944 1327.05 390.043 1327.23C384.199 1327.45 379.959 1327.57 377.324 1327.57C373.084 1327.57 370.191 1327.37 368.644 1326.97C369.217 1320.66 369.56 1310.12 369.675 1295.34C369.79 1280.56 370.162 1270.25 370.792 1264.4C372.74 1264.57 377.897 1264.72 386.262 1264.83C394.684 1264.95 400.184 1265.2 402.762 1265.61L403.708 1269.47C401.129 1269.93 395.973 1270.48 388.238 1271.11C380.504 1271.74 376.436 1272.08 376.035 1272.14C376.092 1273.45 376.207 1276.15 376.378 1280.22C376.608 1284.28 376.751 1287.63 376.808 1290.27C378.756 1290.5 382.308 1290.84 387.465 1291.3C392.621 1291.7 395.887 1291.96 397.262 1292.08L398.121 1296.03C386.032 1297.12 378.957 1297.69 376.894 1297.75C376.894 1300.27 376.837 1304.11 376.722 1309.26C376.665 1314.36 376.636 1318.12 376.636 1320.52C389.757 1321.72 398.007 1322.58 401.387 1323.1ZM431.81 1298.18C431.81 1296.23 431.81 1294.77 431.81 1293.79C431.81 1292.76 431.839 1291.22 431.896 1289.15C432.011 1287.09 432.125 1285.46 432.24 1284.25C432.412 1283.05 432.641 1281.5 432.928 1279.61C433.214 1277.67 433.586 1276.12 434.045 1274.97C434.503 1273.77 435.019 1272.42 435.592 1270.93C436.222 1269.44 436.995 1268.24 437.912 1267.32C438.829 1266.41 439.831 1265.55 440.92 1264.75C442.009 1263.89 443.298 1263.26 444.787 1262.86C446.277 1262.45 447.91 1262.25 449.686 1262.25C453.238 1262.25 456.332 1262.97 458.968 1264.4C461.603 1265.78 463.666 1267.52 465.155 1269.64C466.645 1271.76 467.82 1274.37 468.679 1277.47C469.596 1280.56 470.169 1283.51 470.398 1286.32C470.684 1289.12 470.827 1292.22 470.827 1295.6C470.827 1297.89 470.77 1299.95 470.656 1301.79C470.598 1303.62 470.426 1305.71 470.14 1308.06C469.911 1310.35 469.538 1312.39 469.023 1314.16C468.564 1315.94 467.905 1317.74 467.046 1319.58C466.187 1321.35 465.155 1322.84 463.952 1324.05C462.806 1325.19 461.345 1326.14 459.569 1326.88C457.793 1327.63 455.816 1328 453.639 1328C450.087 1328 447.022 1327.57 444.444 1326.71C441.923 1325.85 439.831 1324.65 438.17 1323.1C436.566 1321.55 435.277 1319.52 434.303 1317C433.386 1314.48 432.727 1311.73 432.326 1308.75C431.982 1305.77 431.81 1302.24 431.81 1298.18ZM464.64 1298.86C464.64 1296.06 464.411 1293.14 463.952 1290.1C463.551 1287.06 462.835 1283.8 461.804 1280.3C460.83 1276.81 459.254 1273.97 457.077 1271.79C454.9 1269.56 452.293 1268.44 449.256 1268.44C446.965 1268.44 444.931 1269.99 443.154 1273.08C441.436 1276.12 440.204 1279.56 439.459 1283.4C438.714 1287.18 438.342 1290.76 438.342 1294.14C438.342 1296.49 438.342 1298.29 438.342 1299.55C438.399 1300.76 438.514 1302.5 438.686 1304.79C438.857 1307.03 439.087 1308.81 439.373 1310.12C439.717 1311.44 440.233 1312.96 440.92 1314.68C441.608 1316.4 442.41 1317.74 443.326 1318.72C444.3 1319.63 445.532 1320.46 447.022 1321.21C448.569 1321.9 450.288 1322.27 452.178 1322.33C456.361 1322.1 459.483 1319.75 461.546 1315.28C463.608 1310.81 464.64 1305.34 464.64 1298.86ZM470.484 1269.3L469.624 1265.43L502.454 1263.54C503.886 1263.6 505.089 1264.12 506.063 1265.09C507.037 1266.06 507.524 1267.12 507.524 1268.27C507.524 1269.01 507.238 1269.67 506.665 1270.25C506.092 1270.82 505.233 1271.16 504.087 1271.28L489.649 1270.5C491.081 1290.73 492.141 1309.12 492.828 1325.68C492.313 1327.4 491.339 1328.26 489.906 1328.26C488.875 1328.26 487.872 1327.83 486.898 1326.97C485.924 1326.17 485.323 1325.16 485.094 1323.96C485.208 1320.87 485.266 1316.17 485.266 1309.87C485.266 1307.52 485.237 1303.99 485.18 1299.29C485.18 1294.6 485.18 1291.07 485.18 1288.72C485.18 1281.91 485.294 1275.75 485.523 1270.25C479.049 1269.79 474.036 1269.47 470.484 1269.3ZM535.627 1324.73L536.057 1264.23C536.687 1262.11 539.151 1261.05 543.448 1261.05C547.401 1261.05 551.039 1261.59 554.362 1262.68C557.685 1263.71 560.464 1265.49 562.698 1268.01C564.99 1270.48 566.136 1273.45 566.136 1276.95C566.136 1279.7 565.448 1282.36 564.073 1284.94C562.756 1287.52 561.123 1289.18 559.175 1289.93C562.842 1290.44 565.792 1292.65 568.027 1296.54C570.261 1300.44 571.378 1305.05 571.378 1310.38C571.378 1313.99 569.946 1317.14 567.081 1319.83C564.217 1322.47 560.865 1324.39 557.026 1325.59C553.245 1326.74 549.406 1327.31 545.51 1327.31C540.755 1327.31 537.46 1326.45 535.627 1324.73ZM542.674 1294.65C542.674 1298.61 542.617 1306.54 542.502 1318.46C544.221 1320.41 546.427 1321.38 549.12 1321.38C552.672 1321.38 556.11 1319.92 559.433 1317C562.756 1314.02 564.417 1310.84 564.417 1307.46C564.417 1303.28 563.013 1300.01 560.206 1297.66C557.399 1295.31 553.789 1294.14 549.378 1294.14C546.456 1294.14 544.221 1294.31 542.674 1294.65ZM542.502 1288.29L547.831 1288.21C551.497 1288.21 554.305 1287.15 556.253 1285.03C558.258 1282.85 559.261 1280.27 559.261 1277.29C559.261 1274.26 558.258 1271.65 556.253 1269.47C554.247 1267.24 551.469 1266.12 547.917 1266.12C546.312 1266.12 544.422 1266.46 542.244 1267.15C542.359 1270.65 542.416 1274.97 542.416 1280.13C542.474 1285.29 542.502 1288.01 542.502 1288.29ZM578.426 1298.18C578.426 1296.23 578.426 1294.77 578.426 1293.79C578.426 1292.76 578.454 1291.22 578.511 1289.15C578.626 1287.09 578.741 1285.46 578.855 1284.25C579.027 1283.05 579.256 1281.5 579.543 1279.61C579.829 1277.67 580.202 1276.12 580.66 1274.97C581.118 1273.77 581.634 1272.42 582.207 1270.93C582.837 1269.44 583.611 1268.24 584.527 1267.32C585.444 1266.41 586.447 1265.55 587.535 1264.75C588.624 1263.89 589.913 1263.26 591.403 1262.86C592.892 1262.45 594.525 1262.25 596.301 1262.25C599.853 1262.25 602.947 1262.97 605.583 1264.4C608.218 1265.78 610.281 1267.52 611.771 1269.64C613.26 1271.76 614.435 1274.37 615.294 1277.47C616.211 1280.56 616.784 1283.51 617.013 1286.32C617.3 1289.12 617.443 1292.22 617.443 1295.6C617.443 1297.89 617.385 1299.95 617.271 1301.79C617.214 1303.62 617.042 1305.71 616.755 1308.06C616.526 1310.35 616.154 1312.39 615.638 1314.16C615.18 1315.94 614.521 1317.74 613.661 1319.58C612.802 1321.35 611.771 1322.84 610.567 1324.05C609.422 1325.19 607.961 1326.14 606.184 1326.88C604.408 1327.63 602.432 1328 600.255 1328C596.702 1328 593.637 1327.57 591.059 1326.71C588.538 1325.85 586.447 1324.65 584.785 1323.1C583.181 1321.55 581.892 1319.52 580.918 1317C580.001 1314.48 579.342 1311.73 578.941 1308.75C578.597 1305.77 578.426 1302.24 578.426 1298.18ZM611.255 1298.86C611.255 1296.06 611.026 1293.14 610.567 1290.1C610.166 1287.06 609.45 1283.8 608.419 1280.3C607.445 1276.81 605.869 1273.97 603.692 1271.79C601.515 1269.56 598.908 1268.44 595.872 1268.44C593.58 1268.44 591.546 1269.99 589.77 1273.08C588.051 1276.12 586.819 1279.56 586.074 1283.4C585.329 1287.18 584.957 1290.76 584.957 1294.14C584.957 1296.49 584.957 1298.29 584.957 1299.55C585.014 1300.76 585.129 1302.5 585.301 1304.79C585.473 1307.03 585.702 1308.81 585.988 1310.12C586.332 1311.44 586.848 1312.96 587.535 1314.68C588.223 1316.4 589.025 1317.74 589.942 1318.72C590.916 1319.63 592.147 1320.46 593.637 1321.21C595.184 1321.9 596.903 1322.27 598.794 1322.33C602.976 1322.1 606.099 1319.75 608.161 1315.28C610.224 1310.81 611.255 1305.34 611.255 1298.86ZM667.203 1337.97L663.335 1337.11C662.82 1332.75 661.932 1329.2 660.671 1326.45C655.916 1326.11 651.16 1325.94 646.405 1325.94C642.337 1325.94 636.292 1326.11 628.271 1326.45C627.928 1327.65 627.269 1331.84 626.295 1339L622.599 1338.66C621.453 1332.52 620.88 1327.25 620.88 1322.84C620.88 1322.61 620.88 1322.21 620.88 1321.64C620.938 1321.07 620.966 1320.64 620.966 1320.35C621.024 1320.35 621.969 1320.35 623.802 1320.35C625.636 1320.29 626.581 1320.26 626.638 1320.26C628.128 1317.23 629.331 1313.96 630.248 1310.47C631.222 1306.91 631.881 1303.13 632.225 1299.12C632.568 1295.05 632.798 1291.5 632.912 1288.47C633.027 1285.37 633.084 1281.45 633.084 1276.69C633.084 1271.94 633.113 1268.38 633.17 1266.04C637.181 1265.75 646.118 1265.61 659.984 1265.61L661.874 1319.49C662.791 1319.61 663.736 1319.69 664.71 1319.75C665.684 1319.81 666.63 1319.86 667.546 1319.92C667.374 1321.12 667.288 1322.61 667.288 1324.39C667.288 1325.31 667.317 1326.74 667.374 1328.69C667.432 1330.69 667.46 1332.18 667.46 1333.16C667.46 1335.1 667.374 1336.71 667.203 1337.97ZM633.514 1319.75C635.061 1319.75 637.381 1319.81 640.475 1319.92C643.569 1319.98 645.861 1320.01 647.35 1320.01C649.527 1320.01 651.79 1319.92 654.14 1319.75C654.254 1316.14 654.311 1310.5 654.311 1302.82V1285.72C654.311 1278.9 654.369 1273.83 654.483 1270.5C652.879 1270.39 651.676 1270.33 650.874 1270.33C649.556 1270.33 647.637 1270.42 645.116 1270.59C642.652 1270.76 640.991 1270.88 640.131 1270.93C639.959 1273.51 639.759 1277.58 639.53 1283.14C639.3 1288.64 639.071 1292.91 638.842 1295.94C638.613 1298.98 638.04 1302.76 637.123 1307.29C636.264 1311.76 635.061 1315.91 633.514 1319.75ZM668.921 1298.18C668.921 1296.23 668.921 1294.77 668.921 1293.79C668.921 1292.76 668.95 1291.22 669.007 1289.15C669.122 1287.09 669.236 1285.46 669.351 1284.25C669.523 1283.05 669.752 1281.5 670.039 1279.61C670.325 1277.67 670.697 1276.12 671.156 1274.97C671.614 1273.77 672.13 1272.42 672.703 1270.93C673.333 1269.44 674.106 1268.24 675.023 1267.32C675.94 1266.41 676.943 1265.55 678.031 1264.75C679.12 1263.89 680.409 1263.26 681.898 1262.86C683.388 1262.45 685.021 1262.25 686.797 1262.25C690.349 1262.25 693.443 1262.97 696.079 1264.4C698.714 1265.78 700.777 1267.52 702.266 1269.64C703.756 1271.76 704.931 1274.37 705.79 1277.47C706.707 1280.56 707.28 1283.51 707.509 1286.32C707.795 1289.12 707.939 1292.22 707.939 1295.6C707.939 1297.89 707.881 1299.95 707.767 1301.79C707.709 1303.62 707.538 1305.71 707.251 1308.06C707.022 1310.35 706.649 1312.39 706.134 1314.16C705.675 1315.94 705.017 1317.74 704.157 1319.58C703.298 1321.35 702.266 1322.84 701.063 1324.05C699.917 1325.19 698.456 1326.14 696.68 1326.88C694.904 1327.63 692.928 1328 690.75 1328C687.198 1328 684.133 1327.57 681.555 1326.71C679.034 1325.85 676.943 1324.65 675.281 1323.1C673.677 1321.55 672.388 1319.52 671.414 1317C670.497 1314.48 669.838 1311.73 669.437 1308.75C669.093 1305.77 668.921 1302.24 668.921 1298.18ZM701.751 1298.86C701.751 1296.06 701.522 1293.14 701.063 1290.1C700.662 1287.06 699.946 1283.8 698.915 1280.3C697.941 1276.81 696.365 1273.97 694.188 1271.79C692.011 1269.56 689.404 1268.44 686.367 1268.44C684.076 1268.44 682.042 1269.99 680.266 1273.08C678.547 1276.12 677.315 1279.56 676.57 1283.4C675.825 1287.18 675.453 1290.76 675.453 1294.14C675.453 1296.49 675.453 1298.29 675.453 1299.55C675.51 1300.76 675.625 1302.5 675.797 1304.79C675.969 1307.03 676.198 1308.81 676.484 1310.12C676.828 1311.44 677.344 1312.96 678.031 1314.68C678.719 1316.4 679.521 1317.74 680.437 1318.72C681.411 1319.63 682.643 1320.46 684.133 1321.21C685.68 1321.9 687.399 1322.27 689.289 1322.33C693.472 1322.1 696.594 1319.75 698.657 1315.28C700.72 1310.81 701.751 1305.34 701.751 1298.86ZM747.643 1323.1L748.503 1326.97H746.956C745.409 1326.97 741.828 1327.05 736.213 1327.23C730.598 1327.45 726.387 1327.57 723.58 1327.57C719.34 1327.57 716.447 1327.37 714.9 1326.97C715.473 1320.66 715.816 1310.12 715.931 1295.34C716.046 1280.56 716.418 1270.25 717.048 1264.4C718.996 1264.57 724.153 1264.72 732.518 1264.83C740.94 1264.95 746.44 1265.2 749.018 1265.61L749.964 1269.47C747.385 1269.93 742.229 1270.48 734.494 1271.11C726.76 1271.74 722.692 1272.08 722.291 1272.14C722.348 1273.45 722.463 1276.15 722.634 1280.22C722.864 1284.28 723.007 1287.63 723.064 1290.27C725.012 1290.5 728.564 1290.84 733.721 1291.3C738.877 1291.7 742.143 1291.96 743.518 1292.08L744.378 1296.03C732.288 1297.12 725.213 1297.69 723.15 1297.75C723.15 1300.27 723.093 1304.11 722.978 1309.26C722.921 1314.36 722.892 1318.12 722.892 1320.52C736.013 1321.72 744.263 1322.58 747.643 1323.1ZM722.463 1245.07C724.01 1245.07 725.299 1245.72 726.33 1247.04C727.419 1248.36 727.963 1249.88 727.963 1251.6C727.963 1252.86 727.648 1253.89 727.017 1254.69C726.445 1255.49 725.642 1255.89 724.611 1255.89C723.007 1255.89 721.718 1255.24 720.744 1253.92C719.827 1252.6 719.369 1251.05 719.369 1249.28C719.369 1248.02 719.627 1247.01 720.142 1246.27C720.715 1245.47 721.489 1245.07 722.463 1245.07ZM740.854 1245.07C742.401 1245.07 743.69 1245.72 744.721 1247.04C745.81 1248.36 746.354 1249.88 746.354 1251.6C746.354 1252.86 746.039 1253.89 745.409 1254.69C744.836 1255.49 744.034 1255.89 743.002 1255.89C741.398 1255.89 740.109 1255.24 739.135 1253.92C738.218 1252.6 737.76 1251.05 737.76 1249.28C737.76 1248.02 738.018 1247.01 738.534 1246.27C739.106 1245.47 739.88 1245.07 740.854 1245.07ZM814.849 1326.97L808.318 1327.57C805.166 1307.8 801.757 1290.87 798.091 1276.78C796.2 1281.25 794.109 1287.55 791.817 1295.68C789.582 1303.76 788.036 1309.01 787.176 1311.41C787.062 1311.41 786.861 1311.44 786.575 1311.5C786.345 1311.5 786.145 1311.5 785.973 1311.5C785.171 1311.5 783.853 1311.41 782.02 1311.24C780.186 1311.07 779.012 1310.98 778.496 1310.98C778.439 1309.32 776.978 1303.79 774.113 1294.4C771.248 1284.94 769.53 1278.9 768.957 1276.26C767.925 1285.54 763.915 1302.45 756.925 1326.97L751.597 1326.45C752.399 1320.21 754.375 1310.38 757.526 1296.97C760.678 1283.57 762.54 1273.2 763.113 1265.86C764.144 1265.75 764.975 1265.69 765.605 1265.69C766.178 1265.69 768.298 1265.92 771.965 1266.38C772.767 1266.49 773.913 1269.1 775.402 1274.2C776.949 1279.24 778.496 1284.8 780.043 1290.87C781.59 1296.95 782.564 1300.53 782.965 1301.61C784.569 1297.66 786.489 1291.24 788.723 1282.36C791.015 1273.48 792.619 1267.84 793.536 1265.43C794.452 1265.49 797.346 1265.75 802.216 1266.21C803.705 1271.99 805.138 1278.24 806.513 1284.94C807.945 1291.65 809.463 1299.27 811.068 1307.8C812.729 1316.34 813.99 1322.73 814.849 1326.97ZM818.459 1298.18C818.459 1296.23 818.459 1294.77 818.459 1293.79C818.459 1292.76 818.487 1291.22 818.545 1289.15C818.659 1287.09 818.774 1285.46 818.888 1284.25C819.06 1283.05 819.289 1281.5 819.576 1279.61C819.862 1277.67 820.235 1276.12 820.693 1274.97C821.151 1273.77 821.667 1272.42 822.24 1270.93C822.87 1269.44 823.644 1268.24 824.56 1267.32C825.477 1266.41 826.48 1265.55 827.568 1264.75C828.657 1263.89 829.946 1263.26 831.436 1262.86C832.925 1262.45 834.558 1262.25 836.334 1262.25C839.887 1262.25 842.98 1262.97 845.616 1264.4C848.251 1265.78 850.314 1267.52 851.804 1269.64C853.293 1271.76 854.468 1274.37 855.327 1277.47C856.244 1280.56 856.817 1283.51 857.046 1286.32C857.333 1289.12 857.476 1292.22 857.476 1295.6C857.476 1297.89 857.419 1299.95 857.304 1301.79C857.247 1303.62 857.075 1305.71 856.788 1308.06C856.559 1310.35 856.187 1312.39 855.671 1314.16C855.213 1315.94 854.554 1317.74 853.694 1319.58C852.835 1321.35 851.804 1322.84 850.601 1324.05C849.455 1325.19 847.994 1326.14 846.218 1326.88C844.441 1327.63 842.465 1328 840.288 1328C836.735 1328 833.67 1327.57 831.092 1326.71C828.571 1325.85 826.48 1324.65 824.818 1323.1C823.214 1321.55 821.925 1319.52 820.951 1317C820.034 1314.48 819.375 1311.73 818.974 1308.75C818.631 1305.77 818.459 1302.24 818.459 1298.18ZM851.288 1298.86C851.288 1296.06 851.059 1293.14 850.601 1290.1C850.199 1287.06 849.483 1283.8 848.452 1280.3C847.478 1276.81 845.902 1273.97 843.725 1271.79C841.548 1269.56 838.941 1268.44 835.905 1268.44C833.613 1268.44 831.579 1269.99 829.803 1273.08C828.084 1276.12 826.852 1279.56 826.107 1283.4C825.363 1287.18 824.99 1290.76 824.99 1294.14C824.99 1296.49 824.99 1298.29 824.99 1299.55C825.047 1300.76 825.162 1302.5 825.334 1304.79C825.506 1307.03 825.735 1308.81 826.021 1310.12C826.365 1311.44 826.881 1312.96 827.568 1314.68C828.256 1316.4 829.058 1317.74 829.975 1318.72C830.949 1319.63 832.181 1320.46 833.67 1321.21C835.217 1321.9 836.936 1322.27 838.827 1322.33C843.009 1322.1 846.132 1319.75 848.194 1315.28C850.257 1310.81 851.288 1305.34 851.288 1298.86ZM864.437 1324.73L864.867 1264.23C865.497 1262.11 867.961 1261.05 872.258 1261.05C876.211 1261.05 879.849 1261.59 883.172 1262.68C886.495 1263.71 889.274 1265.49 891.508 1268.01C893.8 1270.48 894.946 1273.45 894.946 1276.95C894.946 1279.7 894.259 1282.36 892.883 1284.94C891.566 1287.52 889.933 1289.18 887.985 1289.93C891.652 1290.44 894.602 1292.65 896.837 1296.54C899.071 1300.44 900.188 1305.05 900.188 1310.38C900.188 1313.99 898.756 1317.14 895.891 1319.83C893.027 1322.47 889.675 1324.39 885.836 1325.59C882.055 1326.74 878.216 1327.31 874.32 1327.31C869.565 1327.31 866.27 1326.45 864.437 1324.73ZM871.484 1294.65C871.484 1298.61 871.427 1306.54 871.312 1318.46C873.031 1320.41 875.237 1321.38 877.93 1321.38C881.482 1321.38 884.92 1319.92 888.243 1317C891.566 1314.02 893.227 1310.84 893.227 1307.46C893.227 1303.28 891.824 1300.01 889.016 1297.66C886.209 1295.31 882.599 1294.14 878.188 1294.14C875.266 1294.14 873.031 1294.31 871.484 1294.65ZM871.312 1288.29L876.641 1288.21C880.307 1288.21 883.115 1287.15 885.063 1285.03C887.068 1282.85 888.071 1280.27 888.071 1277.29C888.071 1274.26 887.068 1271.65 885.063 1269.47C883.058 1267.24 880.279 1266.12 876.727 1266.12C875.122 1266.12 873.232 1266.46 871.054 1267.15C871.169 1270.65 871.226 1274.97 871.226 1280.13C871.284 1285.29 871.312 1288.01 871.312 1288.29Z" fill="white"/>
</g>
<defs>
<filter id="filter0_d_64_99" x="0" y="0" width="993.587" height="1363" filterUnits="userSpaceOnUse" color-interpolation-filters="sRGB">
<feFlood flood-opacity="0" result="BackgroundImageFix"/>
<feColorMatrix in="SourceAlpha" type="matrix" values="0 0 0 0 0 0 0 0 0 0 0 0 0 0 0 0 0 0 127 0" result="hardAlpha"/>
<feOffset dx="12" dy="12"/>
<feGaussianBlur stdDeviation="6"/>
<feComposite in2="hardAlpha" operator="out"/>
<feColorMatrix type="matrix" values="0 0 0 0 0 0 0 0 0 0 0 0 0 0 0 0 0 0 0.8 0"/>
<feBlend mode="normal" in2="BackgroundImageFix" result="effect1_dropShadow_64_99"/>
<feBlend mode="normal" in="SourceGraphic" in2="effect1_dropShadow_64_99" result="shape"/>
</filter>
</defs>
</svg>
