<?xml version="1.0" encoding="UTF-8"?>
<!DOCTYPE svg PUBLIC "-//W3C//DTD SVG 1.1//EN" "http://www.w3.org/Graphics/SVG/1.1/DTD/svg11.dtd">
<svg xmlns="http://www.w3.org/2000/svg" xmlns:xlink="http://www.w3.org/1999/xlink" version="1.1" width="146px" height="146px" viewBox="-0.5 -0.5 146 146"><defs/><g><path d="M 22 62 L 62 62 L 62 22 L 82 22 L 82 62 L 122 62 L 122 82 L 82 82 L 82 122 L 62 122 L 62 82 L 22 82 Z" fill="none" stroke="none" transform="rotate(45,72,72)" pointer-events="all"/><path d="M 61.8 22.2 C 61.8 22.2 61.8 22.2 61.8 22.2 M 61.8 22.2 C 61.8 22.2 61.8 22.2 61.8 22.2 M 27.15 66.75 C 27.15 66.75 27.15 66.75 27.15 66.75 M 27.15 66.75 C 27.15 66.75 27.15 66.75 27.15 66.75 M 61.8 32.1 C 64.74 29.23 68.64 26.74 71.7 22.2 M 61.8 32.1 C 65.51 28.99 67.64 26.24 71.7 22.2 M 27.15 76.65 C 28.59 74.55 31.31 71.93 37.05 66.75 M 27.15 76.65 C 31.2 73.48 34.16 69.25 37.05 66.75 M 61.8 42 C 64.35 36.51 69.7 34.31 81.6 22.2 M 61.8 42 C 67.37 35.76 73.61 29.29 81.6 22.2 M 27.15 86.55 C 32.57 81.23 36.12 75.49 46.95 66.75 M 27.15 86.55 C 31.62 81.99 37.87 75.67 46.95 66.75 M 61.8 51.9 C 65.52 45.14 72.42 43.2 86.55 27.15 M 61.8 51.9 C 68.44 45.08 74.85 38.45 86.55 27.15 M 37.05 86.55 C 44.42 81.37 49.25 71.94 56.85 66.75 M 37.05 86.55 C 41.46 81.53 47.39 74.99 56.85 66.75 M 61.8 61.8 C 69.85 56.55 75.63 48.7 86.55 37.05 M 61.8 61.8 C 68.64 53.23 77.62 46.14 86.55 37.05 M 46.95 86.55 C 57.12 78.88 66.17 69.22 86.55 46.95 M 46.95 86.55 C 56.64 76.77 67.42 65.33 86.55 46.95 M 56.85 86.55 C 66.29 78.25 75.2 69.91 86.55 56.85 M 56.85 86.55 C 63.4 80.19 70.08 74.37 86.55 56.85 M 66.75 86.55 C 73.62 80.25 79.19 74.96 86.55 66.75 M 66.75 86.55 C 71.17 82.55 75.76 76.48 86.55 66.75 M 66.75 96.45 C 74.63 90.73 80.3 80.43 96.45 66.75 M 66.75 96.45 C 77.42 85.99 87.8 75.04 96.45 66.75 M 66.75 106.35 C 73.22 100.39 81.86 92.36 86.55 86.55 M 66.75 106.35 C 73.33 99.01 78.73 93.29 86.55 86.55 M 86.55 86.55 C 91.25 79.42 97.98 73.51 106.35 66.75 M 86.55 86.55 C 92.95 79.4 98.92 73.79 106.35 66.75 M 66.75 116.25 C 75.42 110.45 81.4 103.31 86.55 96.45 M 66.75 116.25 C 71.94 109.77 77.71 105.56 86.55 96.45 M 96.45 86.55 C 101.66 80.74 104.99 76.87 116.25 66.75 M 96.45 86.55 C 103.08 81.13 109.74 74.85 116.25 66.75 M 66.75 126.15 C 73.68 121.24 82.11 114.29 86.55 106.35 M 66.75 126.15 C 73.2 119.16 79.8 113.49 86.55 106.35 M 106.35 86.55 C 113.96 81.48 118.67 74.51 126.15 66.75 M 106.35 86.55 C 113.1 79.12 118.06 74.43 126.15 66.75 M 76.65 126.15 C 78.22 122.53 81.09 121.79 86.55 116.25 M 76.65 126.15 C 80.78 122.9 84.83 119.21 86.55 116.25 M 116.25 86.55 C 119.33 83.32 120.77 80.62 126.15 76.65 M 116.25 86.55 C 119.78 82.96 123.95 79.34 126.15 76.65 M 27.15 76.65 C 30.69 71.97 34.11 65.75 39.14 62 M 27.15 76.65 C 30.45 72.66 33.53 68.02 39.14 62 M 62 34.05 C 62.65 32.98 65.45 29.21 71.7 22.2 M 62 34.05 C 64.93 31.47 66.73 28.02 71.7 22.2 M 61.8 61.8 C 59.71 63.82 58.31 65.54 56.85 66.75 M 61.8 61.8 C 60.42 62.58 59.51 63.99 56.85 66.75 M 46.95 86.55 C 58.29 71.13 71.78 58.33 86.55 37.05 M 46.95 86.55 C 58.39 74.39 68.86 59.89 86.55 37.05 M 56.85 86.55 C 66.37 76.52 73.68 64.77 86.55 46.95 M 56.85 86.55 C 68.9 72.19 78.72 56.81 86.55 46.95 M 66.75 86.55 C 74.25 73.78 80.44 65.31 86.55 56.85 M 66.75 86.55 C 73.41 74.57 81.03 62.5 86.55 56.85 M 66.75 96.45 C 71.5 87.39 77.27 79 86.55 66.75 M 66.75 96.45 C 71.56 90.06 75.83 81.64 86.55 66.75 M 66.75 106.35 C 72.81 100.11 76.01 95.06 82 86.01 M 66.75 106.35 C 70.73 99.56 76.84 93.77 82 86.01 M 85.01 82 C 86.71 76.78 92.59 75.7 96.45 66.75 M 85.01 82 C 88.72 75.91 92.86 70.57 96.45 66.75 M 66.75 116.25 C 71.89 108.96 77.5 102.37 82 97.18 M 66.75 116.25 C 70.92 112.67 73.59 107.67 82 97.18 M 94.15 82 C 96.62 78.01 100.6 70.75 106.35 66.75 M 94.15 82 C 97.09 78.26 101.33 74.14 106.35 66.75" fill="none" stroke="#ffffff" stroke-width="2" stroke-linejoin="round" stroke-linecap="round" stroke-miterlimit="10" transform="rotate(45,72,72)" pointer-events="all"/></g></svg>