<?xml version="1.0" encoding="UTF-8"?>
<!DOCTYPE svg PUBLIC "-//W3C//DTD SVG 1.1//EN" "http://www.w3.org/Graphics/SVG/1.1/DTD/svg11.dtd">
<svg xmlns="http://www.w3.org/2000/svg" xmlns:xlink="http://www.w3.org/1999/xlink" version="1.1" width="153px" height="153px" viewBox="-0.5 -0.5 153 153"><defs/><g><ellipse cx="76" cy="76" rx="75" ry="75" fill="none" stroke="none" pointer-events="all"/><path d="M 14.68 33.28 C 14.68 33.28 14.68 33.28 14.68 33.28 M 14.68 33.28 C 14.68 33.28 14.68 33.28 14.68 33.28 M 3.01 58.9 C 19.37 42.95 34.66 24.81 42.37 13.62 M 3.01 58.9 C 13.12 47.08 24.92 34.69 42.37 13.62 M 5.76 67.92 C 22.73 48.86 40.99 26.77 57.59 8.3 M 5.76 67.92 C 24.64 45.84 44.97 22.82 57.59 8.3 M 6.55 79.21 C 19.84 62.92 33.85 48.33 69.53 6.76 M 6.55 79.21 C 21.72 64.02 35.16 45.94 69.53 6.76 M 8 89.74 C 31.67 61 59.7 32.01 79.51 7.48 M 8 89.74 C 23.67 72.51 38.88 54.2 79.51 7.48 M 8.79 101.03 C 40.81 65.8 70.81 27.73 89.48 8.2 M 8.79 101.03 C 38.48 66.5 69.56 32.07 89.48 8.2 M 12.86 108.54 C 34.79 84.44 51.86 62.92 100.77 7.41 M 12.86 108.54 C 31.93 88.9 49.73 68.41 100.77 7.41 M 17.58 115.3 C 47.01 83.83 72.32 52.95 108.12 11.15 M 17.58 115.3 C 53.13 75.76 87.48 35.59 108.12 11.15 M 21.65 122.81 C 50.16 91.43 78.45 58.72 115.47 14.89 M 21.65 122.81 C 42.54 98.89 64.25 73.91 115.47 14.89 M 25.72 130.32 C 56.68 95.84 84.59 59.79 122.16 19.38 M 25.72 130.32 C 63.23 87.25 100.56 43.63 122.16 19.38 M 32.42 134.82 C 66.3 94.21 97.97 57.34 129.51 23.12 M 32.42 134.82 C 63.33 99.37 95.45 62.73 129.51 23.12 M 39.11 139.31 C 58.77 117 77.87 94.97 135.55 28.37 M 39.11 139.31 C 75.75 96.49 114.37 52.5 135.55 28.37 M 45.8 143.8 C 70.32 114.67 94.69 87.05 140.28 35.13 M 45.8 143.8 C 73.62 109.17 102.84 75.73 140.28 35.13 M 52.5 148.3 C 80.22 116.15 110.17 84.69 144.34 42.64 M 52.5 148.3 C 76.78 121.39 99.63 94.49 144.34 42.64 M 61.81 149.77 C 94.73 110.22 128 74.7 149.07 49.4 M 61.81 149.77 C 93.56 114.72 122.17 80.48 149.07 49.4 M 71.79 150.49 C 100.4 116.37 129.15 85.41 153.14 56.91 M 71.79 150.49 C 96.71 121.14 123.02 91.15 153.14 56.91 M 83.73 148.95 C 111.04 120.56 136.86 91.35 153.93 68.2 M 83.73 148.95 C 110.4 118.76 138.35 88.58 153.93 68.2 M 97.64 145.14 C 113.08 129.35 127.37 112.5 154.72 79.48 M 97.64 145.14 C 118.27 121.49 138.59 97.61 154.72 79.48 M 112.21 140.58 C 128.5 122.64 144.22 103.78 156.16 90.01 M 112.21 140.58 C 125.8 124.64 139.18 107.2 156.16 90.01" fill="none" stroke="#ffffff" stroke-width="2" stroke-linejoin="round" stroke-linecap="round" stroke-miterlimit="10" pointer-events="all"/><path d="M 66.07 3.54 C 76.35 1.33 89.86 3.5 100.64 6.91 C 111.43 10.32 122.75 16.37 130.77 23.99 C 138.8 31.6 145.42 42.31 148.78 52.58 C 152.14 62.84 152.57 74.93 150.93 85.57 C 149.29 96.2 144.97 107.53 138.93 116.37 C 132.9 125.21 124.09 133.39 114.7 138.6 C 105.31 143.81 93.87 146.75 82.58 147.62 C 71.3 148.49 57.47 147.54 47.01 143.82 C 36.55 140.1 27.06 133.28 19.81 125.32 C 12.56 117.36 6.68 106.38 3.52 96.06 C 0.36 85.74 -1.01 73.88 0.86 63.39 C 2.74 52.91 8.09 41.62 14.77 33.17 C 21.46 24.73 31.01 17.6 40.99 12.72 C 50.96 7.85 67.71 5.01 74.62 3.9 C 81.52 2.79 82.43 5.05 82.41 6.05 M 68.75 4.85 C 79.3 2.43 92.52 3.11 102.86 6.75 C 113.21 10.39 122.9 18.5 130.8 26.69 C 138.71 34.88 147.01 45.73 150.31 55.92 C 153.62 66.11 152.74 77.62 150.64 87.83 C 148.55 98.03 143.88 108.57 137.74 117.15 C 131.59 125.73 123.38 133.88 113.79 139.31 C 104.2 144.75 91.51 149.17 80.21 149.76 C 68.91 150.35 56.38 147.43 45.99 142.86 C 35.6 138.29 25.14 130.64 17.86 122.33 C 10.57 114.02 4.95 103.21 2.29 93 C -0.38 82.79 -0.26 71.42 1.87 61.08 C 4.01 50.75 8.28 39.33 15.1 30.98 C 21.91 22.63 34.01 15.42 42.77 10.98 C 51.54 6.54 63.25 5.24 67.68 4.34 C 72.1 3.45 68.8 4.48 69.33 5.61" fill="none" stroke="#ffffff" stroke-width="3" stroke-linejoin="round" stroke-linecap="round" stroke-miterlimit="10" stroke-dasharray="9 9" pointer-events="all"/></g></svg>