<svg width="75" height="75" viewBox="0 0 75 75" fill="none" xmlns="http://www.w3.org/2000/svg">
<path d="M48.2933 0L37.6482 10.6663C34.7518 13.6062 34.7518 18.3928 37.6482 21.3327L42.9519 26.647L25.837 43.7961L15.2296 33.1297L9.8882 38.4064C-8.73129 57.2515 4.6597 70.4431 4.6597 70.4431C4.6597 70.4431 17.825 83.6347 36.6326 65.1288L41.9363 59.8144L31.4041 49.2612L48.4813 32.1498L53.7098 37.3887C56.6438 40.2909 61.4209 40.2909 64.3549 37.3887L75 26.7224L48.2933 0ZM58.9383 31.9236L53.7474 26.7224L48.3309 21.295L43.0648 16.0184L48.3685 10.704L64.2797 26.647L58.9383 31.9236Z" fill="white"/>
</svg>
