<svg width="100" height="100" viewBox="0 0 100 100" fill="none" xmlns="http://www.w3.org/2000/svg">
<path d="M37.4999 43.75C37.4999 40.3 40.2999 37.5 43.7499 37.5H56.2499C59.6999 37.5 62.4999 40.3 62.4999 43.75C62.4999 43.9868 62.4059 44.2139 62.2384 44.3813C62.071 44.5488 61.8439 44.6428 61.6071 44.6428H38.3928C38.156 44.6428 37.9289 44.5488 37.7614 44.3813C37.594 44.2139 37.4999 43.9868 37.4999 43.75ZM49.9999 7.14282C45.5217 7.14244 41.1911 8.7446 37.7914 11.6596C34.3917 14.5745 32.1473 18.6098 31.4642 23.0357C26.2172 26.2191 21.8796 30.7018 18.8705 36.0507C15.8613 41.3996 14.2822 47.4341 14.2857 53.5714V57.1428H85.7142V53.5714C85.7177 47.4341 84.1386 41.3996 81.1294 36.0507C78.1202 30.7018 73.7827 26.2191 68.5356 23.0357C67.8525 18.6098 65.6082 14.5745 62.2085 11.6596C58.8088 8.7446 54.4782 7.14244 49.9999 7.14282ZM49.9999 17.8571C46.7392 17.8571 43.5785 18.2928 40.5785 19.1143C41.6527 17.6192 43.0675 16.4014 44.7058 15.5617C46.3442 14.722 48.159 14.2846 49.9999 14.2857C53.8785 14.2857 57.3142 16.1893 59.4214 19.1143C56.3511 18.2764 53.1825 17.8536 49.9999 17.8571ZM43.7499 32.1428H56.2499C57.7742 32.1428 59.2835 32.4431 60.6918 33.0264C62.1 33.6097 63.3796 34.4647 64.4574 35.5425C65.5352 36.6203 66.3902 37.8999 66.9735 39.3081C67.5568 40.7163 67.8571 42.2257 67.8571 43.75C67.8571 45.4076 67.1986 46.9973 66.0265 48.1694C64.8544 49.3415 63.2647 50 61.6071 50H38.3928C36.7352 50 35.1455 49.3415 33.9734 48.1694C32.8013 46.9973 32.1428 45.4076 32.1428 43.75C32.1428 42.2257 32.443 40.7163 33.0263 39.3081C33.6096 37.8999 34.4646 36.6203 35.5424 35.5425C37.7192 33.3657 40.6715 32.1428 43.7499 32.1428ZM32.1428 68.75V62.5H14.2857V78.5714C14.2857 82.3602 15.7907 85.9938 18.4698 88.6729C21.1489 91.352 24.7826 92.8571 28.5714 92.8571H71.4285C75.2173 92.8571 78.8509 91.352 81.53 88.6729C84.2091 85.9938 85.7142 82.3602 85.7142 78.5714V62.5H37.4999V68.75C37.4999 69.4604 37.2177 70.1417 36.7154 70.644C36.2131 71.1463 35.5318 71.4285 34.8214 71.4285C34.111 71.4285 33.4297 71.1463 32.9273 70.644C32.425 70.1417 32.1428 69.4604 32.1428 68.75Z" fill="white"/>
</svg>
